<?xml version="1.0" encoding="UTF-8"?>
<svg width="40px" height="40px" viewBox="0 0 40 40" version="1.1" xmlns="http://www.w3.org/2000/svg" xmlns:xlink="http://www.w3.org/1999/xlink">
    <!-- Generator: Sketch 43.2 (39069) - http://www.bohemiancoding.com/sketch -->
    <title>icon/icon-quote-white</title>
    <desc>Created with Sketch.</desc>
    <defs></defs>
    <g id="Symbols" stroke="none" stroke-width="1" fill="none" fill-rule="evenodd">
        <g id="icon/icon-quote-white" fill="#FFFFFF">
            <path d="M24.5332031,33.8320312 C24.5332031,27.5494478 24.549479,24.0501338 24.5820312,23.3339844 C24.679688,17.4420278 25.5748613,13.0800923 27.2675781,10.2480469 C28.9602949,7.41600146 31.8411255,6 35.9101562,6 L37.4726562,10.6875 C35.2591035,10.6875 33.7454468,11.5094319 32.9316406,13.1533203 C32.1178345,14.7972087 31.7109375,17.4257632 31.7109375,21.0390625 L37.9121094,21.0390625 L37.9121094,33.8320312 L24.5332031,33.8320312 Z M3,33.8320312 C3,27.5494478 3.01627588,24.0501338 3.04882812,23.3339844 C3.14648486,17.4420278 4.0416582,13.0800923 5.734375,10.2480469 C7.4270918,7.41600146 10.3079224,6 14.3769531,6 L15.9394531,10.6875 C13.7259004,10.6875 12.2122437,11.5094319 11.3984375,13.1533203 C10.5846313,14.7972087 10.1777344,17.4257632 10.1777344,21.0390625 L16.3789062,21.0390625 L16.3789062,33.8320312 L3,33.8320312 Z" id="“"></path>
        </g>
    </g>
</svg>