<?xml version="1.0" encoding="UTF-8"?>
<svg width="155px" height="115px" viewBox="0 0 155 115" version="1.1" xmlns="http://www.w3.org/2000/svg" xmlns:xlink="http://www.w3.org/1999/xlink">
    <!-- Generator: Sketch 43.1 (39012) - http://www.bohemiancoding.com/sketch -->
    <title>award-nahb</title>
    <desc>Created with Sketch.</desc>
    <defs></defs>
    <g id="Symbols" stroke="none" stroke-width="1" fill="none" fill-rule="evenodd">
        <g id="award-nahb" fill="#000000">
            <path d="M148,42.1682 L78,24.0002 L78,30.9762 L148,49.1442 L148,42.1682 Z M78,24.0002 L8,42.1682 L8,49.1442 L78,30.9762 L78,24.0002 Z M136.869,79.7832 C136.869,77.8682 135.316,76.3152 133.4,76.3152 L127.021,76.3152 L127.021,83.2512 L133.4,83.2512 C135.316,83.2512 136.869,81.6992 136.869,79.7832 L136.869,79.7832 Z M127.021,68.1812 L132.901,68.1812 C134.667,68.1812 136.098,66.7502 136.098,64.9842 C136.098,63.2192 134.667,61.7882 132.901,61.7882 L127.021,61.7882 L127.021,68.1812 Z M148,80.6832 C148,87.7902 142.434,91.6432 137.554,91.6432 L116.318,91.6432 L116.318,53.6242 L137.589,53.6242 C142.691,53.6242 146.973,57.8202 146.973,63.2152 C146.973,68.6092 143.034,70.9212 141.064,71.9482 C141.064,71.9482 148,73.5752 148,80.6832 L148,80.6832 Z M100.991,53.6242 L100.991,68.1812 L92.085,68.1812 L92.085,53.6242 L80.526,53.6242 L80.526,91.6432 L92.085,91.6432 L92.085,77.4142 L100.991,77.4142 L100.991,91.6432 L112.55,91.6432 L112.55,53.6242 L100.991,53.6242 Z M63.229,71.0072 L67.682,67.6672 L62.373,67.6672 L60.575,62.3582 L58.777,67.6672 L53.468,67.6672 L57.92,71.2642 L55.865,76.4012 L60.404,72.9772 L65.37,76.4012 L63.229,71.0072 Z M78.3,91.6432 L66.654,91.6432 L64.942,84.1932 L56.122,84.1932 L53.981,91.6432 L42.336,91.6432 L54.581,53.6242 L66.654,53.6242 L78.3,91.6432 Z M8,91.6432 L8,53.6242 L19.046,53.6242 L31.034,73.4902 L31.034,53.6242 L40.453,53.6242 L40.453,91.6432 L31.376,91.6432 L17.504,69.1232 L17.504,91.6432 L8,91.6432 Z" id="Fill-1"></path>
        </g>
    </g>
</svg>