<?xml version="1.0" encoding="UTF-8"?>
<svg width="155px" height="115px" viewBox="0 0 155 115" version="1.1" xmlns="http://www.w3.org/2000/svg" xmlns:xlink="http://www.w3.org/1999/xlink">
    <!-- Generator: Sketch 43.1 (39012) - http://www.bohemiancoding.com/sketch -->
    <title>award-sia</title>
    <desc>Created with Sketch.</desc>
    <defs></defs>
    <g id="Symbols" stroke="none" stroke-width="1" fill="none" fill-rule="evenodd">
        <g id="award-sia" fill="#000000">
            <path d="M64.1299,43.073 C64.1299,30.118 56.8839,24 43.6769,24 C30.4699,24 23.0439,30.81 23.0439,42.397 C23.0439,53.985 28.8959,59.454 43.5869,62.608 C59.0069,65.919 58.4399,81.939 43.6769,81.939 C32.0269,81.939 32.1979,72.514 32.1979,72.514 L23.0439,72.514 C23.0439,72.514 21.0759,91.328 43.5869,91.328 C59.1799,91.328 63.8839,82.718 64.5229,73.352 C65.0779,65.206 60.1209,56.487 43.6769,52.368 C34.9249,50.175 32.6519,46.048 32.4949,42.221 C32.3089,37.703 35.6839,33.604 43.6769,33.604 C52.6079,33.604 54.7179,38.016 54.7179,43.073 L64.1299,43.073 Z M123.5079,57.664 L123.5079,50.089 C123.5079,41.956 122.5129,33.542 110.2159,33.542 C97.9199,33.542 96.9249,41.695 96.9249,50.089 L96.9249,57.664 L123.5079,57.664 Z M132.9999,50.089 L132.9999,91.328 L123.5079,91.328 L123.5079,67.469 L96.9249,67.469 L96.9249,91.328 L87.4329,91.328 L87.4329,50.089 C87.4329,37.399 90.8629,24 110.2159,24 C129.5689,24 132.9999,36.161 132.9999,50.089 L132.9999,50.089 Z M70.5109,91.328 L80.0029,91.328 L80.0029,24.126 L70.5109,24.126 L70.5109,91.328 Z" id="Fill-1"></path>
        </g>
    </g>
</svg>