<?xml version="1.0" encoding="UTF-8"?>
<svg width="155px" height="115px" viewBox="0 0 155 115" version="1.1" xmlns="http://www.w3.org/2000/svg" xmlns:xlink="http://www.w3.org/1999/xlink">
    <!-- Generator: Sketch 43.1 (39012) - http://www.bohemiancoding.com/sketch -->
    <title>award-arda</title>
    <desc>Created with Sketch.</desc>
    <defs></defs>
    <g id="Symbols" stroke="none" stroke-width="1" fill="none" fill-rule="evenodd">
        <g id="award-arda" fill="#000000">
            <path d="M111.5098,58 C111.5098,39.493 96.5068,24.49 77.9998,24.49 C61.8208,24.49 48.3198,35.957 45.1798,51.208 L77.4418,29.61 C77.4418,29.61 91.2828,43.324 96.9818,49.021 C102.6798,54.72 103.9178,56.586 103.9178,68.918 L77.4418,42.745 L45.0558,64.107 C47.9278,79.696 61.5798,91.51 77.9998,91.51 C87.6288,91.51 96.3018,87.443 102.4138,80.94 L70.0058,80.94 L70.0058,70.305 L103.9178,70.305 L103.9178,79.239 C108.6608,73.458 111.5098,66.063 111.5098,58 L111.5098,58 Z M122.9998,58 C122.9998,82.853 102.8528,103 77.9998,103 C53.1478,103 32.9998,82.853 32.9998,58 C32.9998,33.147 53.1478,13 77.9998,13 C102.8528,13 122.9998,33.147 122.9998,58 L122.9998,58 Z M70.0058,68.149 L80.6418,68.149 L80.6418,49.021 L70.0058,49.021 L70.0058,68.149 Z" id="Fill-1"></path>
        </g>
    </g>
</svg>