<svg xmlns="http://www.w3.org/2000/svg" viewBox="0 0 155 115"><defs><style>.a{fill:#ff1d25;fill-rule:evenodd;}</style></defs><title>bucket-secret_sauce</title><path class="a" d="M42.64,76.25c4.18,0,3.14,3.53,7.32,3.53s3.14-3.53,7.32-3.53,3.14,3.53,7.32,3.53,2.61-3.53,6.8-3.53,3.23,4,3.23,4v18.5h-42v-19s-1,0,3.23,0S38.46,76.25,42.64,76.25Z"/><path d="M45.73,24.71a3.1,3.1,0,1,0-3.1-3.1A3.1,3.1,0,0,0,45.73,24.71Zm0,3a6.1,6.1,0,1,1,6.1-6.1A6.1,6.1,0,0,1,45.73,27.71Zm11-10.51a3,3,0,1,1,3-3A3,3,0,0,1,56.75,17.19ZM52.8,36.91a3,3,0,1,1,3-3A3,3,0,0,1,52.8,36.91Zm64.36-3.76V64.51a21,21,0,1,1-19.71-.7V33.15h-2v-3h23.38v3Zm-56.1,62L36.62,48.29V95.12Zm3.38,0h6.17V80.46h-3v-3h3v-5h-3v-3h3v-5h-3v-3h3v-5h-3v-3h3v-6.8H39.15ZM32.53,40.46l-5.21-10L30,29.1l5.93,11.37H78.41v3H76.62v57.66h-46V43.46H28.82v-3ZM92.75,77c1.24.89,1.65,2.27,4.36,2.27,4,0,3-3,7-3s3,3,7,3,2.5-3,6.5-3h2.6a15.07,15.07,0,0,0-9.05-7.87V59.75H108.6v-3h2.56v-3H108.6v-3h2.56v-3H108.6v-3h2.56v-3H108.6v-3h2.56v-2.6h-7.71V68A15.06,15.06,0,0,0,92.75,77Z"/></svg>