<svg xmlns="http://www.w3.org/2000/svg" viewBox="0 0 115 115">
	<path d="M58.2,59.39A3.2,3.2,0,1,0,55,56.2,3.2,3.2,0,0,0,58.2,59.39Zm4.73,4.69L73,99H66.76L61,79v24.54H55V79L49.24,99H43L53.13,63.87A9.2,9.2,0,0,1,58,47h.2a9.2,9.2,0,0,1,4.73,17.08Z"/>
	<path style="fill:red;" class="texture" d="M72.35,71.35l-2.12-2.12a18,18,0,1,0-25.46,0l-2.12,2.12a21,21,0,1,1,29.7,0Zm10,10-2.12-2.12a31.5,31.5,0,1,0-44.55,0L33.6,81.4a34.5,34.5,0,1,1,48.79,0Zm8.49,8.49-2.12-2.12a43.5,43.5,0,1,0-61.52,0l-2.12,2.12a46.5,46.5,0,1,1,65.76,0Z"/></svg>