<svg xmlns="http://www.w3.org/2000/svg" viewBox="0 0 2000 2000"><defs><style>.a{fill:#62e0ce;}.b{fill:#fff;}</style></defs><title>logo</title><path class="a" d="M1416.62,1448.39c2.21,0.12,4.73-1.27,6.76-2.53,84-52.06,158.91-114.79,223.08-190.15,46-54,84.86-112.58,114.91-176.81,31.84-68.05,52.69-139.19,57.64-214.55,3.88-59-1.93-116.75-21.58-172.73-36.07-102.79-104.62-177-201.11-225.82-67.54-34.19-140-50.05-215.18-54.17a697.34,697.34,0,0,0-150.68,8.44c-88.2,14.38-171.9,42.54-251.77,82.36a936.17,936.17,0,0,0-145.51,89.8c-17.9,13.47-35.05,27.93-52.63,41.83,0,0-512.82,553.82-236.3,857.46S1416.62,1448.39,1416.62,1448.39Z"/><path d="M705.08,793.16h0v0Z"/><path class="b" d="M865.8,1096.68c2.12-2.65,3.91-4.76,5.57-7,7-9.33,13.5-19.06,21-28,21.16-25.24,42-50.76,64.34-75,16.41-17.83,33.8-35.1,52.69-50.19a544,544,0,0,1,64.88-44.11c26.66-15.59,54.58-29,82.15-43,18.45-9.37,37.63-17.35,55.79-27.23,19.81-10.78,38.9-22.91,58.17-34.67,18.73-11.43,34.18-26.6,47.86-43.59,10.21-12.68,23.74-17.87,37.17-13.26,2.75,0.94,6.87,3.26,7,5.19,0.19,2.68-2.14,6.37-4.5,8.26-7.92,6.34-16.3,12.14-24.58,18-5,3.54-5.08,5.48.13,8.5,3.75,2.17,7.75,3.92,11.52,6.07,5.7,3.25,6.16,8.3.95,12a68.45,68.45,0,0,1-9.82,5.48c-9,4.39-18,8.62-27,13-4.29,2.09-3.24,4.51-.08,6.65a17.31,17.31,0,0,0,4.64,2c6.49,2,13.07,3.68,19.49,5.85,7.07,2.39,7.82,5.72,2.49,10.9-9.53,9.26-21.28,14.8-33.57,19.26-13.41,4.87-25.77,10.94-35.57,22-4,4.48-10.41,8.54-16.19,9.31-19.65,2.6-38.2,8.66-56.65,15.3a49.58,49.58,0,0,0-11.6,5.7,11.36,11.36,0,0,0-4,6.78c-0.17.9,3.22,3.09,5.26,3.64a52.14,52.14,0,0,0,12.16,1.91c10.76,0.25,21.55-.37,32.28.22,11,0.6,22.35.62,32.14,7.2,8.66,5.82,10,11.4,4.94,20.62-1.64,3-3.67,5.8-4.7,9-2.27,6.92,1.17,11.72,8.43,11.71,6.2,0,12.41-.89,18.61-1,7.38-.1,10,3.77,6.83,10.57-2,4.22-5.42,7.73-7.44,11.93-1.27,2.63-2.33,6.5-1.26,8.77,0.8,1.71,5.09,2.19,7.9,2.42,2.56,0.21,5.23-1.05,7.82-1,4.47,0.16,9.14.17,13.33,1.49,10.79,3.4,12.25,10.33,4.35,18.41-1.32,1.35-2.63,2.72-3.82,4.18-4.27,5.28-9.87,5.31-15.43,3.28-3.82-1.4-7.35-3.8-10.73-6.15-6.65-4.62-12.66-10.38-19.75-14.13-16.27-8.61-33.25-13.94-52.4-13-19.61.93-36.18,8-51,19.76-15.81,12.52-26.49,29.19-34.18,47.66-1.42,3.4-.74,7.68-1,11.55,3.38-1.63,7.47-2.52,10-5,10.61-10.42,20.55-21.53,31.18-31.94a39.76,39.76,0,0,1,13-8.54c7.62-3,12.22.56,12.36,8.64,0.06,3.37-.7,6.74-1,10.12-0.35,4.61-2.12,10.2,3.24,12.69s8.82-2.49,12.43-5.63c3.82-3.31,7.16-7.5,11.51-9.77,3.85-2,9.77-3.82,13-2.18,2.58,1.33,2.65,7.87,3.47,12.18a94.77,94.77,0,0,1,.9,9.62c3.41-1.14,6.83-2.26,10.24-3.42a8.33,8.33,0,0,0,.91-0.66c4.84-2.52,9.5-5.54,14.59-7.39,7-2.56,11.07.16,11.67,7.58,0.73,8.89-2.89,16.61-10.81,20.18-9,4.05-18.75,6.75-28.43,8.88-24.85,5.47-50,9.46-74.72,15.58q-47.74,11.83-94.84,26.22c-19.58,6-38.69,13.71-57.62,21.57a442.08,442.08,0,0,0-44.37,21.2c-18.75,10.37-37.12,21.51-55.08,33.2a383.89,383.89,0,0,0-34.73,26.14c-12,9.93-24,20.07-34.79,31.25a357.24,357.24,0,0,0-31,36.67c-15.49,21-31.29,42.07-44.51,64.54-12.86,21.86-22.74,45.49-33.72,68.44-3.45,7.21-9.6,19.28-12.95,27.33a30.15,30.15,0,0,0,3.21-.28c13-3,26-6.25,39.1-9,3.61-.77,6.75-1.15,6.75-1.15s5.19-16.11,6.7-19.32c7.19-15.28,14.22-30.66,22-45.64a233.34,233.34,0,0,1,18.33-30.41c11.12-15.16,22.6-30.19,35.24-44.08,15.31-16.84,31.36-33.13,48.25-48.38a457,457,0,0,1,47.4-37.46c20.93-14.37,42.35-28.29,64.72-40.23,22.22-11.85,45.66-21.55,69-31.19,35.78-14.8,72.31-27.41,111.13-31.68,4.25-.47,8.59-0.06,13.58-0.06-0.81,2.23-.92,3-1.34,3.58-6.82,9-13.94,17.75-20.47,27-11.93,16.81-19.36,35.56-19.78,56.23-0.17,8.4,2.86,16.91,4.79,25.28,0.4,1.72,2.4,3.08,3.66,4.6a58.74,58.74,0,0,0,4.51-3.82,8.48,8.48,0,0,0,2.1-3.31c2.52-8.48,4.88-17,7.36-25.49,3.21-11,6.4-22,9.8-33,1.24-4,3.2-9.16,8-7.73,3,0.89,4.72,5.94,7,9.17a9.31,9.31,0,0,1,.28,1.66c2.34,5.94,4.72,11.88,7.08,17.81l2.43-.17c1.73-4.65,3.32-9.35,5.22-13.93,3.16-7.63,6-15.5,9.94-22.7,4.38-7.92,9.57-8,15.59-1.19,4.63,5.21,7.48,4.61,10.33-2,1.94-4.49,4-9,6.29-13.26,3.12-5.8,6.57-6.78,12.69-4,1.54,0.7,3,1.52,4.51,2.38,7,4.06,8,3.64,13.61-1.76,6.49-6.2,12.8-13.07,20.45-17.45,10.08-5.78,21.85-6.76,33.54-6.22,5.64,0.26,8.77,2.83,9.77,8.24,1.83,9.87,1.85,19.72-3.15,28.65a173.92,173.92,0,0,1-13.43,20.1c-7.47,9.85-7.71,13.15.51,21.6,3.57,3.67,2.73,6.88-.46,9.71a84.34,84.34,0,0,1-10.87,8.11c-8.12,5.13-8.41,7.75-.69,13.51,3.83,2.86,6,6.49,5.33,11.12s-4.82,6.07-8.94,7.45c-7.48,2.51-14.88,5.35-22.09,8.55-1.89.84-3,3.53-4.4,5.37,1.92,1.26,3.69,2.86,5.78,3.71,3.66,1.48,7.57,2.32,11.25,3.75,5.59,2.18,7,6.51,3.13,11a86.49,86.49,0,0,1-12.87,12.59c-12.55,9.6-25.51,18.65-38.15,28.14-1.89,1.42-2.88,4-4.29,6.08,2.48,1,4.9,2.69,7.44,2.89a64,64,0,0,0,38.41-9.17c15.76-9.33,27.88-22.17,38.53-36.84a109.22,109.22,0,0,0,16.62-32.41c7.58-24.63,9-50,10.72-75.35,1-15.37,2.78-30.72,4.91-46,0.46-3.3,4.17-8.91,5.94-8.74,5,0.46,4.72,5.76,4.92,9.88,0.43,8.85.71,17.7,1.26,26.54,0.33,5.43,2.11,6.06,6.66,3a63.74,63.74,0,0,1,8.83-5c8.8-4,15.14-1.46,17.24,7.87,1.12,5,.14,10.41,0,15.63-0.12,6.55,2,8.7,8.3,8.24,10.73-.79,14.54,3.55,12.38,14.29-1.49,7.39-3.52,14.69-4.61,22.13-0.37,2.53,1.4,5.38,2.19,8.09,2.35-1.27,5-2.21,7-3.88,4.75-3.92,8.82-8.77,13.88-12.16,7.38-4.95,13.4-1.64,12.69,7.29a104.11,104.11,0,0,1-5.1,24.2c-4.13,12.52-9.4,24.67-13.91,37.07-0.91,2.5-.57,5.45-0.81,8.19l2.29,1c3.75-4,7.61-8,11.23-12.16,18.57-21.39,30.17-45.34,28.16-74.61-1-15.25-6.28-28.72-16.28-40-14.19-16-31.9-28-48.42-41.42-5.08-4.11-10.06-8.72-13.75-14-1.78-2.56-1.64-7.78-.29-10.88,1.65-3.78,5.68-7.94,10.31-5.74,2.84,1.34,4.33,5.84,6,9.12,1.3,2.47,2,5.26,3.3,8.81,3.15-3.46,5.15-5.94,7.43-8.12,4.92-4.7,9-4.71,13.72,0,2.52,2.53,4.68,5.41,7.07,8.08,5.77,6.44,8.18,6.07,11-2,1.53-4.38,3.4-8.33,8.66-8.27s8.26,3.46,9.79,8.09c2.49,7.49,4.46,15.15,7.14,22.56,1.87,5.17,1.36,11.77,8.52,15.55,1-3.17,2.38-5.68,2.52-8.25,0.35-6.73.15-13.49,0.19-20.24,0.09-16.7-4.51-31.52-18.74-41.49-7.93-5.55-16.3-11.18-25.32-14.25-7.26-2.47-11.14-6.24-13.39-12.86-2.12-6.25-3.51-12.91-6.68-18.58-2.4-4.28-6.49-8.69-10.89-10.57-14.46-6.21-28.55-2.48-41.76,4.5-9.63,5.09-18.68,11.27-28.19,16.61-8.63,4.84-11.86,2.94-13.81-6.91-3.59-18.12-6.87-36.32-11.27-54.25-6-24.63-18.54-45.57-38.28-61.92-8.26-6.84-16.45-13.8-24.39-21-3.91-3.55-3.42-5.44,1.45-7.2,7.79-2.82,15.7-5.29,23.54-8,16.9-5.78,31.94-14.88,43.77-28.13,17.46-19.57,25.92-43.48,30.11-69,4.65-28.36,5.35-57,6-85.65a200.56,200.56,0,0,1,2.73-26.41c0.36-2.31,2.74-5.58,4.74-6,2.34-.54,5.62,1,7.85,2.59a12.1,12.1,0,0,1,4,6c2.77,8.77,5.72,17.55,7.55,26.54,1.61,7.9,1.76,16.09,2.66,24.14,0.73,6.54,1.91,7.17,7.88,5.1s12.16-4.07,18.3-5.89a6.71,6.71,0,0,1,4.56.25c0.55,0.28.32,2.69,0,4-2.13,8.21-4.88,16.29-6.4,24.61-0.76,4.14-.76,9.66,1.42,12.78,2.94,4.21,7-.65,10.49-1.85,5.48-1.91,8.61-.6,10.24,5.06,2.34,8.13,0,15.68-2.89,23.15-1.89,4.93-4.16,9.74-5.61,14.8a8.28,8.28,0,0,0,1.18,6.65c0.95,1.14,4.09,1.06,6,.6,2.71-.64,5.17-2.24,7.81-3.26,3.85-1.48,7.67-3.33,11.68-4.07,5.81-1.07,8.54,1.82,8,7.71a16.75,16.75,0,0,1-1.13,5.52c-4.42,9.57-8.68,19.24-13.63,28.54-6.82,12.81-14.26,25.28-21.26,38-0.77,1.4-.43,3.41-0.6,5.14,1.66-.51,3.77-0.55,4.92-1.61,9.4-8.66,19.35-16.88,27.76-26.44,19.36-22,32.36-46.73,29.64-77.44a122.71,122.71,0,0,0-15-48.87c-7.72-13.95-17.19-27-29.85-37.17-7.53-6-8.29-14-7.12-22.49,1-7,5.76-13.2,10.47-13.5,6.59-.43,10,4.38,12.1,9.42,3.18,7.77,5.48,15.92,7.89,24,1,3.32,1.26,6.86,1.86,10.3l1.47,0.58c3.57-4.41,7.06-8.88,10.73-13.2,4.5-5.3,9.71-10.85,17.18-8.13,6.44,2.34,7.39,9.33,8.38,15.6a177.62,177.62,0,0,0,3.67,19.38c1.6,5.83,4.21,6.33,8.78,2.1a112.63,112.63,0,0,0,8.79-9.56c7.93-9.27,19.23-9.78,24.94,0a122,122,0,0,1,12.29,27.78c4.75,16.66,7.88,33.78,12,50.64,0.54,2.23,2.68,4.07,4.08,6.09,1.54-2,3.9-3.69,4.5-5.9,3.25-12,6.72-23.93,8.88-36.12a115.21,115.21,0,0,0-8.05-67.49c-2.37-5.41-4.86-11.45-9.07-15.23-10.91-9.79-22.65-18.69-34.39-27.51-6-4.49-12.22-9.19-19.11-11.72-8-2.94-16.79-4.32-25.36-5.11q-26.72-2.46-53.56-3.49c-14.89-.55-29.83-0.22-44.74-0.05-7.91.09-15.81,0.84-23.72,1-6.7.12-7.57-1.38-4.78-7.25,2-4.26,4.22-8.45,6.06-12.79,5.37-12.69,10.93-25.4,11.75-39.38,0.73-12.34-1.74-23.75-12.35-31.76-4.66-3.51-9.44-6.89-14.38-10s-6.43-7.47-7.27-13.11-2.19-13-6.08-16.45c-12.72-11.36-25.82-22.15-44.18-24.63-16.53-2.23-31.06.69-44.54,10-1.5,1-2.34,3-3.48,4.55,2,0.87,4,2.54,5.93,2.48,6.2-.19,12.44-1.87,18.55-1.41,8.87,0.66,18,1.55,26.35,4.45,7.89,2.75,7.56,10.26.24,14.41-2.62,1.48-5.62,2.35-8.11,4-4,2.66-8.86,4.59-10.67,10.14,5.21,0.55,9.69.94,14.13,1.52,12.4,1.63,17.9,13.16,11.36,23.7-4.49,7.23-4.28,7.57,4.35,8a22.27,22.27,0,0,1,5.56.88c5.08,1.62,8.19,6.16,7.51,10.62-0.87,5.68-4.73,9.6-10.51,8.6a27.86,27.86,0,0,1-13.35-6.07c-7.4-6.65-14-14.23-20.66-21.64a111.22,111.22,0,0,0-36.1-26.68c-31.82-14.73-62.69-10.78-91.61,7.6-15.71,10-28,24-37.58,40.1-1,1.73-.24,4.56-0.29,6.87,1.92-.06,4.25.56,5.7-0.3,11.78-7,23.35-14.42,35.07-21.56,9.84-6,19.77-11.85,31.37-13.88,7.35-1.29,10.47,2,8.56,9.18a19.14,19.14,0,0,1-2.13,5.2c-2.9,4.62-6.27,9-8.9,13.72-1.23,2.22-2.47,6.07-1.41,7.49,1.21,1.63,4.93,1.64,7.59,1.83,1.6,0.11,3.29-.73,4.9-1.25,8.25-2.68,16.43-5.62,24.76-8,5.3-1.53,11.67-4.57,15.94.48s1.23,11.15-1.1,16.59c-1.13,2.65-2.31,5.28-3.46,7.92a10.61,10.61,0,0,0,5.41-.95c7.63-2.59,15.15-5.63,23-7.53,7.44-1.81,11.49,2.35,10.62,10.09-0.46,4.11-1.57,8.14-2.31,12.23-1.07,5.89,1.94,10.29,7.95,10.48,4.06,0.12,8.15-1.46,12.25-1.59a135.31,135.31,0,0,1,20,.41c3.41,0.39,7,2.55,6.8,7.11s-3.88,5.59-7.43,6.43c-14.31,3.41-28.54,7.28-43,10-10,1.84-20.21,2.09-30.35,2.74a5.74,5.74,0,0,1-4.43-2.49c-0.53-.94.36-3.53,1.43-4.36,3.62-2.86,7.56-5.31,11.44-7.83a32.31,32.31,0,0,1,3.68-1.8l-0.11-1.48c-1.84-.38-3.68-1.13-5.51-1.07-9.08.27-15.28,5.45-20.63,12.24-3.36,4.26-6.55,9.1-10.94,12-13,8.6-26.89,15.82-39.74,24.61-11.22,7.68-22.53,15.76-31.83,25.53-6.48,6.81-10.43,16.46-14.11,25.42-9.12,22.23-12.87,45.29-7.59,69.2,0.28,1.27,1.11,2.43,2.07,4.46a50.2,50.2,0,0,0,3.27-4.34c3.17-5.54,6.64-10.94,9.3-16.72,5.87-12.77,11.34-25.73,16.94-38.63,2-4.65,3.57-9.54,6-13.94,3-5.36,8.37-5.58,11.81-.55,3.17,4.64,5.57,9.8,8.63,14.53,1.21,1.87,3.28,3.18,5,4.75,1.64-1.89,3.95-3.53,4.8-5.72,2.08-5.38,3.47-11,5.18-16.55,2-6.48,3.86-13,6.17-19.4,1.72-4.76,5.6-5.64,9.3-2.2,2.18,2,3.71,4.75,5.69,7,2.77,3.17,5.7,6.22,9.47,10.3,1.35-3.43,2.2-5.42,2.92-7.45,3-8.33,5.5-16.84,9-25,2.75-6.42,7.68-6.63,12.32-1.33,3.1,3.54,6.11,7.2,9.54,10.42,5.07,4.76,10.34,3.2,12.43-3.35a98,98,0,0,1,3.44-10.18,11.42,11.42,0,0,1,3.91-4.42c3.62-2.48,7.79-4.23,11.16-7,4.34-3.56,7.78-8.27,12.28-11.58,1.93-1.42,5.55-.54,8.4-0.7,0,2.84,1.08,6.37-.2,8.4-7.76,12.24-15.44,24.63-24.34,36a518.73,518.73,0,0,1-35.32,41.12c-9.47,9.82-19.76,19.44-31.26,26.6-23.13,14.39-47.17,27.35-71.15,40.32-21.37,11.56-43.12,22.44-64.8,33.41-36.79,18.62-73.92,36.65-108.45,59.34-14.77,9.71-29,20.26-43.25,30.75,0,0-115.09,121.05-141.7,157.39s-110.17,218.55-110.17,218.55-3.42,12.1-6.5,14.49c-4.42,3.44-4.5,8-6.34,12.09-1.76,4-3.14,8.15-5.35,11.83-8,13.31-16.4,26.37-24.36,39.69-9.07,15.18-41,70.85-41,70.85s19.14,15.93,24.64,20.71c2.37,2.06,5.17,3.66,7.42,5.84,2.92,2.84,5.61,6,10.19,3.86l30.4-14.08s11.54-46.17,17.14-65.1c3.95-13.35,8.7-26.47,13.52-39.54C741,1345,747,1329.62,753.2,1314.28c6.49-16.16,13.27-32.19,20.21-49Zm525.51-31.07c5.58-7.07,11-14.44,20.28-17a11.73,11.73,0,0,1,6.64-.06c2,0.72,3.59,2.75,6,4.72-2,2.39-3.12,4.74-4.89,5.53-8.22,3.65-16.61,6.91-25,10.15a3.64,3.64,0,0,1-3-.79A2.62,2.62,0,0,1,1391.31,1065.6Zm0.07,15.74c4.36,3.52,8.23,6.4,11.75,9.66,1,0.89.85,2.94,1.23,4.46-1.53,0-3.3.41-4.56-.19C1391.37,1091.19,1389.9,1088.87,1391.38,1081.35Zm-43.89-25.16c0.43,0.6-.67,3.4-1.39,3.54-3.35.67-14.45-10.14-14.76-14.39C1338.67,1046.24,1343.52,1050.65,1347.5,1056.18Zm-25.18,16.6a7.77,7.77,0,0,1-3.69,1.25c-7.43,1.17-14.86,2.43-22.34,3.28-3,.34-6.07-0.28-9.11-0.46l-0.42-2.27c1.77-1.2,3.39-2.81,5.33-3.51a174.17,174.17,0,0,1,19.36-6.16c3.29-.76,7-0.08,10.47.56a4.79,4.79,0,0,1,3,3.48C1325,1070.2,1323.49,1071.79,1322.31,1072.78ZM1443.5,663.93c-4-1.29-8.25-2-11.79-4a133.32,133.32,0,0,1-16.17-11.3c-1.23-1-1.17-3.56-1.7-5.4,1.71-.33,3.55-1.26,5.09-0.91,11.54,2.68,18.09,11.72,26,19.08Z"/><path d="M1986.18,1459.94c-3.09-8.4-9.27-15.68-14.12-23.43-1.3-2.07-2.39-4.36-4-6.12-16-17.14-35.85-22.37-58.64-19.29-17.77,2.4-33.74,9.36-49,18.25-4.36,2.54-6.73,1.8-9.08-2.27-7.6-13.19-19.88-18.29-34.23-17.64-8.72.4-17.46,2.74-25.92,5.16-5.12,1.46-9.52,1.85-14.73.23a71.25,71.25,0,0,0-19.37-3.25A258.46,258.46,0,0,0,1655.55,1430c-15.73,6.25-30.89,14-46.13,21.4-6.8,3.31-9.76,2.77-12.47-4.54-6-16.2-17.86-26.25-33.61-32.06a85.2,85.2,0,0,0-40.06-4.82c-4.33.52-8.68,0.81-13,1.2l-0.51-1.44c4.11-2.42,8.52-4.46,12.26-7.36,4.69-3.64,8.81-8,13.21-12,12.44-11.4,27.41-19.86,38.39-33a15.48,15.48,0,0,1,1.22-1.18c15.24-14.58,31-28.66,45.59-43.85,24.62-25.64,48.57-51.93,69.69-80.62,20.47-27.79,40.17-56.1,56.9-86.33,9.74-17.6,19.35-35.32,28.09-53.43a626.13,626.13,0,0,0,38.08-99c12.29-42.7,21.16-86,22.7-130.52,0.66-19,.51-38.07-0.06-57.08-0.92-30.85-6.18-61.1-14.4-90.82-12.7-45.95-31.84-88.87-59.69-127.79-16.41-22.93-33.89-44.87-55-63.73-10.92-9.77-21.61-19.85-33.14-28.86-10.21-8-21.23-15-32.24-21.87-24.8-15.53-50.59-29.26-78.11-39.34-19.11-7-38.31-13.9-57.88-19.4A486.46,486.46,0,0,0,1416.47,397c-23.84-2.11-47.77-3.9-71.68-4.22a636.44,636.44,0,0,0-103.74,7.09c-17.3,2.62-34.81,4.47-51.79,8.48-29.86,7.05-59.52,15.06-89,23.52-18.08,5.19-35.9,11.45-53.47,18.18-15.82,6.05-31.22,13.24-46.68,20.21-14.27,6.43-28.66,12.69-42.47,20-18.69,9.94-36.9,20.79-55.27,31.32-10.77,6.17-21.78,12-32.12,18.85-12.35,8.16-24.17,17.14-36.1,25.94q-17.28,12.75-34.29,25.87c-10.67,8.27-21.12,16.81-31.75,25.3-2.06-3.66-3.89-6.91-5.71-10.17a112.71,112.71,0,0,0-40.75-42.3C703,554,682.06,548.57,660.29,547.31c-36.87-2.13-71.48,5.7-103.57,24.22-17,9.82-32.73,21.14-45,36.78-3.22,4.11-6.91,7.86-11.14,12.63a62.78,62.78,0,0,1,1.36-6.81q11.25-34.61,22.61-69.18,11.6-35.42,23.22-70.84,13.28-40.58,26.5-81.17c4-12.33,7.54-24.83,12-37,2.55-7,3.42-15.08,11.24-19.38A251.53,251.53,0,0,0,619,323.1a86.82,86.82,0,0,0,11.49-9.93c5.64-5.58,6.28-22.56.71-28.6-3.94-4.28-5.93-10.33-9-15.48a57.51,57.51,0,0,0-5.62-8.22c-6.85-8-15.72-12.7-26-14.86H566.89c-16.69.53-33.37,1.25-50.06,1.5-6,.09-11.94-1-17.91-1.5H463.8c-1.23.47-2.43,1-3.69,1.4-17.11,5.21-28,16.55-32.79,33.66-4.46,15.92-.48,30,10.95,41.58,3.8,3.86,4.55,7.08,2.89,11.95-5.94,17.43-11.54,35-17.35,52.46s-11.88,35-17.58,52.52c-7.93,24.4-15.56,48.9-23.43,73.31-7.82,24.24-15.8,48.42-23.7,72.63-9.35,28.68-18.36,57.47-28.17,86a138.64,138.64,0,0,1-28,48.13c-8.27,9.18-16.9,18-25.61,26.8-1.43,1.45-4.06,1.71-6.14,2.52h-1.13l-1.1,1.11c-3.63,3.84-6.75,8.43-11,11.38-8.93,6.2-18.59,11.32-27.67,17.31-5.44,3.59-12,7-15.11,12.25A67.14,67.14,0,0,0,207,815.31,33.29,33.29,0,0,0,215.91,843c5.8,6,14.13,9.76,21.74,13.73,3.54,1.84,6.22,3.35,7.66,7.41,1.74,4.94,3.57,10.4,7,14.07,14.86,15.79,34.2,21.51,55.07,9.67,2.28-1.29,4.78-2.19,7.11-3.39,6.29-3.25,12.64-6.4,18.79-9.9,5.86-3.33,11.08-8.4,17.31-10.31a74.9,74.9,0,0,1,37.54-2.05c15.47,3.31,30.79,7.51,45.92,12.15,13.53,4.15,26.71,9.41,40.08,14.19C458,926.41,445.8,963.7,470,1002.67a20.53,20.53,0,0,1-5.81-1.65c-12.95-5.73-25.76-11.78-38.85-17.19A367.8,367.8,0,0,0,306.17,956.5c-38.54-2.3-77-.4-114.56,9.9C140.95,980.28,97,1005.28,61.3,1044.19c-20.3,22.13-35.61,47.21-43.15,76.42a274.48,274.48,0,0,0-7.79,42.18c-1,11,.45,22.21,1.34,33.29a157.85,157.85,0,0,0,17.37,61.11c15,28.52,36.19,51.61,63.79,68.35,12.06,7.31,24.84,13.47,37.46,19.81,6.49,3.26,13.35,5.79,19.62,8.47-4.58,12-9.45,23.26-13.1,34.85-4.55,14.5-8.91,29.16-11.88,44-4.67,23.36-5.55,47.13-4.49,70.92,1,23.33,5,46.22,13,68.13,10.23,27.86,23.69,53.93,44.24,76,8.86,9.5,17.43,19.13,28,26.78,18.14,13.11,37.38,23.83,59,30.26,26.49,7.85,53.39,9.13,80.65,7,8.81-.7,17.8-0.92,26.32-3,22.71-5.45,45.28-11.56,66.49-21.71,13.36-6.4,26.8-12.63,40.09-19.18,6-2.95,11.69-6.48,17.91-10,1.1,2.54,1.61,4.39,2.62,5.91,4.61,7,8.32,15,14.26,20.61,18.92,17.91,42.09,21,66.42,15,12.17-3,23.77-8.35,35.56-12.81,2.8-1.06,4.85-2.07,7.38.95,8.64,10.3,20.24,15,33.23,13.07,14.12-2.12,27.9-6.38,41.91-9.33,2.53-.53,6-0.11,8.06,1.33,9.79,7,20.63,11.63,32.34,8.83,21.23-5.07,44-4.67,63.31-16.9,1.4-.89,3.18-1.16,4.76-1.79,4.34-1.74,6.52-.59,8.4,4.08,3.42,8.52,6.58,17.72,12.28,24.62,8.3,10.06,17.27,19.84,29,26.63a118.77,118.77,0,0,0,53.11,15.73c25.7,1.58,47.71-9.9,69.66-20.57a126.47,126.47,0,0,0,41.66-32.08,11.35,11.35,0,0,1,6.17-3.53,269.63,269.63,0,0,0,64.09-19.82c10.27-4.69,20.82-8.8,30.9-13.84,6-3,6.33-3.3,7.22,3.23,2.17,15.89,14.25,30.42,30.07,32.89a137,137,0,0,0,35.4.47c21.37-2.3,42.78-5.43,62.85-13.71,19.34-8,38.42-16.59,57.53-25.12,5.69-2.54,11.07-5.75,16.2-8.45,1.87,3.82,3.52,7.41,5.34,10.9,6.94,13.33,16.68,23.83,30.29,30.68,23.21,11.68,47.39,12.14,71.58,4.95,15.11-4.5,29.53-11.33,44.2-17.28,2.68-1.09,4.28-1.57,6.74,1.06,3.81,4.07,8.09,8.39,13.07,10.55,16.58,7.2,34,10.67,51.87,5.71,12.48-3.47,24.6-8.28,36.79-12.73,3.71-1.35,6.68-2.82,9.92,1.25,7,8.84,17,13.18,27.77,12.14,13-1.26,25.9-4.62,38.77-7.42,5.9-1.28,10.82-2.15,16.41,2.38,8.87,7.19,19.58,9.32,30.91,6.18,12-3.33,23.87-7.17,36-10,9.06-2.12,17.6-4.74,25.56-9.88,6.89-4.45,10.69-3.15,15.28,3.43,8,11.42,18.89,17.41,32.68,16.48a161.94,161.94,0,0,0,30.1-4.72,357.67,357.67,0,0,0,84.7-34.28c4.39-2.47,9.36-4.49,12.78-8,8.93-9.13,8.62-20.17,1.16-30.69-4.67-6.6-8-14.14-12.21-21.07-2-3.22-1.41-5.78.15-8.87,9.1-18,18.43-35.93,26.93-54.23s17.5-36.75,21.95-56.91C1991.21,1474.52,1988.75,1466.93,1986.18,1459.94ZM786.61,671.75a92,92,0,0,0-4.08-21c-1.67-5.14-.2-7.92,3.54-10.88,17.31-13.69,34.2-27.93,51.83-41.19a921.86,921.86,0,0,1,143.29-88.43c78.64-39.21,161.07-66.94,247.92-81.1a686.69,686.69,0,0,1,148.37-8.31c74,4.05,145.39,19.68,211.9,53.34,95,48.09,162.52,121.15,198,222.37,19.34,55.12,25.07,112,21.25,170.09-4.88,74.22-25.41,144.26-56.76,211.27-29.59,63.25-67.89,121-113.15,174.11-63.19,74.21-136.95,136-219.67,187.25-2,1.24-4.48,2.62-6.66,2.49-24.32-1.37-46.57,5.74-68.06,16.15-0.49.24-1,.39-2,0.76,7.3-21.86,15.17-42.88,21.25-64.42,5.51-19.53,10.29-39.45,13.09-59.52,2.69-19.33-11.72-28.67-30.14-21.73-26.64,10-53.42,19.69-80.18,29.41-13.54,4.92-18.44,15.32-13.21,28.67,1.38,3.51,3,6.93,4.27,10.48,3.29,9.15,9.33,14.89,20.36,15.89l-20.76,58.5c-24.81-20.4-51.52-15.71-78.32-7.74-8.62,2.56-16.81,6.6-26,10.29,2.69-7.66,5.51-14.85,7.75-22.22,8.26-27.22,16.59-54.43,24.29-81.82,2.12-7.53,2.76-15.64,3-23.51,0.42-14.89-13.18-24.21-27.21-19.1q-42,15.29-83.94,30.68c-13.28,4.87-17.9,15.17-12.79,28.39,1.22,3.17,2.69,6.25,3.78,9.45,3.33,9.75,9.48,16.13,20.82,17.1-5.22,14.81-10,29.29-15.41,43.54-14.88,39.31-30.28,78.43-44.8,117.87-2.95,8-6.85,11.73-15.17,10.91-1.85-.18-3.73,0-6.49,0,4.17-8.66,8.14-16.86,12.07-25.08,2.11-4.42,4.34-8.8,6.18-13.33,0.83-2,1.7-4.7,1.07-6.57-2.43-7.18,2-10.46,6.55-14.63,20.45-18.92,23.32-46.2,6.71-65.94-12.79-15.21-30.24-18.1-48.89-16.19-12.57,1.29-23.42,6.7-33.07,14.78-1.28,1.07-3.93,2-5.19,1.4-22.27-10.53-42.28-3.93-61.63,7.84-4.33,2.63-8.5,5.53-13.22,8.61-1.42-3.43-2.68-6.68-4.1-9.84-5.69-12.65-17.49-17-29.28-9.93-7.69,4.59-14.35,8.16-23.36,2.33-3.85-2.49-9.85-2.23-14.87-2.22a255.85,255.85,0,0,0-50.85,5.23q-7,1.6-13.91,3.25a292.07,292.07,0,0,0-64,25.5c-3.57,1.91-5.89,1.74-8.84-.83-7.25-6.31-14.51-12.67-22.21-18.41-5-3.72-5.73-7.82-4.81-13.6,3.13-19.64,4.24-39.46,1.55-59.23-3.79-27.85-5.87-33.19-20.18-58.08,2.68-.35,5.17-0.7,7.67-1s5.21-.52,8.25-0.82c0.74,2.49,1.4,4.78,2.08,7.07,3.89,13.06,13.17,21.36,25.36,22.68,13.69,1.48,26.15-5,32.53-17,4.54-8.56,5.9-17.86,5.65-27.39-0.1-3.69,1-5.48,4.53-7.21,8.49-4.19,16.94-8.47,25.27-12.93q15.81-9.3,31.68-18.5a263.78,263.78,0,0,0,43-34c36-35.65,55.79-78.84,56.66-129.84,0.19-11-2.45-22.05-3.46-33.11-0.18-2,.55-4.86,2-6.09,33.43-29.32,59.73-64.36,82.14-102.46a106.69,106.69,0,0,0,10-22.07c5.93-19-5.23-36.61-24.91-40.47-14.95-2.93-28.64,3.65-35.37,18.13-16.22,34.88-42,62.88-65.31,92.64l-27.34-21c9.12-7.78,18.35-15.51,27.41-23.41C854,947,878,925.69,902.33,904.76c6.12-5.27,13.24-9.35,19.61-14.36,8.39-6.6,15.67-14.25,19.64-24.42a36.33,36.33,0,0,0-28.16-49.22c-20.93-3.44-37.28,4.34-48.58,22.22-8.57,13.55-4.29,13-20,6.46-16.52-6.91-32.86-14.24-49.41-21.08-28.46-11.76-54.66-6-79.26,10.83-19.2,13.16-33.3,31.1-46.14,50.07-10.13,15-18.71,31-29.62,45.38-10.45,13.74-23,25.9-34.68,38.68a14.28,14.28,0,0,1-6.14,3.71c1.25-2.81,2.41-5.67,3.77-8.42,14.75-30,29.46-59.93,44.43-89.76,1.19-2.38,4-4.38,6.54-5.58C695.47,849.76,730,822.31,755,784,777.22,750.09,789.85,713,786.61,671.75Z"/><path d="M705.08,793.16h0v0Z"/><path class="b" d="M963.35,1493.63a42.1,42.1,0,0,0,56.65-15.14c4.64-7.78,3.35-20.54-1.63-26.26-6.89-7.91-15.55-11.26-24.46-11-17.57-.06-29.45,7-38.15,21.76C950.23,1472.44,953.83,1488.31,963.35,1493.63Z"/><path class="b" d="M668.83,764.63c1.43-9.69-4.41-22.65-13.88-25.72-20.9-6.77-36.94-2.46-50.47,15.16-2.83,3.68-3.88,8.72-5.75,13.14,1,11.21,6.12,19.3,15.87,23.74C633.09,799.37,665.16,789.58,668.83,764.63Z"/><path class="b" d="M922.51,915.62c-5.95-2.61-12.25-.21-15.31,6.7-6.82,15.39-16,29.31-25.62,43-5,7.17-9.87,14.45-15.29,21.29-6.88,8.69-14.32,16.92-21.39,25.46-6.21,7.51-12.16,15.23-18.4,22.71-1.18,1.41-3.17,2.15-4.41,3-19-26.91-42.9-44.12-76-46.46a3.3,3.3,0,0,1,.55-1.24c0.64-.38,1.37-0.6,2-0.92,7.7-3.67,15.65-6.91,23-11.17,4.66-2.7,8.44-6.91,12.6-10.44,16.21-13.76,32.19-27.82,48.69-41.21,22.21-18,41.53-39.44,65.39-55.55a80.9,80.9,0,0,0,11.69-10.11c4.5-4.51,7.83-9.77,7-16.58s-4.87-11.13-11-13.16c-7.9-2.63-16.36-2.83-22.21,3.73-6.81,7.65-12.5,16.36-18.13,25-2.51,3.83-5.21,5.3-9.68,5.24-16.28-.2-29.11-10.6-44.12-14.65-6.52-1.76-12.27-6.26-18.49-9.26-27.11-13.07-53.21-12.18-76.64,7.78-22.49,19.15-39.27,43-53.36,68.89-3.68,6.76-7.51,13.56-12.21,19.62-6.06,7.82-13.11,14.88-19.64,22.35-10.49,12-21.81,23.12-36.33,30.05-4.7,2.24-10.51,3.06-15.79,3-7.1-.12-11.32-4.93-10.39-12,1-7.76,2.56-15.75,5.65-22.88,7-16.16,15-31.88,22.78-47.71,8.84-18.06,17.88-36,26.73-54.07a21.06,21.06,0,0,1,10.89-10.68,247,247,0,0,0,31.44-16.67c9.29-6,17.39-13.74,26.39-20.2,4.88-3.5,9.36-6.92,11-13l1.09-1.09q0-.57,0-1.14h1.13l1.1-1.1c5-.14,7.81-3.13,9.64-7.41a11,11,0,0,1,1.2-2.43c5.54-7.2,11.5-14.1,16.61-21.59,9.78-14.34,15.9-30.41,20.35-47.08,7.46-27.93,8.53-55.46-5.8-81.91-8.21-15.14-20.1-26.47-35.86-33.13-26.11-11-53.29-11-79.93-3.31-29.58,8.52-56.18,22.08-74,49.37C549.42,660,544,676,545.69,694c1.31,14,9,24.73,22.23,28.8,19.53,6,38.73,4.91,55.26-9.41a8.66,8.66,0,0,1,3.55-1.51c7.93-2,16.68-12.92,17.17-22.15-2.28.7-4.39,1.3-6.46,2-8.16,2.74-16.37,4.1-24.83,1.35-6.87-2.23-10.66-7.06-10.85-14.19-0.4-15,5.87-27.4,16.63-37,21.3-19,46.7-23.27,74.08-18.12,10,1.89,19.93,6.07,26.14,13.7A74.5,74.5,0,0,1,732,664.45c6.42,23.59.67,46.81-7.69,68.63a129.52,129.52,0,0,1-44.81,59.09c-17,12.44-35,21.84-57.18,23.28-26.57,1.72-51.88-3.59-77-10-19.28-4.95-37.73-13-56.76-19-15.91-5-32.38-8.34-49.1-6.35-13.42,1.59-27,3.81-39.87,7.76-21.29,6.52-43.13,12.21-61.52,25.86-0.78.58-2.33,0.11-3.52,0.13,0.32-1.1.32-2.49,1-3.23a58.24,58.24,0,0,1,5.85-5.14c10.15-8.16,20.9-15.68,30.37-24.56a346.86,346.86,0,0,0,52.06-61.49c13.72-20.69,26-42,34.13-65.39,8-23,14.86-46.32,22.45-69.42,9.36-28.48,19.1-56.84,28.43-85.33q26.93-82.26,53.5-164.65c3.1-9.66,8.23-17.12,17-22.31,8.4-5,16.63-10.27,24.76-15.69,1.4-.93,1.9-3.22,2.81-4.88-1.56-.76-3.09-2.09-4.68-2.16a130.68,130.68,0,0,0-14.12.24c-22.22,1.48-44.4,2.5-66.66.06-8.78-1-17.72-.7-26.58-0.58-5.1.07-8.11,4.06-5.7,7,3.32,4.05,7.06,7.78,10.69,11.58,6,6.31,11.23,12.62,7.67,22.46-3.83,10.61-6.85,21.51-10.35,32.24-9.65,29.59-19.4,59.15-29,88.76-11,33.88-21.87,67.8-32.9,101.67-11.91,36.58-23.74,73.2-36,109.65-5.37,15.93-9.38,32.38-17.75,47.24-13.27,23.56-28.4,45.52-48.86,63.68a335,335,0,0,1-57.54,41.62,64.61,64.61,0,0,0-5.87,4.34c2.85,1.08,4.54,1.9,6.32,2.37,14.51,3.81,23.82,13,28.69,27.09,2.47,7.17,4.07,7.6,10.14,2.4a115.33,115.33,0,0,1,37-21.33c16.63-5.88,34-7.7,51.29-7.06,24.51,0.9,47.64,8.9,70.65,16.77,25.84,8.84,51.1,19.91,79.11,20.32,4.15,0.06,4.92,2.18,2.82,5.52-3.37,5.33-5.48,11.29-8.59,16.82-10.25,18.16-20,36.78-25.05,57.18-2,8.06-3.25,16.95-2,25,2.31,15.21,11.63,26.51,24.62,34.74,13.88,8.8,28.86,12.59,45.24,10.21s29.23-11.66,41.11-22c10.45-9.1,19.86-19.46,29.22-29.73,6-6.53,10-15.06,16.66-20.6,9.18-7.64,14.34-17.78,21-27.06,7.57-10.61,15.73-20.62,25.9-29,10.77-8.91,22-10,34.2-4,8.61,4.27,17,9,25.46,13.57,11.84,6.42,24,12,37.68,12.84,3,0.18,6.05,0,9.08,0A141.36,141.36,0,0,1,811.5,919.7c-3.26,2.48-7.16,4.12-10.38,6.64-6.5,5.07-12.57,10.7-19.12,15.7-8.76,6.69-18,12.76-26.68,19.54-9.33,7.27-18.23,15.09-27.38,22.6-4.62,3.79-8.86,8.58-14.15,10.92-12.53,5.53-25.78,9.41-38.36,14.84-8.64,3.73-16.87,8.84-21.84,17.31-2.49,4.24-5.49,9.25-5.32,13.81,0.56,14.94,17.79,24.11,30.21,18.85,7.08-3,13.71-7.67,19.62-12.68a208.39,208.39,0,0,0,22.51-22.07c8.47-9.72,16.33-19.56,31.42-14.76,0.87,0.28,1.91,0,2.81.22,7.54,1.9,15.17,3.92,19.64,11,6.13,9.72,8.12,20.63,7.46,31.94a9.15,9.15,0,0,1-3.77,6.19c-7.12,4.54-14.33,9.11-22,12.64q-40.08,18.48-80.55,36.1c-2.23,1-5.7.27-8.17-.71-3.81-1.52-7-4.58-10.88-5.91-31.4-10.85-63.23-10.86-95.32-3.31a6.77,6.77,0,0,1-4.84-1.28c-8.21-6-15.94-12.7-24.44-18.24-17.8-11.59-35.59-23.28-54.09-33.67-25.54-14.34-52.76-25-80.95-33.08a319.17,319.17,0,0,0-66.68-12c-43.24-2.86-85.7-.32-127,14.69a248.34,248.34,0,0,0-56,29c-8.33,5.72-15.84,12.69-23.42,19.44-22.37,19.93-37.76,44.3-45.59,73.29-8.44,31.27-7.08,62.3,3.7,92.72,6.6,18.63,18.27,34.29,32.8,47.44,14.82,13.41,31.11,24.74,50.36,31.38,14.37,5,28.33,11.1,42.7,16,8.25,2.84,17,4.33,25.88,6.53-5.08,8.21-10.57,15.8-14.72,24.06-7.07,14.09-14.06,28.31-19.72,43-13,33.72-17.9,68.85-16.33,105,1.43,32.83,9.61,63.72,26.44,92,10,16.87,22.07,32,37.4,44.85,13.2,11,27.44,19.79,43.31,25.63,30.59,11.26,62.16,11.07,93.77,5.35,23.62-4.27,46.62-10.78,67.48-23.26,14-8.37,28.5-16,41.85-25.32,10.2-7.1,19.23-16,28.26-24.63,9.41-9,18.41-18.46,27.18-28.09,16.76-18.41,31.1-38.72,41.73-61.14a322.44,322.44,0,0,0,18.7-50.2c9.65-34.13,11.36-68.89,1.89-103.41-4.65-17-14.1-31.19-30-40.15-14.45-8.15-30.08-10-46.42-9.47-28.24,1-52.54,12-74.62,28.57-7.9,5.94-15.07,12.88-22.29,19.66-8.57,8.05-17.64,15.76-25.08,24.79-18.38,22.31-34.76,45.86-44.69,73.56-7.45,20.77-11.55,41.78-10.24,63.74,0.86,14.47,7.92,30.76,25,31,6.09,0.07,12.53.55,18.2-1.16,5.17-1.56,10.83-4.86,14-9.09,10.73-14.28,11.29-30.71,7-47.43-0.65-2.55-3.39-4.59-5.23-6.81s-3.3-5.09-5.64-6.23c-7.07-3.45-14.46-3.94-21.73-.06-1.73.92-3.63,1.51-5.62,2.33-0.38-1.23-.77-1.79-0.67-2.26,3.93-19.22,12.8-36.43,23.08-52.76,5.94-9.43,14.06-17.5,21.28-26.11,14-16.65,29.35-31.73,47.17-44.34,15.93-11.27,32.83-20.26,52.31-22.94,17.89-2.46,34.74.5,48.41,13.55,12.6,12,17.37,27.45,17.87,44.36,1.29,43.19-14.94,81.18-36.51,117.11-9.95,16.57-22,32-33.75,47.35-8.67,11.33-17.6,22.73-28,32.41-11.78,11-25,20.5-38.16,29.87A201.56,201.56,0,0,1,389.72,1645a176.27,176.27,0,0,1-62.95,4.23c-27.72-2.91-51.88-13.71-69.68-36.68-16.15-20.84-23-44.7-24.43-70.33-2.53-44.74,7.35-87.39,24-128.54a423.28,423.28,0,0,1,37.13-71.49c1.85-2.85,3.85-3.36,6.92-3.52,20.86-1.07,42-.74,62.49-4a687.25,687.25,0,0,0,79.18-17.73,575.27,575.27,0,0,0,98.75-37.69c3.55-1.76,6.15-1.1,9.55,1.54a69.45,69.45,0,0,0,17.95,10.38c22.66,8.45,45.91,7.27,69.19,2.81,4.56-.87,9.1-1.84,14.38-2.91,0,2.51-.1,4.32,0,6.13,0.42,6.75.45,13.57,1.49,20.23,1.22,7.78,10.92,11,16.67,5.58,2.33-2.2,4.7-5.48,5-8.48a177.5,177.5,0,0,0,.84-25.92c-0.18-4.27,1.2-6.06,4.75-7.65,10.62-4.75,21.36-9.3,31.58-14.83,12.26-6.63,23.95-14.3,36-21.3,17.8-10.32,32.89-24,46.71-38.89,17.37-18.76,29.91-40.71,36.4-65.48,3.51-13.4,6.25-27.42,6.37-41.18,0.12-13-3.38-26-5.89-39-0.76-3.92-.28-6.38,2.71-8.84,5.23-4.31,10.66-8.47,15.27-13.39,13.25-14.11,26.54-28.22,39-43A266,266,0,0,0,911,964.31a307.11,307.11,0,0,0,18-33.21C932.51,923.53,929.88,918.86,922.51,915.62Zm-260,220.07c7.53,15.24-7.76,43-22.14,56.15-4.3-6.7-8.29-13-12.38-19.25a23.45,23.45,0,0,0-3.56-4.28c-4.24-3.95-4.35-6.11.45-9.17C637.32,1151.21,649.92,1143.51,662.5,1135.69Zm-18.56-14.47,0.43,1.76c-2.12,1.35-4.15,2.87-6.37,4-9.7,5-19.36,10.05-29.28,14.57-2.26,1-6.16,1-8.13-.29-8.75-5.8-17.1-12.22-25.54-18.48-0.79-.59-1.23-1.66-2.79-3.86C597.08,1118.45,620.66,1115.42,643.95,1121.23ZM299.62,1236.12c-13.53,15-26,31-38.79,46.67-5.09,6.25-10.05,12.63-14.54,19.32-6.12,9.11-6.22,9.15-17.28,5.52-9.44-3.09-19.21-5.21-28.63-8.35-22.46-7.49-43.27-18-61.94-32.9-18.1-14.48-29.17-33-34.88-55-6.45-24.81-3.74-49,7-72.2,7.83-16.93,19.31-31.07,33.34-43.24a92.69,92.69,0,0,0,8.62-7.88c1-1.07.65-3.27,0.91-5l1.08-1.08c3.36,2.49,5.8.46,8.54-1.44,8.12-5.62,15.95-11.91,24.71-16.29a285.73,285.73,0,0,1,34.51-14c35.83-12.38,72.85-12.85,110.2-10.72a415.36,415.36,0,0,1,78.74,11.64c19.7,5,39.39,10.9,58.08,18.78,22,9.28,42.89,21.14,64.24,31.93a55.86,55.86,0,0,1,5.49,3.82c-3.62,1.1-5.9,1.74-8.15,2.47q-33.8,11-67.6,22.08c-24.13,7.93-46.49,19.64-68.35,32.35-9.1,5.29-18.16,10.68-26.87,16.57-5.45,3.68-10.23,8.37-15.31,12.6l-1.1,1.17q-0.52,0-1,0l-1.26,0c-7.43,6-15,11.82-22.25,18.07C317.72,1219.22,307.87,1227,299.62,1236.12Zm242.64-35.94c-11.48,16-14.59,34.14-9.1,53.29,1.1,3.84-1.09,5-3.47,5.82-26.71,9.81-53.15,20.52-80.3,28.91a778.4,778.4,0,0,1-79.26,20c-19.51,3.84-39.65,4.48-59.53,6.41a7.42,7.42,0,0,1-4.43-1.45c-0.38-.26,0-2.6.74-3.4,8-9,15.92-18,24.2-26.73,11-11.6,22-23.3,33.64-34.27q19.29-18.18,39.81-35.05c13.74-11.29,27.94-22.07,42.34-32.52,30.41-22.07,63.51-39.12,98.65-52.44,6.91-2.62,11.64-1.41,16.65,3.18,6.78,6.21,13.87,12.07,20.69,18.22,1.16,1,1.65,2.81,2.38,4.11l-10.09,9.88,0.83,0.55c-2.51,1.28-5.68,2-7.41,4C559.57,1178.92,550.23,1189.06,542.27,1200.18Zm11.11,42.13c3.17-8,5.35-16.59,9.75-23.85a176.89,176.89,0,0,1,19.82-26c5.36-6,12-10.87,18.42-15.76,1.14-.87,5-0.15,6,1.11,5.8,7.4,11.24,15.09,16.46,22.91,0.75,1.12.25,3.93-.7,5.13a29.75,29.75,0,0,1-6.42,5.46,420.73,420.73,0,0,1-57.16,33.89C556.36,1246.79,554.52,1246.89,553.38,1242.31Zm87.46,27.58a107.39,107.39,0,0,1-52.08,8c-6.83-.59-13.53-3.13-20.18-5.15-1.76-.54-3.11-2.45-5.33-4.31,26.29-13.47,48.59-29.65,70.08-48.17,6.53,12.6,11.37,24.75,14.11,37.66C649.26,1266.49,649,1266.41,640.85,1269.89Zm29.09-16.58a34.41,34.41,0,0,1-1.93-3.19c-5.93-12.54-11.73-25.14-17.78-37.62-1.82-3.76-.11-5.8,2.36-8.27,6.36-6.37,13.18-12.47,18.52-19.64,11.69-15.7,17.15-33.39,13-53.07-0.94-4.42.26-6.63,4.19-8.37,15-6.68,30-13.35,44.88-20.38,11.89-5.63,23.52-11.8,35.29-17.69,4.49-2.25,9-4.38,14-6.77C788.26,1116,713.79,1231.79,669.94,1253.31Z"/><path class="b" d="M1945.4,1454a72.23,72.23,0,0,0-24.74,4.44,159.45,159.45,0,0,0-46.44,28.24c-16.59,14.31-32.36,29.58-48.48,44.44-1.29,1.19-2.54,2.42-3.81,3.64-0.91-3.32-1.22-6.24-.25-8.65,2.79-6.88,6.49-13.39,9.11-20.32,5.33-14.11,10.81-28.26,10.48-43.75-0.16-7.47-1.72-8.91-8.75-7.92a36.14,36.14,0,0,0-7,1.71c-10.81,3.84-21.58,7.79-32.39,11.71-3.38-12.54-3.91-11.82-16.92-12.34-14.69-.59-29.67,1.43-44.25,3.9-24.06,4.08-46.74,12.79-68.53,23.73-4.85,2.44-9.4,5.45-14.18,8-9.41,5.09-19.34,9.39-28.23,15.25a354.39,354.39,0,0,0-31.79,24c-6.61,5.52-12.47,12-18.14,18.57-6.16,7.09-11.72,14.7-17.54,22.09l-1.58.43c2.1-10.08-3.43-15.89-10.18-21.63-0.81,1.61-1.36,2.77-2,3.89-6.2,11.24-11.09,23.51-18.93,33.45-10.85,13.75-21,28.5-36.3,38.23-10.28,6.55-20.88,11.46-33.52,12.37-11.21.81-21.7-7.65-21-20.25,0.63-10.87,1.12-21.92,3.5-32.48,3.55-15.73,8.78-31.05,17.57-44.86,3-4.71,4.94-4.83,9.07-.83,4.54,4.39,9.91,6.29,16.4,6.13,12.69-.3,24.5-4,36.14-8.44,19.72-7.52,37.9-17.72,52.88-32.79,7.88-7.93,14.6-16.84,16.39-28.43,1.48-9.56-2.33-17.25-11.56-20a62.42,62.42,0,0,0-20.55-2.61c-24.71,1.18-47.08,10.17-67.47,23.53-12.51,8.2-23.78,18.3-35.59,27.57-13.68,10.74-23.56,24.76-32.56,39.3-5.19,8.39-8.95,17.67-13.32,26.56-9.83,20-13,41.21-11.32,63.19,1.41,18.43,13.21,30.34,31.24,32.25,20.77,2.2,39.36-4.27,56.9-14.57,2.82-1.65,5-5.52,7.76-5.91,5.18-.72,7.17-3.33,8-7.81h1.09v0l1.13,0,1.15-.06,1.13-1.14h0l1.16-1.15c2.34-1,5.11-1.59,6.94-3.21,8.89-7.84,17.52-16,26.25-24,1.25-1.15,2.51-2.28,3.76-3.42-4.33,12.66-4.72,25.17-3.48,37.8,0.71,7.19,3.39,13.28,10,17.44,9.25,5.82,19.08,4.36,28.49,2.13,21.72-5.16,40.28-16.83,57.28-30.88,3.42-2.83,8.93-4.61,9-10.58l1.1-1.1,0,0,1.12-1.13h0l1.19-.19a4.4,4.4,0,0,1,1-.16l1.16-.77c9.6-4.53,14.41-13.93,21.32-21.17,4.45-4.67,8.14-10.07,12.74-15.85-5.42,14.07-10.36,27.29-15.61,40.38-5.34,13.3-9.53,26.77-9.26,42.22,16.68-2.75,32.2-6.77,46.89-12.93s28.68-14,43.9-21.61l-14,35a19,19,0,0,0,3.32-.18c11.66-3.1,23.38-6,34.91-9.57a11.17,11.17,0,0,0,6-5.72c9.24-21.33,19.73-42.06,32.88-61.15,10.54-15.31,22.67-29.55,34.45-44a170.49,170.49,0,0,1,17.48-18.45,292,292,0,0,1,24.12-19.59c7.88-5.74,16.3-10.77,24.65-15.82,1.24-.75,3.75-0.4,5.06.42,0.69,0.43.54,3.21-.07,4.54-3.64,7.82-7.65,15.47-11.31,23.28-11,23.51-21.78,47.13-32.88,70.59a239.41,239.41,0,0,0-21.65,76.46c9.07-2,17.65-3.68,26.11-5.83a192.43,192.43,0,0,0,53.31-22.48c1.43-.88,3.21-2.73,3.22-4.13,0-7.18-8.79-11.58-15-8a56.42,56.42,0,0,1-10.6,4.69c-2.1.69-4.55,0.3-6.85,0.39,0-2.52-.21-5,0-7.54a12,12,0,0,1,1.47-3.66q21-45.36,42.11-90.7c3.65-7.81,8.18-15.22,11.57-23.13a224.25,224.25,0,0,0,10.16-27.57C1964.77,1464,1957.48,1453.89,1945.4,1454Zm-464.69,47.07c10.76-10.89,23.65-18.41,38.89-21.13a43.92,43.92,0,0,1,12.92-.14c6.18,0.76,8.38,4.1,7.55,10.26-1.37,10.13-8.62,16.38-16.08,21.59a82.76,82.76,0,0,1-39.45,14.19c-7.47.76-15.08,0.13-22.63,0.13l-1-2.46C1467.45,1516.05,1473.7,1508.21,1480.71,1501.12Zm210-3.4c-5.72,16.15-10.15,33-17.78,48.19-10.63,21.16-23.16,41.52-41.48,57.34-10.1,8.72-20.22,17.44-30.77,25.59a33.11,33.11,0,0,1-13.26,5.88c-8.35,1.7-12.81-1.8-14.65-10.1a36.68,36.68,0,0,1-1-6.14c-0.79-16.91,4.1-32.65,12.24-46.95,8.76-15.39,21-28.34,33.93-40.48,21.22-19.88,43.84-31.25,68.34-39.2a32,32,0,0,1,5.09-.67C1691.13,1493.79,1691.34,1495.9,1690.7,1497.71Zm100.31-2.49q-11.35,34.62-23.2,69.08c-3.32,9.62-7,19.13-11.06,28.46a17.28,17.28,0,0,1-6.45,7.13c-6.85,4.32-14.18,7.87-21.08,12.11-3,1.82-5.32,4.62-8,7l0,0c-4.06,2.17-8.1,4.4-12.21,6.48-2.14,1.09-4.4,1.92-6.87,3-3.57-5.74-.08-10.43,1.56-14.78,7.46-19.91,16.08-39.39,23.05-59.46,7.75-22.34,9.37-45-2-67a15.85,15.85,0,0,1-.5-3c11.54,0,22.76-.07,34,0.1a4.78,4.78,0,0,1,3.65,2.14c2.37,5.58,6.86,4.09,10.94,3.49,3.89-.57,7.67-1.91,11.56-2.43C1790.15,1486.76,1792.83,1489.68,1791,1495.22Z"/><path class="b" d="M1242.8,1480.95c-1.18-13.95-9.18-23-23-24.59a84,84,0,0,0-25.75.76c-31.32,6.31-57.72,22.34-81.41,43.28-1.29,1.14-3.3,1.45-5,2.15-0.13-1.9-.88-4-0.3-5.68,2.87-8.18,6.34-16.15,9.15-24.34,12.6-36.75,25.38-73.44,37.35-110.39,3.79-11.69,5.26-24.13,8-37.43l-85.29,31c1.12,3,2.17,5.4,2.9,7.9,1.3,4.47,3.73,6,8.42,4.48a87.81,87.81,0,0,1,14.35-3.19c5.68-.79,8.1,1.61,6.61,7.14-3.28,12.17-6.61,24.38-10.86,36.23q-17.08,47.64-35,95c-10.07,26.43-20.78,52.62-31.27,78.9-4.24,10.63-9.71,20.92-12.61,31.89-2.52,9.52-7.48,17.17-12.94,24.79-3.89,5.44-8,10.71-12.41,15.76-11.12,12.84-21.36,26.58-36.31,35.55-6.83,4.09-13.49,8.43-21.89,8.28-8.8-.16-13.12-4.1-12.95-12.8a42.69,42.69,0,0,1,2.49-14.39c4-10.17,8.6-20.08,13.22-30,8-17.17,16.11-34.32,24.46-51.33,4.89-10,10.51-19.57,15.52-29.48,2.67-5.28,4.54-11,7.13-16.28,2.42-5,5.4-9.7,8-14.63,1.56-3,2.76-6.21,3.82-8.63-20-.6-39.54-1.24-59.05-1.64A5.76,5.76,0,0,0,934,1522q-10.28,19.29-20.16,38.78c-6.85,13.44-13.75,26.86-20.31,40.44-5.64,11.68-11.68,23.29-15.94,35.49a90.6,90.6,0,0,0-5.2,28.66c-0.09,11.6,5.95,21,14.07,29.81,17.45,18.91,48.42,26.46,72.66,14.35,20.46-10.22,37.27-25.25,51.17-43.52a10.57,10.57,0,0,1,7.19-3.56c29-.93,56.15-9.15,82-21.44,13.43-6.39,25.91-15,38.21-23.51,16.95-11.72,33.4-24.16,49.91-36.5,13.84-10.35,24.56-23.75,34.1-37.9,5.47-8.12,8.49-17.87,13.57-26.31C1242,1505.57,1243.86,1493.57,1242.8,1480.95Zm-49.5,19.55c-1.73,14.79-6.58,28.73-13.26,41.82-10.57,20.72-23.8,40-40.71,55.87-14.68,13.8-32,24.3-52,29.57-12.47,3.29-25,4.49-39.71,3.79,9.52-18.24,18.28-35.27,27.3-52.16,3.72-7,7.34-14.14,12.16-20.31,10.7-13.68,21.92-27,33.31-40.09,11.57-13.32,24.62-25.24,41.19-31.79,6.82-2.7,15-2.93,22.53-2.59C1190.5,1484.91,1194.22,1492.59,1193.3,1500.5Z"/><path class="b" d="M936.5,1455.84c-8.95-4.31-18.46-4.42-26.73-.18-12.26,6.29-23.69,14.27-35.27,21.83-3.39,2.22-6.12,5.45-9.16,8.22q-6.24,5.7-12.48,11.39c-2.64,2.4-5.31,4.77-8,7.16,1-9.35,3.59-17.67,5.23-26.17,1.67-8.66,2.59-17.52-2.9-26.06l-31.49,17.45c-0.94-2-1.77-3.16-1.95-4.36-1.2-8.17-2.63-9.67-10.62-10.08-27.06-1.41-53.3,3.34-78.66,12.18a324.54,324.54,0,0,0-42.34,18.52c-18,9.34-36.28,18.62-52.74,30.31a203.23,203.23,0,0,0-61.9,70.11c-9.51,17.72-15.64,36.61-11.55,57.06a28.54,28.54,0,0,0,8.1,14.8c7.76,7,18,5.82,27.43,4.2,14.11-2.41,26.8-9,38.62-16.67a285.67,285.67,0,0,0,32.39-24.31c9.41-8.25,17.66-17.85,26.16-27.1,3.85-4.19,7.07-9,10.57-13.47-10.4,26.36-23.32,51.79-24.52,81.49,2.59-.39,4.27-0.49,5.86-0.91,11.5-3.07,23.42-5.11,34.35-9.57,16.17-6.6,31.62-15,47.42-22.47a26.88,26.88,0,0,1,5.1-1.31,51.11,51.11,0,0,1-1.32,5.31c-3.53,9.79-7.14,19.56-11,30.18,12.5-2.47,23.73-4.87,35-6.83,4.79-.83,6.92-3.32,8.37-7.8,7.51-23.32,14.54-46.83,23.29-69.68,6.31-16.47,13.82-32.78,23.12-47.72,7.84-12.6,18-24.19,31.34-31.92,7.25-4.21,14.62-9.24,22.57-11,9.14-2,19-.57,28.52-0.94,1.79-.07,4.64-1.17,5.12-2.49,2.74-7.57,4.93-15.33,7.27-23C940.68,1458.94,939.38,1457.22,936.5,1455.84Zm-225.57,51.08c-7.67,27.33-20.44,52.16-37.19,75-2.89,3.95-5.54,8.07-8.3,12.11q0,0.57,0,1.13l-2.27,1.14-1.09,1.11q0,0.57,0,1.15t0,1.11l-1.17,1.16h-1.1l-1.14,0c-2,1.38-4.15,2.52-5.84,4.17-10.79,10.58-21.81,20.83-35.64,27.44a28.36,28.36,0,0,1-5.24,2.08c-9.5,2.38-14.69-.65-16.24-10.26-2.15-13.34-.08-26.4,5-38.8a137.42,137.42,0,0,1,28.95-43.4c8-8.25,15.84-17.06,25.24-23.43,12.07-8.18,25.59-14.21,38.56-21,3.15-1.66,6.55-2.87,9.85-4.24,5.62-2.33,7.64-1.34,8.3,4.66A23.92,23.92,0,0,1,710.93,1506.91Zm92.26,1.59c-5.73,22.08-11.94,44-18,66-1.76,6.35-4.18,12.56-5.5,19-1.19,5.82-5.25,8-9.77,10.53-11.24,6.41-22.18,13.33-33.25,20a35,35,0,0,1-5.8,3.33c-5.24,1.91-7.83-.17-6.46-5.65a176.88,176.88,0,0,1,6.35-19.92c4.09-10.74,9.34-21.09,12.74-32,6.71-21.6,13.24-43.49,6.27-66.36-1.53-5-4.8-9.49-7.25-14.23-0.49-1-.88-2-1.84-4.15h41.61l-6.58,4.1a2.23,2.23,0,0,0-.3,1c3.86,12.46,3.86,12.46,17.84,8.75C804,1496.12,806,1497.75,803.19,1508.5Z"/><path class="b" d="M1431.93,1480.24c-0.82-7.14-2.92-13.7-9.85-17.46l-1.06-.14c-2.09-1.73-4-4.56-6.31-5a90.27,90.27,0,0,0-20-1.86c-12.23.53-23.92,3.83-35.3,8.49-20.1,8.24-38.63,18.78-54,34.44-3.16,3.22-6.88,5.89-11.43,9.73v-6l-1-1.24c2.56-5.16,5.69-10.12,7.6-15.51,13.87-39.07,27.92-78.08,40.95-117.42,4.52-13.63,6.32-28.16,9.42-42.57-1.83-.13-2.43-0.35-2.89-0.19-26.22,9.48-52.45,18.94-78.6,28.61a5.07,5.07,0,0,0-2.54,4.07c1,8.4,4.73,11,12.75,9.24l6.63-1.46c11.79-2.54,14.39-.14,10.76,11.14-7.46,23.13-15,46.26-23.25,69.11-9.66,26.69-19.92,53.16-30.35,79.56-13.79,34.89-28.1,69.58-42,104.45-4.12,10.35-7.49,21-11.54,32.46,3.45,0.18,5.49.56,7.45,0.34,13.08-1.49,26.22-2.66,39.2-4.79,30.44-5,57.73-17.92,83-35.08,17.9-12.16,35.32-25.05,52.68-38,13.35-9.94,25.18-21.61,34.39-35.53,6-9,10.91-18.73,16.21-28.19C1430.14,1508.62,1433.61,1495,1431.93,1480.24Zm-49.26,18.69c-1.43,14.21-6,27.4-12.09,40.32a205.81,205.81,0,0,1-34.83,51.15c-23.73,25.95-52.8,40.85-88.53,41.25-2.42,0-4.84,0-8.15,0,1.27-3.69,2-7.14,3.57-10.21,7.51-15.19,14.48-30.72,23.09-45.28,7.16-12.09,16-23.23,24.7-34.33,7.27-9.31,15.44-17.91,23.06-27,1.57-1.86,2.48-4.28,3.32-5.79,2.42-1.46,4.91-2.57,6.91-4.26,10.45-8.81,21.39-16.78,34.94-20a37.54,37.54,0,0,1,12.28-1C1379.26,1484.67,1383.53,1490.4,1382.66,1498.93Z"/></svg>