<svg xmlns="http://www.w3.org/2000/svg" viewBox="0 0 2000 2000"><title>logo</title><path d="M403,394.1c1.63-1.35,2.93-2.37,4.16-3.45,14.85-13,29.64-26.13,44.6-39,2.58-2.22,3.66-4.14,3-7.71-2.22-11.94-3.93-24-5.93-36-2.66-16,4-31,17.89-39.55,9.07-5.57,18.16-11.1,27.45-16.29,14.33-8,28.45-7.18,41.79,2.35,7.72,5.52,15.16,11.45,22.52,17.45,2.61,2.12,4.54,2.43,7.52.64,7.49-4.48,15.31-8.42,22.81-12.89a8.75,8.75,0,0,0,3.75-5C603,205.75,643,174.31,690.35,169c7.34-.82,14.41-4.46,21.52-7,17.62-6.35,32.84-3.11,45.47,11a8.45,8.45,0,0,0,1.81,1c0.54-1.55,1.06-2.88,1.47-4.25,4.71-15.7,15-25.59,31.23-27.93,19.73-2.86,39.6-4.7,59.41-7,27.91-3.2,55.85-6.11,83.71-9.69,24.77-3.18,39.46,5.38,48.2,28.77,0.56,1.5,3.53,2.92,5.43,3,18.42,0.68,36.85.87,55.27,1.61,11.38,0.46,22.75,1.52,34.1,2.59,3.49,0.33,4.89-.69,6-4.09,6.26-19,23.51-29.63,43.15-26.18q56.66,10,113.2,20.63c18.37,3.45,29.22,15,32.51,33.54,1.09,6.14.44,13.78,3.92,18s11.1,5,17,7.15c5.31,1.94,11.26,6,15.91,4.85s8.2-7.36,12.07-11.5c15.71-16.78,28.81-19.85,50.1-11.59,7.79,3,15.61,6,23.36,9.13,16.58,6.71,25.36,19.67,25.44,37.48,0,8.55.08,17.11-.09,25.66-0.07,3.38.83,5.6,4,7.32,6.68,3.6,13,7.88,19.73,11.41,1.93,1,5.26,1.34,7,.35,42.13-23.52,97-15.24,132.3,23,5.12,5.56,12.52,9.05,19,13.33,9.78,6.48,17.21,14.91,18.5,26.77a58.92,58.92,0,0,1-2,20.65c-2.32,9-6.1,17.54-9.72,27.6a50.81,50.81,0,0,0,4.42-2.56c4.71-3.54,9.27-7.27,14.05-10.71,16.89-12.14,39.15-9.57,52.16,6.7q21.89,27.37,42.69,55.61c12.39,16.76,9,39.47-7.43,52.5-7.27,5.77-14.8,11.22-22.41,17,0.66,1.11,1.27,2.26,2,3.32,7,10.13,14,20.25,20.31,29.34,11.41-3.68,22.08-7.46,32.94-10.55,22.22-6.32,42.49,5.25,48.59,27.44q13.29,48.34,26.51,96.71c1.13,4.12,2.42,8.2,4,13.59l10.18-14c0.22,3.58.41,5.55,0.45,7.53,0.92,46,1.93,92,2.62,138,0.08,5.32,1.77,7.5,6.87,9,44.73,13.44,89.38,27.2,134,40.88,2.5,0.76,4.95,1.69,8.61,2.94l-53.54,17.95c-27.54,9.24-55.06,18.55-82.65,27.66-4,1.33-5.62,2.8-5,7.54a846.28,846.28,0,0,1,4.88,157.61c-7.52,115.73-36.16,225.9-87.84,329.8q-98.88,198.83-281.73,325.14-153.37,106.21-337.2,139.05A840.94,840.94,0,0,1,902.77,1870c-169.12-19.12-320-82-451.68-189.73-94.25-77.11-168.39-170.59-223.16-279.4a851.9,851.9,0,0,1-76.65-227,826.29,826.29,0,0,1-13.09-201.43c1.26-21.42,3.48-42.78,5.71-64.13,0.5-4.75-1.09-6.26-5.16-7.55Q77.37,881.34,16.1,861.61c-1.58-.51-3.1-1.18-6.1-2.33l8.66-2.75c44.65-14.35,89.28-28.79,134-42.95,4.73-1.5,5.95-3.76,6-8.45,0.08-45.23.41-90.47,0.66-135.7,0-2.81,0-5.61,0-8.42l1.42-.63L193.81,706a28.26,28.26,0,0,0,2.28-3.59c3.82-9.11,7.44-18.3,11.4-27.35,1.38-3.15.88-4.6-2.3-6.09-29.62-13.83-36.16-31.17-22.81-61,11.72-26.18,23-52.61,35.9-78.18,12.46-24.6,32.46-40.32,60.85-43.39,3.33-.36,6.69-0.36,11.46-0.59-2.55-2.66-4.26-4.54-6.05-6.32-16.48-16.36-16.91-39.07-.74-55.87q22.93-23.82,46.31-47.21c16.21-16.19,39-16.1,55.44,0C391.36,382.12,397,388,403,394.1ZM286.26,948.69c-24.51,212.51,61.24,494.57,318,663.89,247.42,163.15,575.29,158,819.5-25.38q185.87-139.55,254.61-362.19,40.91-132.59,28.63-271.63a39.54,39.54,0,0,0-4.56.86c-20.91,6.91-41.79,13.94-62.75,20.73-3.75,1.21-3.67,3.41-3.41,6.52,1.86,22.91,4,45.81,5.26,68.76,4.38,81.9,1.52,163.38-16.38,243.77-7.25,32.54-17.1,64.28-34.47,93.12-9.43,15.65-20.62,29.77-37.4,38.12-5.38,2.68-11.41,4-17.63,6.17,6.17-18.78,12.47-35.9,17.4-53.4,11.82-42,18.5-84.91,22.61-128.31a1192,1192,0,0,0,4.89-135.52c0-2.19-.37-4.38-0.57-6.57-1.94,13.22-3.13,26.27-4.56,39.29-4.45,40.51-11.92,80.4-25.25,119-7.6,22-17.08,43.11-31.61,61.56-10.07,12.79-22,23.12-38.2,27.42-2,.54-4.14.67-6.64,1.06,4.79-13.7,9.62-26.27,13.6-39.11,16.1-51.8,23.86-105.15,28.18-159,5.65-70.44,4.39-140.88-1.25-211.28-0.75-9.41-1.86-18.79-2.81-28.18a25.82,25.82,0,0,0-.8,8c0.6,36.47,2.31,73,1.58,109.4-1.14,56.93-7.48,113.35-22.58,168.48-8.26,30.18-18.83,59.43-37.69,84.92-9.3,12.58-20.45,23-35.51,28.43-3.42,1.23-7.09,1.78-11.57,2.88,1-2.88,1.5-4.5,2.14-6.06,11.44-28.07,19.44-57.16,25.45-86.8,13.16-64.87,17.87-130.55,18.15-196.61,0.09-19.92,0-39.85,0-59.77-3.18,24.65-4.74,49.31-7.35,73.85-4.53,42.59-12.18,84.6-26.91,125-10.3,28.25-23.11,55.06-47,74.84a3.61,3.61,0,0,0,0,1.48l11.68,0.62c-3,2.26-4.41,3.43-5.93,4.52-14.49,10.44-28.95,20.92-43.51,31.27-2.59,1.84-3.67,3.41-2.87,6.95a349.86,349.86,0,0,1,8,104.17c-3.86,51.14-17.83,99.28-42.52,144.26a340.28,340.28,0,0,1-74.07,92.52c-2.72,2.39-3.26,4.42-2,7.83,3.46,9.65,6.52,19.45,9.68,29.2,1.9,5.87,3.71,11.77,6.08,19.32-14-10-26.63-18.75-38.95-27.91-4-3-6.85-3.55-11.36-.44a307.35,307.35,0,0,1-61.88,32.62q-82.14,32.44-169.55,19.75a325.34,325.34,0,0,1-135.07-51.82c-3.36-2.23-5.76-2.35-9.08.13-10.66,7.95-21.57,15.56-32.41,23.27-1.54,1.1-3.19,2-6.14,3.88,5.23-16.13,9.75-30.59,14.67-44.92,1.38-4,.75-6.41-2.5-9.25q-75.2-65.89-104.31-161.61c-18.22-60.2-19.81-121.16-5.83-182.46,0.9-3.95-.21-5.82-3.22-7.94-13.51-9.52-26.89-19.24-40.29-28.92-1.53-1.11-2.93-2.4-4.39-3.61l0.63-1.33h17.05a36.77,36.77,0,0,0-3.4-2.44c-10.75-5.36-19.41-13.26-27.07-22.33-11.52-13.63-20-29.11-26.93-45.43-21.6-50.56-30.72-104-36.08-158.24-1.77-17.94-2.71-36-4-53.94-3.55,118.78,1.39,236.45,45.74,349.69-8.07-2.47-16.07-4.93-23.15-9-14.71-8.42-25-21.45-33.8-35.6-17-27.24-27.21-57.25-34.76-88.17-20.33-83.3-23.35-168-19.06-253.15,0.5-10,1.14-20,1.71-30a58.91,58.91,0,0,0-2.18,12.36c-2.27,32.41-5.19,64.79-6.54,97.23-2.89,69.84.33,139.46,11.18,208.58,7,44.4,17.27,88,35.21,129.4a40,40,0,0,1,1.22,5.1c-7.46-2.68-13.9-4.35-19.73-7.23-14.35-7.09-24.87-18.56-33.83-31.53-17.75-25.68-28.26-54.55-36.43-84.34-12.15-44.32-18.33-89.62-21.84-135.33-2,112.83,4.25,224.51,47.79,332.83-7.18-2.42-13.25-3.81-18.73-6.44-18.18-8.71-30.39-23.72-40.54-40.5-19.23-31.8-29.66-66.9-37.54-102.83-12.18-55.56-16.51-112-16.91-168.69a1092.52,1092.52,0,0,1,6.92-132c0.53-4.65-.59-6.77-5.2-8.07-10.6-3-21-6.6-31.53-9.9C303.32,953.89,294.84,951.33,286.26,948.69Zm916-441.39c-0.17-1.3-.33-2.6-0.51-3.89-3.13-22.35-4.29-44.65,1.75-66.75,7.51-27.48,27.1-41.86,55.48-40.73,19.09,0.76,36.3,7.82,52.87,16.52,33.83,17.75,63.06,41.75,89.46,69,30.65,31.63,61.47,63.25,84,101.68a48.51,48.51,0,0,0,7.47,9.2c10.36,10.52,22.06,20,31.13,31.48,27.82,35.36,45.36,76.26,60.39,118.24,21.45,59.93,35.41,121.74,44.92,184.6l3.43,22.69c2.38-3.1,3.78-4.8,5-6.6q25.82-36.54,51.62-73.09c5-7.14,5-8.57-.26-15.49q-41.93-54.75-83.86-109.51c-1.32-1.72-2.55-3.52-4.85-6.72l23.56,7.06c-1.7-5-3.22-8.89-4.32-12.88-9.77-35.32-19.59-70.62-29.06-106-1.75-6.56-4.32-11.75-10.17-15.64-3.36-2.23-5.84-5.93-8.38-9.22-19.26-25-38.27-50.15-57.77-74.94a123,123,0,0,0-17.66-17.61c-9.54-8-19.64-15.41-29.54-23a15.65,15.65,0,0,0-3.87-2.25c-25.89-9.86-45.66-26.68-59-51.06-2.73-5-6.77-8-13.49-6.85-4.7.83-10.24,0.81-14.59-.9-25.56-10.07-50.89-20.76-76.3-31.22a36.76,36.76,0,0,0-3.75-1.14c-5.45-1.59-11-2.83-16.33-4.81-13.51-5.07-27-10.19-40.3-15.82-9.34-4-18.28-8.87-29-6.53a9.12,9.12,0,0,1-3.38-.35c-39.79-7.32-79.61-14.47-119.34-22.08-15.41-3-25.06-12.88-29.27-27.89-2.66-9.49-2.48-9.54-12.46-10.46-0.19,0-.38,0-0.57-0.06l-37.86-1.79c-0.48,1.87-.74,2.77-0.94,3.69-4.18,18.8-15.37,29.32-34.48,32.06-8.64,1.24-17.34,2.09-26,3.08-35.45,4-70.88,8.27-106.37,12-17.31,1.84-35.2,7.5-50.29-5.77a11.43,11.43,0,0,0-1.74.83,12.82,12.82,0,0,0-1.2,1.21c-30.55,32.6-67.32,46.33-111.71,36.73-2.94-.64-3.61.71-5.06,2.86-4,5.89-7.45,13.21-13.14,16.66-23.33,14.14-45.53,30.36-71.06,40.67a15.47,15.47,0,0,0-3.15,2.36c-3.62,2.75-7,5.88-10.89,8.18-16.48,9.81-33.12,19.37-49.68,29.05a9.8,9.8,0,0,0-2.52,2.15c-6,7.25-11.62,15-18.14,21.75-20.79,21.66-41.43,43.49-63.12,64.22-11.94,11.41-21.29,23.48-23.62,40.13a6.47,6.47,0,0,1-.56,1.61c-13,30.14-25.89,60.37-39.28,90.36-3.94,8.83-11.38,15.56-20.84,17.23-8.86,1.57-12.25,6.63-14.7,14-1.43,4.32-3.49,8.42-5.17,12.66-0.57,1.44-.84,3-1.52,5.54l65.67-21c-2.06,3-3.07,4.56-4.19,6.06Q351.14,798,308.52,855.12c-2.55,3.41-3,5.66-.3,9.31,14,18.91,27.77,38.06,41.63,57.11,1.16,1.6,2.48,3.09,4.12,5.12a16,16,0,0,0,.86-2.28,1012.24,1012.24,0,0,1,30.3-139.62C399.57,736,417.24,688.53,444,644.94c14.7-24,31.53-46.11,55.61-61.73,1.77-1.15,2.78-3.5,4.08-5.34,10.3-14.56,19.67-29.89,31.1-43.5,15.12-18,31.58-34.91,47.91-51.87,27.8-28.85,57.94-54.9,93.2-74.4,19.78-10.94,40.45-19.45,63.51-19.92,25.28-.51,44.18,12.11,53.67,35.61,6.31,15.62,7.9,32,7.49,48.65-0.73,29.3-7.06,57.58-15.65,85.47A38.14,38.14,0,0,0,783,571.28c2.23,34.21,17.92,60.66,46.77,79.19a21,21,0,0,0,8.43,3.13c13.94,1.77,28,3,41.89,4.83,4.58,0.6,6.35-.83,7.33-5.22A193.57,193.57,0,0,1,908,600.31a20.3,20.3,0,0,0,1.18-3.26c-16.69,9-32.45,18.89-48,29-1.36.88-2.2,3.42-2.28,5.23-0.28,6.17-.11,12.37-0.11,18.56l-1.35.36c-2.81-6.69-5.44-13.47-8.47-20.06-7.51-16.35-6.23-32.5.77-48.55,7.34-16.85,18.81-30.68,32-43.25a45.46,45.46,0,0,1,4.75-3.52l-1.75-2.35L836.1,556.73a8.22,8.22,0,0,1-.57-1.73C834,531.87,840.62,511.5,856,494.07c17.73-20,40.15-32.91,64.89-42,49.2-18,99.79-21,151-11.82,37.94,6.79,73.27,20,102,47.11a5.51,5.51,0,0,0,1.83,1.33C1186.45,492.24,1194.75,498.88,1202.22,507.31Zm-92,409a10.73,10.73,0,0,0,.92,1.85c0.92,1,1.87,1.89,2.83,2.81,43.63,41.46,66.37,93.19,74.24,152,0.86,6.43,2.92,10.55,8.2,14.34a321.63,321.63,0,0,1,67.6,65.71c6.09,7.91,11.87,16.06,17.87,24.21,16.34-21.94,45.11-130.38,42.92-159.47-10.7,8.22-21.46,17.54-33.26,25.26a81.4,81.4,0,0,1-40.53,13C1307,977,1317,889.39,1305.41,796.19,1226.92,816.08,1162.51,856.2,1110.25,916.36Zm-436.53,94.85c-2.89,30.48,29.25,142.35,46.49,162.66a9.44,9.44,0,0,0,1.56-1.46,350.77,350.77,0,0,1,74.71-80.12,7.94,7.94,0,0,0,2.35-4.78c1.44-9.77,2.23-19.64,4-29.35,9.52-52.45,31.74-98.38,70.41-135.75a20.77,20.77,0,0,0,2.16-2.93c-34.14-48.85-141.85-118.65-185.89-120-9.27,90,2.69,174.79,59.26,250.15C718.3,1046.76,694.61,1032.19,673.72,1011.21Zm327,186.29c9,1.56,16.85,2.95,24.67,4.24,3.66,0.61,5.78,2.56,6.15,6.31,0.59,6,1.65,12.08,1.72,18.13,0.61,58.91,1.65,117.82,1.35,176.73-0.25,49.21-2.23,98.4-3.22,147.61-0.2,10-1.36,19.08-12,23.34-12.46,5-15.41,14.4-14,26.86,0.93,8.47,2.58,10.77,11.09,10.48,17.85-.59,35.71-1.21,53.56-1.58a14.19,14.19,0,0,0,11-4.81c11-11.86,22.14-23.51,33.25-35.24q48-50.69,95.94-101.46a18.49,18.49,0,0,0,4.56-9.33c1.82-12,3.19-24.07,4.25-36.16,0.23-2.67-.66-6.67-2.51-8-2.13-1.5-6.14-1.53-8.88-.7a33,33,0,0,0-11,5.83c-2.86,2.32-5.73,5.53-6.85,8.93-2.61,7.91-4,16.21-6.26,24.25a14.8,14.8,0,0,1-3.92,6.63q-32.07,29.53-64.4,58.77c-1.46,1.33-3.11,2.46-5.12,4a14.82,14.82,0,0,1-.81-2.9q-0.38-58.44-.74-116.87c0-3.31,1.58-4.37,4.47-4.42,14.23-.26,28.46-0.49,42.69-0.81,3.44-.08,4.65,1.65,4.85,4.82,0.35,5.5.65,11,1.43,16.46s4.64,7.83,9.88,6.52c4.23-1.06,8.32-2.69,12.53-3.81,5.5-1.46,7.48-4.94,7.44-10.5-0.16-20.13-.07-40.27,0-60.4,0-3.94-1-7.23-4.93-8.79-4.93-2-9.87-4-15-5.52s-9,1.07-9.89,6.43a101.41,101.41,0,0,0-1.27,13c-0.15,4.13-1.83,5.75-6,5.2-13.74-1.82-27.48-3.6-41.25-5.14-4.73-.53-6.15-2.48-6-7.31,0.8-32.3,1.26-64.6,1.86-96.9,0-2,.3-4,0.53-6.9a57.09,57.09,0,0,1,4.75,3.48c20.2,18.71,40.34,37.5,60.59,56.16,4.07,3.75,5.55,8.13,5.82,13.58,1,20.38-1.07,15.25,15.45,25.48,8.17,5.06,13,2.3,14.33-7.43,1-6.95,1.74-14,3.84-20.68,1.88-6,.58-10.28-3.3-14.53-7.17-7.86-14.09-16-21.44-23.65-35.71-37.36-71.6-74.55-107.2-112a19.49,19.49,0,0,0-14.84-6.67c-22.42-.53-44.82-1.44-67.23-2.23-6.89-.24-9.84,2.46-9.94,9.34-0.08,5.78,0,11.55,0,17.93a13.5,13.5,0,0,1-2.37-1.22c-15.42-15-34.81-20.73-55.35-24.47-9.29-1.69-15.4,1.06-21.41,7.71q-31.34,34.67-63.31,68.77c-21.72,23.13-43.8,45.92-65.71,68.87-4.19,4.39-5.9,14.65-3.16,19.62,2,3.65,5.24,5.13,9.12,3.52,2.2-.91,4.06-2.73,5.94-4.3,4.25-3.54,8.41-7.19,13.93-11.92,2.16,51.7,1.63,101.42.21,151.51-12.6-4.23-17.48-.4-15.57,11.48,0.43,2.7,2.57,5.42,4.55,7.54,26.42,28.35,52.67,56.87,79.58,84.76,12.62,13.08,26.37,25.13,40.09,37.08,2.45,2.14,7.85,3.05,10.93,1.93,10.47-3.82,21.26-7.64,30.61-13.54,53.37-33.68,79.37-105.2,61.38-166.45-10.57-36-32.37-60-70.2-67.59-1.7-.34-3.35-0.93-6.8-1.92,31.22-13.89,54.18-33.88,64.49-65.27C1017.78,1258.66,1016.55,1228.13,1000.75,1197.5ZM1306.88,366c4.34,4.12,7.34,8.91,11.61,10.7,20.3,8.53,40.89,16.39,61.49,24.18,8.22,3.11,15.76-.24,19.35-8.22,2.73-6.06,5.15-12.27,7.38-18.53,2.42-6.8.76-13.47-5.06-17.21-3.73-2.4-4.21-5.13-4.19-8.94q0.18-54.45.13-108.91c0-10.92-2.7-14.78-13-18.77-7.44-2.88-14.89-5.73-22.31-8.65-10.48-4.12-15.12-3.08-22.75,5.19q-36.94,40-73.94,79.92c-1.46,1.58-3.37,3.43-5.3,3.74-4.68.76-9.49,0.68-14.67,1,2.31-4,4.78-8.41,7.31-12.75,6.41-11,4.31-18.81-6.85-25.11-6.2-3.5-12.47-6.89-19.72-10.89,6.93-1.26,12.86-2.18,18.72-3.44,9-1.94,13.88-9,12.4-18-2.26-13.87-4.68-27.72-7-41.59-1.92-11.67-5.44-15.23-17-17.31q-33.36-6-66.69-12.17c-13.83-2.54-27.64-5.17-41.47-7.7-11.17-2-18.24,2.75-20.27,13.64-1,5.6-2.19,11.19-3.09,16.81-1.3,8.12,1.94,14.36,9.56,17.34,3.29,1.29,3.76,2.89,3.2,6q-5.55,30-10.87,60c-0.5,2.78-1.39,4.16-4.73,4.18-8.79.06-13.61,4.24-15.52,12.87-1.06,4.82-1.79,9.7-2.75,14.54-2.62,13.2,1.8,19.72,15.19,22.17q56.32,10.3,112.65,20.57c9.51,1.74,14.58-.56,19.43-8.85q5.08-8.67,10.13-17.36a43.16,43.16,0,0,1-3.1,11c-4.33,11.27-1.14,18.65,10.15,23.09,14.67,5.77,29.43,11.31,44,17.25C1295.72,368.28,1301.76,369.15,1306.88,366ZM481.47,430.76c-2.28-4.59-4.67-9.7-7.31-14.67-4.47-8.4-12.59-11.1-21.24-7-5.5,2.59-10.92,5.35-16.27,8.23-8.53,4.59-11,12.36-7.21,21.23,1.79,4.18,3.77,8.39,4.71,12.79,1.65,7.72,1.71,15.4-5.36,22.07L383,425.28c5.09-8,5.36-14.53-.36-20.69-4.65-5-9.57-9.8-14.68-14.33-6.43-5.7-14.53-5.81-20.58.22q-24.4,24.36-48.22,49.3c-6,6.26-5.59,14.73.31,21.07,3.1,3.33,6.47,6.41,9.73,9.6,10.39,10.18,14.47,10.71,27.7,3.05l47.68,50.17c-6,9.5-5.28,15.56,3.56,24.13,3.55,3.44,7,7,10.6,10.36,7.09,6.5,15.48,6.38,22.39-.35,4.9-4.77,9.6-9.75,14.38-14.64,19.28-19.68,38.49-39.44,57.87-59,6.1-6.16,7.83-12.76,3.89-20.63-0.39-.78-0.6-1.65-1.6-4.44,9.77,8.6,17.58,5.19,25.63.11,10.76-6.8,21.81-13.13,32.77-19.61,7.16-4.23,15.27-7.52,15.47-16,6.09-1,11.67-.55,15.73-2.83,19.21-10.79,38.07-22.2,56.9-33.66,7.17-4.36,9.29-12.53,5.42-19.92-3.17-6-6.7-11.94-10.43-17.65-4-6.11-10.23-8.76-16.77-6.49-4,1.38-6.28.15-9.14-2.09Q568.16,307.17,525,273.57c-7.86-6.14-13.18-6.49-21.92-1.35-6.55,3.86-13.07,7.76-19.6,11.64-12,7.12-13.49,10.53-11.23,24.21q8.91,53.68,17.62,107.38a8,8,0,0,1-1,5.07C486.65,424,484.06,427.2,481.47,430.76Zm483.38-165c-2.34-1.17-5.23-1.82-6.94-3.59-11.61-12-22.93-24.34-34.45-36.46-2.17-2.29-2.16-3.9,0-6.18,6.05-6.3,11.71-13,17.93-19.12a19.06,19.06,0,0,1,8.56-4.65c8.46-2,13.61-8.1,13-16.79-0.39-5.49-1.13-11-1.9-16.41-1.84-13.09-8-17.55-21.08-15.9s-26,3.61-39.07,4.22-25.27,4.47-38.33,5.06c-22.34,1-44.57,4.61-66.82,7.35-8.46,1-13.84,7.4-13.36,15.64,0.4,6.82,1.14,13.64,2.2,20.39,1.22,7.76,6.34,12.61,14.19,13.19,3.51,0.26,4.44,1.57,4.78,4.72q3.24,30.31,6.77,60.59c0.32,2.78.1,4.35-3.25,5.32-8.07,2.33-11.75,8.41-11,17,0.49,5.49,1.09,11,1.72,16.44,1.27,11.08,8,16.33,19.21,15.08,14.35-1.6,28.65-3.9,43-4.69s28-4.55,42.28-5.32c22.72-1.23,45.32-4.76,68-7.49,8.33-1,14.09-7.49,13.61-15.49a182.15,182.15,0,0,0-2.5-21.49C980,269.1,973.54,264.44,964.85,265.78Zm763.68,437.86a1.87,1.87,0,0,1,.69.45c3.33,4.62,6.57,9.31,10,13.88,5.62,7.57,14.33,9.27,22.07,3.95,12.67-8.72,25.2-17.64,37.67-26.65,5.82-4.2,7.91-10,6-17q-2.61-9.62-5.23-19.24-12.32-45-24.66-90.06c-3.17-11.5-10-15.41-21.39-12.49-5.15,1.32-10.3,2.61-15.41,4.06-8.54,2.42-12.63,7.78-12.27,16.72,0.12,3-.59,4.35-3.6,5.15q-29.7,7.93-59.31,16.23c-3,.84-4.3.09-5.67-2.67-3.66-7.4-9.83-10.13-17.93-8.24-5.91,1.38-11.81,2.85-17.62,4.6-9.07,2.73-13.66,10.32-11.19,19.46q15.66,58,31.74,115.86c1.8,6.55,6.31,10.41,13,11,18.36,1.56,36.72,3,55.11,4.2,8.6,0.54,15.18-4.66,16.17-12.82C1727.76,721.34,1728,712.6,1728.53,703.64ZM1578.16,408.28a23.46,23.46,0,0,0,2.57-4c6.1-16.36,12.52-32.61,17.82-49.23,1.14-3.56-.56-9.76-3.25-12.44-5.27-5.25-12.15-8.88-18.36-13.19-2.53-1.76-5.53-3.11-7.48-5.38-14.84-17.22-33.08-28.49-55.81-31.32-36.54-4.55-69.62,13.6-87.8,47.65-25.52,47.8-3.91,103.83,46.66,120.88,5.45,1.84,11.38,2.61,13.2,9.66,0.44,1.7,2.77,3,4.42,4.26,4.57,3.4,9.24,6.67,13.89,10,9.09,6.43,17.55,5,24.09-4.12,6.3-8.8,12.6-17.61,18.68-26.56,1.9-2.8,3.5-3.58,6.93-2.32,7.33,2.69,13.19.57,18-5.83,2.84-3.8,5.5-7.74,8.26-11.6C1587.79,423.74,1587.5,418.53,1578.16,408.28ZM700.93,366.82c9.92-2.32,20.15-3.75,29.71-7.12,33.5-11.81,51.11-37.82,60.67-70.41,2.16-7.37-1.9-14.7-9.1-17.57-5.46-2.18-11.09-3.95-16.68-5.78-11.44-3.76-18,.05-22.77,11.14-3.39,7.91-7.6,15.83-13.06,22.42-9,10.81-21.55,11.2-32.26,2.13C686.17,292.08,681,279.54,680.62,265c-0.21-8.2,2.07-15.64,9.82-19.85s15.65-2.5,22.57,2.26a162.42,162.42,0,0,1,15.35,12.67c6.89,6.11,13.66,6.9,21.24,2q7.16-4.66,14.14-9.61c8.15-5.81,9.92-13.91,4.52-22.35-9.1-14.24-18.44-28.33-27.78-42.41-3.28-4.94-8.14-8.21-14-6.86-7.32,1.68-14.33,4.73-21.47,7.18-2.59.89-5.15,2.41-7.77,2.53-54.23,2.41-91,47.38-82.3,100.88C621.78,333.58,658.94,365.72,700.93,366.82Zm488.46,249.51c0.32-3.9,1.21-7.86.85-11.7-1-10.69-2.31-21.37-4-32-0.34-2-2.83-4.67-4.89-5.37a165,165,0,0,0-85.94-5.7,8.57,8.57,0,0,0-5.21,3.65q-7.79,13.57-14.85,27.56a7,7,0,0,0,.19,5.67,202.58,202.58,0,0,1,21.65,54.9c0.91,3.91,2.45,4.83,6.19,4.33,23.15-3,46.33-5.87,69.47-8.94a12.44,12.44,0,0,0,6-2.78A111.65,111.65,0,0,0,1215.64,587c2.81-11,3.73-21.88-3.34-33.09C1212.6,578.13,1205.51,598.8,1189.39,616.33Zm-1004,352.56,1.4,0.34c0.72-.84,1.5-1.64,2.16-2.53,15-20.07,30.15-40.09,45-60.28,2.52-3.42,4.65-4.54,8.93-3.12,18.38,6.11,36.89,11.83,55.36,17.68,6.9,2.19,13.82,4.32,22.11,6.92-2-2.88-3-4.45-4.13-6-14.4-19.83-28.73-39.72-43.3-59.43-2.49-3.36-2.36-5.53.12-8.79C285,838,296.67,822,308.46,806.19c4.38-5.89,8.73-11.8,14-19-3.45.93-5.41,1.38-7.32,2-23.87,7.63-47.78,15.16-71.57,23.05-4.47,1.48-6.74.55-9.37-3.15-14.08-19.83-28.43-39.47-42.7-59.16-1.13-1.56-2.4-3-3.6-4.53a13.56,13.56,0,0,0-1.27,6.63c-0.15,24.33-.39,48.65-0.36,73,0,4.11-1.27,6-5.25,7.2-24.28,7.62-48.48,15.51-72.69,23.33-1.69.54-3.32,1.26-6.12,2.34,2.16,0.82,3.14,1.24,4.14,1.56,24.76,8,49.5,16,74.33,23.81,4,1.25,5.3,3,5.24,7.17-0.35,24.13-.44,48.27-0.61,72.41C185.33,964.87,185.34,966.87,185.34,968.88ZM1811.77,745.76l-1.68-.44c-1.09,1.49-2.21,3-3.28,4.48-14.09,20-28.25,40-42.2,60.15-2.26,3.26-4.28,4.44-8.34,3.14-19.89-6.35-39.88-12.4-59.84-18.53-6.09-1.87-12.2-3.65-20-6,2.05,2.9,3.05,4.41,4.15,5.85,15.33,20.07,30.61,40.18,46.07,60.15,2.44,3.16,2.93,5.38.34,8.85-8,10.81-15.68,21.93-23.44,32.95-7.42,10.53-14.81,21.08-23.15,32.95,3.41-1,5.36-1.51,7.27-2.14,23.06-7.65,46.15-15.21,69.13-23.08,4.43-1.52,6.93-1.06,9.91,2.91,15,19.87,30.32,39.44,45.46,59.17,0.86,1.13,1,2.77,1.55,4.18l2.2-1.86c0-2.06,0-4.12,0-6.17-0.51-24.12-.94-48.24-1.62-72.35-0.11-3.88,1-5.67,4.78-6.91,23.61-7.78,47.15-15.81,70.71-23.76,2.25-.76,4.5-1.54,8-2.75-3-1.09-4.48-1.74-6.06-2.22-24.49-7.52-49-15.1-73.5-22.45-3.63-1.09-5.15-2.54-5.2-6.58-0.25-22.79-.84-45.58-1.28-68.37C1811.71,753.22,1811.77,749.49,1811.77,745.76ZM1611.16,525.87a11.17,11.17,0,0,1,1.38-1.79c15.94-12.29,31.95-24.5,47.81-36.89,2.72-2.12,4.11-1,6.22.77,5.89,5,12.88,5.4,18.89,1.13,5.57-4,11-8.11,16.23-12.53,6.45-5.47,7.6-13.8,2.59-20.44q-20.76-27.51-42-54.67c-5.29-6.75-13.86-7.7-20.86-2.72-5.41,3.85-10.67,7.93-15.79,12.16a14.55,14.55,0,0,0-5.11,15.84,52.11,52.11,0,0,0,2.9,6.89l-54.54,41.88c-12-8.94-15.91-8.87-27.62.09-2.86,2.19-5.79,4.31-8.63,6.53-9.5,7.43-10.56,15.56-3.29,25l3.12,4.06q29.5,38.39,59,76.8c4.45,5.82,10,9.13,17.26,6.88q26.92-8.33,53.61-17.4c7.58-2.59,11.2-10.17,9.07-18-1.65-6-3.68-12-5.76-17.86-3.56-10.08-10.62-13.55-21-10.85a75.25,75.25,0,0,1-13.92,2.65C1623.29,534,1616.33,532.55,1611.16,525.87Zm-1000.76,480-0.52,0c0,1.11,0,2.23,0,3.34,2.34,47.48,7.17,94.65,16.87,141.25,6.51,31.28,15,62,27.34,91.51,1.45,3.45,3.16,5.08,7.11,4.83a132,132,0,0,1,17.08,0c4.35,0.29,6-1.55,7.81-5.37,9.6-20,19.69-39.74,29.64-59.56,0.88-1.76,1.91-3.45,3.21-5.78-29.27-4.95-47.89-23.25-63.14-45.93-14.87-22.12-24.88-46.53-32.17-72C618.7,1040.82,614.78,1023.26,610.4,1005.83ZM246.51,643.71a3.47,3.47,0,0,1,1.12.09c19.61,8.68,39.18,17.44,58.84,26,3.15,1.37,2.86,3.18,2.36,5.87-1.43,7.76,1.73,13.87,8.86,17.26,5.65,2.69,11.37,5.28,17.18,7.6,8.6,3.44,16.6.44,20.38-8C366.67,667.08,378,641.59,389,616c5.3-12.32,8.1-25.24,6.94-38.86-2.85-33.37-33.82-54.65-65.64-44.79-3.24,1-4.53.36-6.29-2.37-11.49-17.81-30.57-25.72-50.06-20.68-17.67,4.57-29.42,16.6-36.9,32.4-12.91,27.27-25,54.93-37.2,82.53-3.47,7.86-.17,15.67,7.59,19.65,3.88,2,7.95,3.62,11.93,5.41C233.19,655.46,236.86,654.71,246.51,643.71Zm1139.77,367.78-1.24,0c-2.45,11.68-4.59,23.44-7.42,35-8,32.78-18.5,64.62-37.33,93.05-13.33,20.13-29.77,36.45-54.21,42.5a0.93,0.93,0,1,1,.15-0.29c9.79,21.12,19.2,41.59,28.89,61.92,0.71,1.49,3.43,2.73,5.28,2.83,6.44,0.34,12.92-.13,19.36.22,4,0.22,5.78-1.42,6.93-5,3.17-9.94,6.85-19.71,9.85-29.7,12.73-42.32,19.92-85.74,24.37-129.6C1383.29,1058.85,1384.52,1035.14,1386.28,1011.49ZM951.45,223.09c6.61,7.07,11.75,13.5,17.9,18.75,2.89,2.47,8.29,1.86,11.54,4.11,7.82,5.44,16.43,4.56,25.08,4.94,21.8,1,43.6,2.2,65.39,3.49,9.48,0.56,11.62-.88,13.38-10.19,1.09-5.78,1.79-11.66,3.24-17.34,1.86-7.29,2.51-14-3.67-19.79a8.22,8.22,0,0,1-2.11-4c-1-4.14-3.76-5.09-7.57-5.23q-43-1.61-85.89-3.48c-3.63-.16-5.3,1.29-6.83,4.4-4.67,9.46-12.33,15.64-22.18,19.35C957.06,219.11,954.75,221.07,951.45,223.09Zm-50.73,835.74c0.54,3.3.86,6.68,1.67,9.95,2.68,10.75,7.75,19.89,18.48,24.48,5.19,2.23,10.66,3.81,16.25,5.77v-14.22c-3.35-3.05-6.7-4.77-7.89-7.44a134.52,134.52,0,0,1-6.91-20.28c-1.28-4.87-.13-9.36,5.19-11.82a13.44,13.44,0,0,0,3.84-3.35c5.49-6,4.34-11.34-3.29-13.93a40.65,40.65,0,0,0-11.13-2.14A118.1,118.1,0,0,0,857,1039.22,40.1,40.1,0,0,0,842.23,1052c-9.44,14.31-7.78,32.92,2.83,46.88,8.91,11.72,21.12,14.59,35.53,7.72-15.18-10.16-23.25-23.82-22.5-42.31h12.3c0,2.73-.16,5,0,7.23,1.37,16,6.66,29.76,22.52,36.76,5.15,2.28,10.75,3.54,16.38,5.34v-13.89c-3.6-3.47-7.35-5.58-8.72-8.72a128.58,128.58,0,0,1-8-23.47C891.07,1060.4,892.48,1059.51,900.72,1058.83Zm222.22,66.49c5.45-2,10.73-3.29,15.35-5.81s9.19-5.58,12.44-9.52a41.06,41.06,0,0,0,8.77-34.79c-1.11-5.81-4.07-12.46-8.37-16.27a122.61,122.61,0,0,0-61.2-29.67,49.76,49.76,0,0,0-14.15-.4c-8.22,1-10.41,6.38-5.85,13.38,1.65,2.53,3.84,4.76,5.17,7.44,6.72,13.51,2.48,31.46-9.54,41.24-2.93,2.38-5.85,4.78-9.68,7.93,10.42,1.85,19.17,4.82,27.65-.55,11.94-7.56,15.53-19.4,16-32.68,5.17,0.2,6.8,2.72,6.59,7-0.47,9.49-2.8,18.46-8.1,26.35-2,3-5.22,5.28-8.41,8.4v15.65c3.24-2,5.76-4.62,8.61-5,14.35-2,21.82-11.5,26.25-23.92,2.07-5.79,2.66-12.11,3.93-18.26,10.82-.21,11.91.93,9.3,11.27a49.31,49.31,0,0,1-4.67,12.74c-2.29,3.92-5.84,7.1-10.08,12v13.42ZM256.53,673.93a8.1,8.1,0,0,0-1.46,1.76c-8.24,25.63-16.51,51.26-24.55,77-0.51,1.63.28,4.16,1.32,5.69,4.8,7.06,9.74,14.06,15,20.74a7,7,0,0,0,6,2c10.94-3.14,21.78-6.64,32.54-10.36a7.88,7.88,0,0,0,4.32-4.45c5-16.12,9.65-32.36,14.62-48.5,0.89-2.88.5-4.42-2-6.11A38.53,38.53,0,0,1,286.64,690a7.21,7.21,0,0,0-3.35-4.05C274.55,681.81,265.66,678,256.53,673.93Zm941-76.62c1.64-3,3.77-5.82,4.73-9,6.67-22,9.13-44.23,1.07-66.4-4.66-12.81-13.11-22.69-25.94-28a11.63,11.63,0,0,0-8.48,0c-22.61,10.82-38.36,28.12-47.36,51.52a57.74,57.74,0,0,0-1.66,6.19,9.28,9.28,0,0,0,1.8.63c1.9,0.06,3.8.07,5.7,0.09a144.16,144.16,0,0,1,57,12c2.77,1.23,5.8,4.12,6.69,6.89C1193.68,579.46,1195.29,588,1197.51,597.31ZM547.45,1683.6c-1.08-9.32-2.1-18.31-3.19-27.29-0.45-3.7,1.44-4.24,4.65-4.5,5.44-.45,11-0.94,16.17-2.65,6.51-2.17,10.38-8.84,10.1-15.08s-4.89-11.7-11.73-13.88c-12.92-4.12-28.35,3.52-32.26,16.44-1.23,4.07-2.94,5.67-7.11,5a24.82,24.82,0,0,0-6.25.13c-14.78,1.53-24.06,15.32-20,29.68,3.5,12.44,17.22,22.63,32.53,23.75,3.26,0.24,4.88,1.25,6.25,4.3,7,15.56,14.43,19,30.89,15.45,4.58-1,6.27-2.88,4.54-7.93-10.46,1.35-15.53-5.21-19.28-12.94l18.15-12.93c2.27,1.77,5,4.16,8,6.12,1.37,0.9,3.92,1.87,4.85,1.23,2.56-1.77,4.61-4.33,6.68-6.72,0.2-.23-0.61-1.81-1.28-2.27-9.57-6.52-19-13.37-29-19.08-2-1.15-6.53,2.06-9.89,3.26,1.29,1.77,2.66,3.48,3.85,5.31s3.43,4.08,3.07,5.63C556.11,1678.95,553.36,1682.35,547.45,1683.6Zm233.16,87.69c3.75-1,6.33-1.49,8.84-2.29a21.56,21.56,0,0,0,15.21-19.94c0.22-8.42-4.16-14.44-14.08-17.71-15.31-5-30.79-9.59-46.21-14.3a9.91,9.91,0,0,0-2.77,0c-2.47,3.85-3.07,7,2.32,8.67,3.65,1.14,2.83,4,2.06,6.6-5.46,18.17-11,36.31-16.45,54.49-1,3.35-2.72,4.77-6.24,3.65-3.21-1-5.57.27-5.42,3.59,0.07,1.49,2.06,3.68,3.63,4.2,9.54,3.19,19.21,6,28.81,9,2.53,0.79,4.65,1.59,5.79-2,1-3.09.09-4.78-2.89-5.5-4.23-1-4.57-3.83-3.52-7.36,0.38-1.27.59-2.59,1-3.87,5.38-17.92,10.78-35.83,16.1-53.5,12,0.75,18.19,6.43,17.16,14.92-1.24,10.21-9,15.26-19.83,12.93-4.58-1-6,.68-4.54,5.76,3.94,13.88,7.9,27.75,12.06,41.55,0.53,1.75,2,3.94,3.59,4.5a174.84,174.84,0,0,0,18,5.23c1.15,0.28,3.54-.83,3.87-1.8a7.07,7.07,0,0,0-.78-4.94c-0.72-1.38-2.95-2.1-3.41-3.48C788.74,1797.06,784.8,1784.42,780.61,1771.29Zm852.84-347.92c5.56-13.06,12.61-16.57,21.31-11.6,7.71,4.4,10.07,12.68,5.83,20.53-2.95,5.46-2,7,4.19,6.92,14.43-.27,28.86-0.54,43.27-1.05a7.24,7.24,0,0,0,5.06-2.58,177.94,177.94,0,0,0,9.44-15.57c0.59-1.08.31-3.83-.38-4.17a8.79,8.79,0,0,0-5.4-.52c-2.84.61-5.49,2.36-8.33,2.68-5.46.61-11,.65-16.49,0.75-6.37.11-12.75,0-19.57,0,0-3.62.21-6.82,0-10a21,21,0,0,0-14.91-18.27c-8-2.41-14.48-.28-20.08,7.87-6.22,9.07-11.7,18.64-17.54,28-3.39,5.41-6.85,10.78-10.44,16.42,3,1.82,5.06,6,8.25,1.58,2.88-4,5.78-3.29,9.18-1.16,15.6,9.77,31.17,19.58,46.84,29.24,3.38,2.08,4.54,4.32,2.19,7.8-1.89,2.81-.75,5,2.06,5.61a6.08,6.08,0,0,0,5.09-2.13c5.57-8.37,10.77-17,16.11-25.5,1.31-2.08,3.16-3.94-.08-6.16-2.95-2-4.78-1.34-6.45,1.49-1.53,2.59-3.46,3.85-6.53,2C1668.6,1444.78,1651.12,1434.14,1633.45,1423.36ZM262.75,1400.13c5.1-.92,7.56-2.92,4.74-7.81-1.59-2.76-.6-4.61,2-6q26.88-14.24,53.76-28.49a3.27,3.27,0,0,1,1.36.18c0.71,1.13,1.6,2.35,2.31,3.68,4.79,9,3.24,15.44-4.71,19.78-7.57,4.13-15.85,1.62-20.48-6.2-2.62-4.42-4.7-4.36-7.44.53-7.12,12.76-14.19,25.55-21,38.45a7.12,7.12,0,0,0-.13,5.61,160.75,160.75,0,0,0,8.55,15.43c0.73,1.18,3.37,2.48,4.17,2,1.41-.81,2.45-2.79,3-4.49,0.87-2.79.63-6,1.88-8.58,3.74-7.67,7.94-15.11,12-22.62,1.57-2.9,3.25-5.75,5-8.82,1.61,1,2.59,1.5,3.53,2.11,10.36,6.62,20.51,6.4,28.34-.6,7-6.26,7.66-14.28,1.6-26-6.72-13-13.71-25.82-20.82-38.59-0.69-1.24-3.78-2.6-4.43-2.12-1.43,1.06-3.24,3.81-2.75,4.91,2,4.55-.1,6.71-3.66,8.61q-23.09,12.36-46.14,24.78c-4.19,2.26-8.12,4.52-11.33-1.56-0.41-.78-3.67-0.64-5.22,0-0.85.35-1.65,3.07-1.15,4C251.16,1379,256.92,1389.4,262.75,1400.13ZM1383.31,1663a30.73,30.73,0,0,0,4.13-2c3.51-2.35,5.75-1.19,7.94,2.07q15.54,23.19,31.35,46.2c2.3,3.35,2.83,6.16-1.26,8.45-2.7,1.51-3.09,3.36-1.25,6,2.1,3,3.91,1.87,6.14.29,5.58-4,11.28-7.72,16.87-11.65,1.82-1.28,5-1.88,3-5.47-1.8-3.21-4-3.79-6.92-1.59-3.24,2.42-5.45,1.06-7.49-1.87-5.42-7.8-11-15.5-16.44-23.27-2.9-4.13-5.71-8.33-9.3-13.58,2.71,0.5,4,.65,5.19,1q30.24,8.15,60.48,16.32c2.56,0.69,5.36,2.15,7.71,1.66,4.1-.86,7.93-3,11.88-4.54-1.23-2.77-2.07-5.8-3.74-8.28q-17.29-25.79-34.93-51.35c-2.57-3.72-2.61-6.48,1.33-9,2.74-1.73,3-4.2.62-6a6.15,6.15,0,0,0-5.58-.15c-6,3.7-11.62,7.89-17.41,11.86-2,1.37-4.68,2.21-2.77,5.59s4.09,3.44,7,1.38c2.1-1.5,4.32-2.72,6.37.17l25.88,36.47c-3.87-.8-6-1.12-8.15-1.7-14.46-4-29.42-6.71-43.23-12.31-14.26-5.78-25.67-4.69-37.07,5.67C1379.65,1657.07,1378.6,1659,1383.31,1663Zm-521.55,84.36c-20.39-.64-35,8.35-41.66,24.48-7.91,19.18-5,38.37,7.71,50.11,8.62,7.95,19.37,11,30.64,12.34,37.71,4.56,54.68-27.38,50.27-54.39-1.75-10.73-7.88-18.78-17.15-24.31C881.87,1749.76,871.09,1747.81,861.76,1747.32Zm538.81-31c-0.69-4.11-1-8.31-2.14-12.3-6.63-24.16-25.21-37.09-47.54-31.52-9.49,2.37-18.78,7.35-26.93,12.94-13.11,9-18.92,22.39-15.89,38.24,3.17,16.61,11.08,30.43,27.92,36.84,17.05,6.48,42.63-2.38,55.5-18.78A42.4,42.4,0,0,0,1400.57,1716.36Zm-1116-475.74c-5.25.41-7.68,1.94-6,7.31,0.46,1.49-1.3,4.2-2.77,5.6s-3.72,1.77-5.67,2.53c-12,4.69-24.14,9.16-36.06,14.1-13.7,5.68-18.8,14.88-16.37,29.42a70.08,70.08,0,0,0,4.28,15.27c8.41,20.23,21.93,26.16,42.47,18.88,12.17-4.31,24.27-8.8,36.4-13.23,3.11-1.14,6-1.7,7.53,2.25,1.18,3.16,3.54,3.71,5.71,1.84,1.15-1,1.72-3.81,1.21-5.37-2-6.12-4.48-12.11-7-18.07-1-2.31-.64-6.22-5.33-4.66-4,1.32-3.47,4.06-2.47,6.83,1.11,3.07.58,5-2.64,6.24-13.87,5.17-27.62,10.66-41.61,15.47-3.33,1.15-8,1.35-11-.12-9-4.33-11.74-12.85-12.44-22.17-0.62-8.29,4.55-12.51,11.33-15.18,12.18-4.8,24.5-9.25,36.69-14,4.48-1.76,7.91-2.14,9.94,3.43,0.35,1,3.49,1.59,5,1.19,1-.26,2.37-3,2-4.08C293.58,1262.91,289.06,1251.87,284.56,1240.62Zm-37.69-126.81c0.83,6.75,1.53,12.75,2.32,18.74,0.63,4.74-.09,8.2-6,8.59-1.09.07-3,2.9-2.76,4.16s2.46,3.1,3.94,3.24c3.36,0.31,6.84-.66,10.22-0.38,5.41,0.44,7.07-1.41,6.2-6.84-2.81-17.62-5.25-35.31-7.88-53-0.36-2.4.54-5.7-3.86-5.5-4,.18-4.71,2.46-4.25,5.73s-1.09,5-4.24,5.45c-19.38,2.68-38.74,5.44-58.15,7.85-2,.24-4.15-1.73-6.29-2.54-1.62-.62-3.32-1-5-1.56-0.44,1.64-1.44,3.35-1.24,4.9,1.54,11.67,3.3,23.32,5,35,1.06,7.07,2.19,14.14,3.38,21.75l22.22-1.62c1.08-5.6-.66-8.15-5.8-7.67-5.68.52-8.38-2.2-8.75-7.7a36.19,36.19,0,0,0-.72-3.92c-2.88-15.95-2.88-15.95,12.91-18.2,14.88-2.12,14.8-2.12,15.62,12.88,0.18,3.24-.82,4.78-4,5.65-6.23,1.7-6.47,2.69-3,8.55,7.66-1,15.39-2,23-3.29,1.48-.26,3.58-2.1,3.76-3.43,0.32-2.39-.48-5.23-4.06-4.6-5.2.9-6.71-1.86-7-6.36a74.94,74.94,0,0,0-1.17-9c-0.55-3,.75-4.23,3.52-4.52C231.85,1115.4,238.82,1114.66,246.87,1113.81ZM1032.28,1795c0-7.53-.23-14.54.18-21.51,0.09-1.47,2.37-3.82,3.86-4,4.87-.63,9.85-0.31,14.78-0.61s8.08,0.7,8,6.59c0,1.22,2.68,3.69,3.54,3.45a6.35,6.35,0,0,0,3.92-3.85c0.75-3.08.43-6.41,0.74-9.62,0.68-7,.32-7.65-6.78-7.33-18.21.82-36.41,1.76-54.6,2.94-1.48.1-3.61,2.21-4.06,3.78-0.9,3.14,1.25,4.49,4.26,4.2,4.55-.44,5.87,1.85,6,6,0.65,19,1.6,37.93,2.16,56.9,0.06,2-1.77,4.12-2.73,6.19s-1.87,4-3.32,7.09c9.29-.59,16.66-1.15,24-1.51,11.19-.54,22.39-0.92,33.58-1.43,2.61-.12,5.54.08,5.54-4,0-5.32.36-10.64,0.18-15.94,0-1.14-1.74-3.12-2.68-3.13a6.15,6.15,0,0,0-4.52,2.13c-1,1.43-1.1,3.62-1.18,5.49-0.16,3.77-2.05,5.36-5.71,5.55-6.07.31-12.12,1.09-18.18,1.09-1.43,0-3.89-2.18-4.1-3.61-0.83-5.62-1-11.34-1.33-17-0.49-8.1-.47-8.1,7.63-8.55,10.66-.59,10.66-0.59,13.39,9,7.07,1,7.25.8,6.91-5.95-0.27-5.31-.56-10.62-0.76-15.93-0.27-7-.75-7.39-7.68-5.44-1.58,3,1.52,8.5-4.57,8.88C1043.7,1795.24,1038.59,1795,1032.28,1795ZM1589,1485c0.81-1.32,1.32-2.33,2-3.21,2.44-3.15,4.84-6.35,7.44-9.37,6.32-7.35,6.36-7.31,14.44-2.65a2.55,2.55,0,0,0,1.11,0c4.15-2.79,4.58-5.5.28-8.76a50.83,50.83,0,0,1-7.31-7.17c-2.4-2.75-4.42-2.42-6.5.17-3.68,4.59-7.38,9.17-11,13.81-8.88,11.32-17.72,22.67-26.73,34.21,2.65,3.26,5.11,6.19,8.89,1.42,2.27-2.87,4.57-2.67,7.27-.49,15.07,12.16,30.26,24.18,45.21,36.49,1.53,1.26,1.66,4.17,2.57,6.26,0.75,1.74,1.69,3.39,2.54,5.08,1.45-.93,3.26-1.57,4.29-2.84,7.88-9.75,15.6-19.62,23.37-29.45,3.18-4,6.5-7.95,9.42-12.16,0.86-1.25,1.38-4.12.65-4.86-4.62-4.7-9.63-9-14.44-13.38-5.06,4-5.27,4.63-3,7.89,5.54,8,5.57,8-.38,16a107.29,107.29,0,0,1-7.83,9.77c-0.92,1-3.65,1.68-4.51,1.07-6.9-4.94-13.55-10.22-20.8-15.81,3.72-4.55,6.7-8.71,10.28-12.26,1-1,4.46-1.23,5.65-.31,4.76,3.67,7.08,1.54,9.21-3.45l-21.68-17.12c-3.91,2.91-6.26,5.54-1.42,9.49,1,0.81,1.84,3.42,1.3,4.19-3.29,4.73-7,9.18-10.79,14Zm215.42-394.19c-1.81,4.21-2.43,7.1,2.6,8.94,8,2.94,8,3.2,6.87,11.85-0.57,4.52-1.4,9-1.82,13.55-0.33,3.59-2.09,4.37-5.33,3.83-4.49-.76-9-1.21-13.55-1.84-11.72-1.64-10.92,0-9.19-12.38,0.78-5.59,2-9.52,9-8.31,0.87,0.15,2.92-2.5,3.17-4.06,0.17-1.08-1.63-3.39-2.85-3.62-7.09-1.34-14.24-2.41-21.41-3.1-1.28-.12-3.64,1.77-3.92,3.08s1.23,4.31,2.22,4.43c6.06,0.76,6.11,4.52,5.26,9a79.37,79.37,0,0,1-1.7,8.93c-0.37,1.2-2.22,2.93-3.16,2.79-7.44-1.07-14.82-2.54-22.88-4,1.06-6.7,2.1-12.65,2.93-18.63,0.66-4.74,2.19-7.79,8-6.59,1.21,0.25,3-2.2,4.49-3.41-1.13-1.38-2-3.42-3.44-4-2.95-1.22-6.24-1.57-9.34-2.44-6.7-1.87-7.4-1.57-8.41,5.39-2.59,17.85-5,35.72-7.6,53.57-0.34,2.37-1.16,4.51,2.29,5.17,3.2,0.61,5.13-.17,5.55-3.7,0.48-4.08,2.92-5.19,6.83-4.59,18.75,2.9,37.55,5.56,56.27,8.65,2.15,0.35,3.92,2.88,5.91,4.34,1.76,1.29,3.58,2.49,6.27,4.35,0.94-7.31,1.58-12.76,2.36-18.19,1.9-13.15,3.81-26.3,5.84-39.43,0.53-3.47-.46-5.33-4.1-6C1816,1093.51,1810.5,1092.16,1804.47,1090.85ZM766.24,1245.47c12.54,2.77,13.58,2.21,19-6.8,37.26-62,90.69-102.2,161.28-119.09,8.69-2.08,11.92-6.47,11.63-16.76L934,1108l2.72,5.1c-11.49,2.14-22.57,3.72-33.37,6.41a72.43,72.43,0,0,0-18.14,7.78c-1.54.88-1.11,5.17-1.64,7.88a4.64,4.64,0,0,1-1.34,1.1c-4.25-6.78-8.72-3.39-13.7-.4a260.67,260.67,0,0,0-79,72.91C781.27,1220.32,774.26,1232.72,766.24,1245.47ZM703,1748.37c12.81-.82,23.72-9.19,26.28-20.83,2.21-10.06-2.2-17.25-14.93-23s-25.78-11.22-38.78-16.54c-1.26-.52-4.44.46-4.67,1.29-0.44,1.65,0,4.87,1.06,5.37,4.44,2.11,4.47,4.94,2.79,8.81q-11.23,25.86-22.28,51.79c-1.37,3.2-3.22,4.34-6.64,2.8-2.83-1.28-5-.65-6.13,2.75-1.26,3.75,1.55,4.15,3.7,5.08,9.24,4,18.51,7.91,27.77,11.87,2.54,1.09,5,3.18,7-1s-1-5-3.47-6.24c-2.7-1.38-5.13-2.63-3.51-6.41,7.73-18,15.35-36,23.17-53.87,0.52-1.19,3-2.81,3.5-2.51,3.95,2.63,9.24,4.9,11,8.73,2.72,5.83-.33,11.93-4.79,16.53-3.69,3.8-8.17,4.18-13.14,2.11-1.86-.77-5.8-1-6.12-0.23-1.37,3.08-1.07,6.49,2.77,8C692.69,1744.83,697.86,1746.54,703,1748.37Zm1129.45-701.94-1.53-.45c0.22-8.56-1.29-16.69-6.32-23.82-6.91-9.8-16.51-13.85-28.22-12-11.17,1.76-15.24,10.06-17.13,20.1a152.87,152.87,0,0,1-3.67,15.5c-1.75,5.85-5.94,8.29-11.74,7.44-6.53-1-10.6-7.27-10.08-15.62,0.61-9.71,4.16-14.15,11.5-14.41,4.81-.17,7.78-4,5.16-5.65-4.58-2.87-10.63-3.57-16.16-4.62-1.47-.28-3.33,1.47-5,2.31a1,1,0,0,0-.27.49c-5.17,13-6.59,26.2-1.74,39.49,3.79,10.4,14.72,16.64,26.48,15.92,10.32-.63,16.58-6.36,19.66-18.18,1.44-5.51,2.35-11.17,4.06-16.58,2.66-8.41,11.78-10.88,18.74-5.37,5.33,4.23,6.95,12.7,4.13,21.62-2.63,8.32-5.48,10.6-14.17,10.79-2.88.06-4.66,0.61-4.88,4-0.25,3.76,1.8,4.39,4.84,4.66,4.53,0.39,9,1.41,13.55,1.56,1.73,0.06,4.64-1.13,5.1-2.43C1827.59,1063,1829.92,1054.69,1832.43,1046.43Zm-1641-26.64c1.48-5.77-.17-8-5.76-7.68-4.32.28-8.7-.54-13.06-0.51-1.38,0-3.46.82-4,1.89-6.11,11.77-7.64,38.32,5.47,51.6,8.12,8.23,17.94,10.6,28.79,7.41,10.27-3,13.36-11.43,14.29-21.16,0.5-5.28.82-10.75,2.5-15.7,1.07-3.14,4.08-7,7-7.78a13.56,13.56,0,0,1,10.77,2.69c5.69,5.08,5.07,12.23,3.5,19.15-1.32,5.82-5.18,7.79-10.84,7.9-1.18,0-3.41,2.72-3.21,3.83a6,6,0,0,0,3.75,4,59.3,59.3,0,0,0,13,1c1.62,0,4.15-1.53,4.62-2.91,4.76-14.05,4.78-28.13-2.23-41.43-4.84-9.19-17.11-14-27.55-11.91-10,2-15.43,8.15-17.43,19.88-1,5.61-1.35,11.34-2.56,16.9-1.81,8.36-10.56,11.77-17.73,7.21-6.08-3.87-8.46-12-6.29-21.54,2-8.71,4.43-10.91,13.15-12C188.8,1020.47,190.06,1020.08,191.39,1019.79ZM1561.6,1537.36c6.12-4,6.14-4.34,1.79-9.4-2.22-2.59-4-5.59-6.51-7.88-1.37-1.26-4.27-2.53-5.6-1.91-13.75,6.45-24.39,16.19-28.94,31.09-2.92,9.55,2.12,21.1,10.94,27.44,7.76,5.57,16,5.42,25.41-.75,4.92-3.22,9.46-7,14.49-10.05,8-4.77,17.25,0,17.74,9.26s-5.43,14.55-12.71,18.64c-6.07,3.4-11.87,3.79-16.83-2.16-2.06-2.47-4-2.08-6.15.17s-1.54,3.73.32,5.73c3.36,3.6,6.24,7.66,9.78,11.06a6.62,6.62,0,0,0,5.66,1.21c11.11-4,19.48-11.5,26.1-21.1a32.27,32.27,0,0,0,5.68-24.32c-3.22-19.31-21.53-27.26-37.49-16.33-5,3.43-9.74,7.31-15,10.37-6.88,4-14.68,0-15.85-7.8-0.88-5.84,4-13,11-17.29,5.6-3.38,10-2.17,14,2.44A12.33,12.33,0,0,0,1561.6,1537.36Zm-371.21,14.74c46.81-38.91,85.45-161,68.63-216.08-10.14,4.33-11.44,6.24-10.87,16.16,3.82,66.68-14.32,126.64-56,178.92C1186.13,1538.66,1186.17,1544.44,1190.39,1552.1ZM1660.46,1376c2.66-9.24,10-7.3,16.48-7,22.21,0.94,44.42,1.88,66.61,3.22,4.87,0.29,6-2.45,7.77-5.75s0.21-5-1.9-7.34q-24.18-26.54-48-53.35c-2.23-2.5-4.51-5-3.08-9.12,0.43-1.26-1.62-3.38-2.54-5.1-1.69.92-4.16,1.42-4.92,2.83-3.15,5.84-5.72,12-8.62,18-3,6.17-3,6.34,4.21,8.08l5.82-8.18,35.46,38-0.93,1.29-51.64-3c0.61-2.49.76-4.2,1.44-5.68,1.37-3,.21-4.45-2.48-5.76-3.14-1.53-4,.42-5,2.61q-4.88,10.61-9.84,21.19c-1.82,3.87-3.74,7.7-5.76,11.86Zm-919.54-42.48c-6.27,37.35-2.51,90,17.47,138.81a264.22,264.22,0,0,0,53.22,82.87c5.53-10.46,5.47-11.27,0-17.8-45.52-54.52-65.15-117.42-60.68-188.07C751.62,1338.86,751.74,1338.86,740.93,1333.48Zm417.38,428.39c0-3.72-.24-6,0.06-8.27,0.46-3.43-1.07-4.9-4.24-5.39-17.37-2.7-34.19-1.26-49.81,7.36-15.34,8.48-22.9,24.64-20.34,42.41s14.76,31.8,31.74,35.53a60.88,60.88,0,0,0,47-8.29c2.26-1.43,3.73-4.47,5-7,0.55-1.16-.39-3-0.66-4.57a26.5,26.5,0,0,0-4.63.92c-6.5,2.51-12.74,6.17-19.46,7.55-13.17,2.7-24.86-1-32.27-12.81-7.57-12-10.18-25.36-3-38.41,6.63-12,18.49-14.21,31.12-13.16,7.71,0.64,9.64,2.42,11.51,9.93,0.65,2.6,1.3,4.55,4.78,4.13s4-2.22,3.6-5.08C1158.42,1764.6,1158.35,1762.51,1158.31,1761.87Zm608.57-517.23a38.49,38.49,0,0,0,28.63-13.54c11.06-12.95,15-28.25,14.27-45-0.1-2.26,0-5-1.16-6.64-2-2.62-5-4.48-7.53-6.66-0.51,2.51-1.16,5-1.51,7.52-1.13,8.18-.73,16.89-3.48,24.47-6.5,17.86-26.81,24-46.58,15.29-16.37-7.23-21.54-22.86-13.43-40.57,3.94-8.6,6.74-10.06,16-9.37,1.55,0.11,4.26-1.61,4.62-3s-1.23-4-2.67-4.77c-4-2.1-8.54-3.21-12.56-5.29-3.17-1.64-4.77-.78-6.49,1.91-6.55,10.23-11.08,21.25-12.68,33.28C1718.27,1222.84,1736.4,1244.8,1766.88,1244.64ZM190.46,1212.42c0.51,12,3.81,25.5,13.24,36.78a14.57,14.57,0,0,0,6.5,3.89c1.45,0.48,3.38-.47,5.1-0.77-0.47-1.67-.5-3.67-1.48-5a51.49,51.49,0,0,1-10.11-23.22c-3.07-18.61,10.41-34.55,31.83-37.49,18.1-2.48,31,8.38,32.93,27.75,1,10.35-.6,13-9.89,17.37-1.27.6-2.69,3.44-2.25,4.51a5.91,5.91,0,0,0,4.5,3c4.33-.09,8.64-1.44,13-1.47,4,0,5.29-1.48,5.53-5.24,1-15.31-1.43-30-8.82-43.47-10-18.29-28-26-47.6-21C202.74,1173.31,190.47,1189.16,190.46,1212.42ZM994,732.68l-1.58.2c-2.32,7.19-4.54,14.42-7,21.57-3.78,11-1.06,8.9-12.16,9.06-8.08.12-16.16,0-25.9,0,2.48,2.13,3.63,3.26,4.9,4.19,6,4.36,11.83,8.94,18.06,12.91,4.22,2.7,5.34,5.25,3.39,10.18-3.17,8-5.38,16.4-8,24.63A85,85,0,0,0,981,806.34c12.47-8.84,12.46-8.84,25,.17,4.65,3.33,9.31,6.62,14,9.94-1.45-8.53-3.89-16.06-6.36-23.58-2.72-8.28-2.71-8.24,4.28-13.27,6.83-4.9,13.61-9.88,20.41-14.83a184.47,184.47,0,0,0-28.79-1.12c-4.15.14-6-1.22-7.14-5.24C999.9,749.75,996.85,741.25,994,732.68Zm-147.2,900c94.52,60.46,221,56.33,308.18-1.34-3.07-2.92-5.3-5.77-10.51-2.7a277.84,277.84,0,0,1-95.15,35q-101.27,17.16-190.83-33C853.57,1627.81,850.33,1627.77,846.84,1632.69Zm344.49,112.82c5.37,20.52,10.64,40.26,15.5,60.1,0.34,1.39-1.89,4.19-3.58,5.11-2.61,1.41-5.33,1.81-4,5.93,1.54,4.64,4.41,2.3,6.86,1.63,9.7-2.62,19.35-5.44,29.06-8,2.47-.66,5-0.71,4.39-4.42-0.59-3.39-2.44-4.56-5.64-3.57-4.83,1.49-6.83-.82-8-5.23-4.2-15.76-8.68-31.45-12.93-47.19-2.94-10.89-4.43-9.1,7-12,8.27-2.11,8.16-2,12,5.56,0.63,1.23,3.31,2.42,4.55,2s3.07-2.8,2.93-4.15c-0.51-4.89-1.8-9.69-2.67-14.54-0.58-3.23-2.26-3.94-5.29-3.08q-33.67,9.52-67.4,18.85c-3,.83-3.52,2.38-2.7,5,1.48,4.7,2.64,9.54,4.56,14.05,0.56,1.31,3.41,2.63,4.93,2.36,4.73-.81,3-4.63,2.27-7.27-1-3.79,0-5.68,3.74-6.68C1181.33,1748.79,1185.63,1747.29,1191.33,1745.51ZM340.64,1510.06c-2.09,2.23-6.79,2.84-3.16,7.38,7.11,8.89,14.1,17.89,21.36,26.65,0.8,1,3.9,1.49,4.44.89,1.19-1.33,2.51-4.47,1.87-5.2-4.74-5.43-1.88-8.71,2.62-11.91,1.85-1.32,3.52-2.89,5.31-4.3,12.93-10.2,25.88-20.4,39.34-31,3.07,4.07,5.64,7.78,8.53,11.23,2.68,3.18,2.14,5.37-.93,8-5.21,4.52-5.05,4.71.57,9.47,4.64-3.05,9.31-6.27,14.12-9.24,3.17-2,3.54-3.72,1.09-6.75q-21.63-26.8-43-53.83c-2-2.54-3.77-3.38-6.5-.86-3.62,3.35-7.67,6.23-11.19,9.68-0.87.86-1.09,3.72-.35,4.57a6.32,6.32,0,0,0,4.94,1.83c1.7-.25,3.06-2.28,4.8-2.87,1.29-.44,3.53-0.38,4.33.44,3.77,3.88,7.19,8.1,11.22,12.75-14.84,11.63-29,22.8-43.2,33.8C348.83,1517,348.72,1516.9,340.64,1510.06Zm590.71,325.25c-2,6.62-1.77,6.88,4.54,7.19,10,0.49,20.08,1.19,30.12,1.71,2.4,0.12,5.48,1.56,6-2.89,0.46-4-1.62-5-4.94-5.05-4.26,0-5.45-2.36-5.21-6.28,0.57-9.66.84-19.34,1.43-29,0.62-10.16,1.46-20.3,2.22-30.6a53,53,0,0,1,5.84,0c4.11,0.51,8.58.43,12.11,2.19,1.46,0.72.5,5.66,1.41,8.43,0.4,1.22,2.66,2.42,4.15,2.52a4.35,4.35,0,0,0,3.43-2.51,103.07,103.07,0,0,0,2.17-15.76c0.06-1.3-2.38-3.84-3.79-3.93q-34.93-2.26-69.9-3.83c-1.32-.06-3.84,2-3.92,3.18-0.41,6-.19,12.06-0.19,18.13,6.44,2.05,7.07,1.68,8.07-4.77,0.4-2.55.09-5.55,4.14-5.47,5.24,0.11,10.48,0,16.42,0-1.15,18.94-2.2,36.71-3.33,54.48C941.44,1833.69,941.39,1833.69,931.35,1835.31ZM436.43,1511.76c-0.83,2.93-2.11,5.27-2,7.54,0.18,3.76,2.14,7.57,1.75,11.19-0.75,7.14-3,14.11-3.92,21.23-1.74,13-8.07,22.87-18.28,30.88-3.73,2.92-6.41,4.5-9.93.36-2-2.33-4.22-2-5.52.41-0.72,1.34-.88,4.1,0,5q11.72,12.41,24,24.27c0.84,0.81,3.81.85,4.48,0.09,1-1.19,1.86-4.46,1.24-5-6.59-5.29-2.35-9,1.49-12.91,2.8-2.83,5.3-6.11,8.5-8.38,4.21-3,8.7-6.25,13.56-7.52,12.28-3.23,24.85-5.33,37.26-8.08,2.29-.51,4.37-2,6.73-3.1-6.93-9.54-6.93-9.53-16.46-6.79-5.65,1.63-11.28,3.31-17,4.81-4.82,1.27-9.7,2.31-15.32,3.63,0.86-2.87,1.46-4.65,1.93-6.46,2.47-9.54,5.4-19,7.1-28.67,0.63-3.57-.48-8.83-2.89-11.23C448.9,1518.79,443,1516,436.43,1511.76Zm630-389.86-0.37.87c2.48,0.86,4.95,1.75,7.44,2.57,61.28,20.17,107.72,58.67,140.58,113.91,4.75,8,8.31,9.37,17.92,6.32a6.84,6.84,0,0,0-.28-1.61c-0.52-1.22-1.11-2.41-1.73-3.58-22.72-42.43-54.28-76.62-95-102.3-11.43-7.2-22.93-13.49-37.24-10.67-2.31.46-4.91-.3-7.33-0.76C1082.41,1125.13,1074.44,1123.5,1066.46,1121.9Zm227.79,189c-6.75,3-7,3.28-6.1,9a306.31,306.31,0,0,1-.2,98.7q-15.57,93.83-81.9,162.09c-4.06,4.18-5.82,7.56-1.8,13q58.85-56.6,82.09-134.56C1300.95,1410.43,1303.26,1361.07,1294.25,1310.86Zm-587.61-2c-10,42.43-9.8,111.92,15.72,175.33,17.18,42.7,42.11,80,75.79,111.68,3.93-6.89,3.94-6.9-.84-11.62a295.89,295.89,0,0,1-68.09-102.85C708.3,1428.6,703,1374,712,1318,712.77,1313.3,711.92,1310.27,706.64,1308.88Zm538.18,417.57a10.25,10.25,0,0,0,2.58-.5c5.27-2.46,7.72-.3,9.55,4.79,6.1,16.94,12.51,33.78,18.93,50.6,1.44,3.78,1.43,6.65-3,8.12-3.07,1-4.19,2.74-2.83,6,1.49,3.62,3.68,2.24,6,1.36,9.57-3.64,19.17-7.22,28.72-10.9,2.11-.81,5.15-0.85,4-4.77-1.12-3.74-3.28-4.2-6.47-2.91-3.49,1.42-5.61.41-7-3.26q-10.07-26.9-20.44-53.68c-1.26-3.28-.68-5.5,2.78-6.66,5.88-2,4.68-5.2,1.63-9-10.76,4-21.36,8-32,11.93C1241,1719.87,1240.91,1720,1244.82,1726.45ZM312.71,1483.09c3.29-2.06,7.39-3.15,4.2-7.74-3-4.33-1.05-6.64,2.63-9q22.2-14.39,44.22-29.07c4.21-2.8,7.84-4.45,11.15,1.34,0.52,0.9,3.94.88,5.48,0.16,0.81-.38,1.24-3.7.52-4.87-5.57-9-11.45-17.89-17.27-26.77-0.9-1.37-2-2.6-2.91-3.74-5.3,1.69-7,4.27-3.55,8.83,2.42,3.19.48,5-2.2,6.77-15.44,10-30.91,20-46.2,30.23-4.31,2.88-7.28,3.06-10.27-1.63-0.62-1-3.8-1.36-4.91-.64s-2.13,3.77-1.51,4.74C298.65,1462.07,305.54,1472.27,312.71,1483.09Zm1381.15-198.33c4,3,7.18,3.76,9-1.63,1.27-3.79,3.66-4.18,7.1-2.91q26.13,9.69,52.34,19.15c4.08,1.46,6.27,3.56,4.35,7.95-1.44,3.29-.29,4.86,2.9,5.85,3.62,1.12,4.15-1.46,5-3.79,3.56-9.79,7.26-19.55,10.54-29.43a6,6,0,0,0-1.59-5.26c-2.26-1.82-4.68-1.2-5.61,2-1.42,4.94-4.55,5.16-8.79,3.6-16.73-6.16-33.47-12.25-50.29-18.17-4.85-1.71-7.36-3.94-5.35-9.53,0.39-1.09-1.6-3.56-3.06-4.55-0.62-.42-3.57,1-4,2.16C1702.07,1261.55,1698.08,1273,1693.86,1284.76Zm-691.2-213.87-1.55-.16-26.86,82.71,1.38,1c1.18-.86,2.71-1.48,3.47-2.61,6.12-9.07,14.75-11.6,25.23-10.72,6.85,0.58,13.79.11,21.21,0.11Zm-122.07,537c30.59,16.08,62.31,25.62,96,28.48,33.49,2.85,66.38,0,98.33-10.88-28.42-.33-56.79,2.64-85.14-0.84q-16.08-2-32.24-3.36c-8.67-.75-16.91-5.52-26.12-1.74-8,3.28-15.71,1-22.48-4.08-5.29-4-10.34-8.35-15.68-12.28-1.22-.9-3.58-1.52-4.78-0.94C885.83,1603.54,883.58,1605.67,880.59,1607.88ZM1211,1277.07c11.08,13.43,26.15,23.91,19.44,44l59.41-42.81-0.68-1.18H1211ZM786.4,1448.19c3.73-2.07,8-1.8,7.84-7.41-0.65-22.58-1-45.17-1.44-67.75,0-1.1-.07-2.68-0.74-3.2-5.76-4.4-11.67-8.61-18.66-13.7C772.06,1388.68,776.1,1418.6,786.4,1448.19ZM845,1113.46c-2.71-4.53-5.59-5.11-10.38-1.8a305.55,305.55,0,0,0-90.88,97.53c-6.87,11.69-12.67,24-19.11,36.32,6.07,2.37,8.62.57,10.74-4.08,17.54-38.55,42.08-72,74.06-99.82C820.77,1131.81,832.93,1123,845,1113.46Zm313.27,3.15c1.29,1,2,1.61,2.75,2.14Q1230,1166,1264.6,1241.94c2.17,4.75,5,5.53,10.15,3.87-24.3-56.21-61.26-101.34-112.13-135.83Zm-444,160.67-0.46,1,49.51,35.6c-0.76-18,14.2-24.59,22.24-36.63H714.3Zm463.11,334.56,1.1-.75-20-60.91-30.07,26.72Zm-74.66-448c0.71,0.84,1.38,1.73,2.14,2.53q37.33,38.76,74.64,77.53c3.46,3.61,7.12,3.12,11.78,1.84C1169.08,1210,1140.14,1182.43,1102.74,1163.8Zm660.51-415c-5.12,0-9.67-.35-14.12.14-2.43.27-5.45,1.36-6.93,3.14-8.33,10-18.84,14.91-31.79,14.82-1.55,0-3.1.19-4.65,0.3l-0.44,1.64c1.79,1,3.47,2.23,5.37,2.82,11.56,3.62,23.22,6.94,34.74,10.67,3.42,1.11,5.21.19,7-2.62,2.65-4.15,5.25-8.43,8.56-12C1766.57,761.64,1766.55,755.35,1763.24,748.81Zm-893,831.66-25.77-28.22L825.34,1611l1.24,0.7Zm18.06-412.17-1.1-1c-32.75,19.65-59.35,45.46-79.43,78.55,5.52,1.72,8.89.32,12.07-3.15,14.24-15.52,28.71-30.82,43-46.29C871.39,1187.12,879.79,1177.68,888.27,1168.31Zm338,192.63-2-1.18c-4.8,3.87-12.1,6.88-13.81,11.82-2.72,7.86-1.72,17-2.27,25.33l16.28,2.64ZM1077.86,487.4l-0.12,2c8.71,5,17.22,10.35,26.2,14.77,7.6,3.74,15.88,5.35,24.33,2.59,5.41-1.77,6.63-4.44,4.82-9.61-5.2,8.18-8.89,10.08-15,7.7s-7.62-6.26-5.8-15.79Zm-26.52,2.81c5.12-7.73,12.74-11.14,21.22-12.92,12.41-2.6,25-3,37.22.31a79.24,79.24,0,0,1,23,10.25c8.58,5.74,10.73,17.42-.75,24.17a2.79,2.79,0,0,0,.2.93c12.31-4.63,15.2-16.11,6.1-25.5a34.81,34.81,0,0,0-10.52-7.56c-13.74-6.1-28.34-9.15-43.25-7.09-9.22,1.27-18.24,4.51-27.07,7.65C1053.86,481.74,1050.64,484.91,1051.34,490.21Zm16.51,578-36.34-6.18c0.11,6.08,1.54,9.45,7.53,10,6.78,0.64,13.5,2,20.2,3.3C1066.12,1076.64,1066.24,1076.67,1067.85,1068.16ZM935,1067.47c1.7,5.94,3.79,8.49,9.28,7.19a119.15,119.15,0,0,1,19.56-3.14c6.12-.4,8.18-3.39,8.11-9.89Zm151.6,554.06,0.54,1.1,34.65-15.5c-3.24-2.35-5.54-3.7-7.43-5.47-3.82-3.57-6.78-2.66-10,.94C1098.57,1609,1092.52,1615.24,1086.58,1621.53Zm-14.8-510.05-26.43-4.29c2.33,5.69,1.51,10.57,7.82,12.89C1062.29,1123.43,1065.82,1117.21,1071.78,1111.48ZM974,1599.94c16,4,17.44,2.87,16.34-11.52a3.51,3.51,0,0,0-.9-1.06Zm-268.34-1328-1.73.81,8,13.5C716.71,280.69,715.82,279.07,705.64,271.91ZM1124,493.14c-3.34-1.19-5.07-2.17-6.87-2.3-1-.07-2.07,1.32-3.1,2,1.49,1.19,2.83,2.92,4.51,3.37C1119.61,496.53,1121.18,494.86,1124,493.14Z"/><path d="M788.66,1308.93c21-21.64,42.28-43.11,63.1-65q33.4-35.07,66.11-70.8c4.53-4.93,9.18-6.66,15.53-5,5.32,1.39,10.82,2.09,16.12,3.53,28.86,7.81,46.48,26.8,52.3,55.74,6.79,33.78,1.32,65.15-23.14,91.17-14.4,15.33-32.65,24.52-52.43,31-2.69.88-5.54,1.73-7.8,3.32-1.55,1.09-3.26,3.62-3,5.16s2.94,3,4.79,3.41c10.57,2.24,21.26,3.9,31.82,6.19,29.54,6.41,47.51,25.39,57.23,53.22,20.07,57.45-3.2,126.76-54.08,159.79-7.4,4.8-16,7.74-24,11.64-5.3,2.59-9.7,1.49-13.83-2.54-13-12.72-26.53-25-39.23-38.05-23.83-24.51-47.22-49.44-70.79-74.21-1.24-1.3-2.39-2.7-4-4.5,12.79,1.48,13.55,1.49,13.59-11.37q0.25-76.91-.53-153.83c0-4-2.71-7.92-4.17-11.88-3.84,1.57-8,2.67-11.45,4.82-4.14,2.56-7.73,6-11.56,9.09Zm155.82,164.12c-0.29-22.67-2.46-44.24-13-64.18-7.94-15-17.19-28.72-35.63-31.26-8.76-1.21-17.79-.33-26.67-0.76-5.17-.25-6.48,2.09-6.47,6.8,0.11,43.3,0,86.59.15,129.89,0,2.15.34,5,1.69,6.34,9.92,9.86,19.64,20,30.51,28.78,4.45,3.58,11.53,5.12,17.48,5.3,9.19,0.28,14.31-6.57,18.29-14.15C941.93,1518.66,943.94,1495.68,944.47,1473.05ZM863.22,1302.6h-0.81c0,16.72.09,33.45-.06,50.17,0,4.7,1.69,6.21,6.2,5,6.06-1.58,12.37-2.41,18.22-4.53,16.82-6.1,29.31-16.93,36.18-34,9.19-22.79,11.22-46.49,8.81-70.55-0.93-9.28-3.69-18.59-7-27.37-2.87-7.61-9-10.49-16.6-8.55a38.1,38.1,0,0,0-14.68,7c-9.77,8.11-18.91,17-28,25.87-1.5,1.46-2.14,4.42-2.16,6.69C863.14,1269.16,863.22,1285.88,863.22,1302.6Z"/><path d="M1204.36,1332.32c-5.43-1.72-9.33-4-8.72-10.67,1.08-11.84-3.72-21.11-12.67-28.9-24.63-21.45-48.95-43.24-73.49-64.78-1.51-1.32-3.91-1.62-5.9-2.39-0.58,1.92-1.62,3.83-1.67,5.77-0.93,41.8-1.73,83.6-2.65,125.4-0.09,4,.93,6.39,5.39,6.94,19,2.34,38,5.18,57,7.24,8.08,0.87,10.88-1.87,12.37-10,0.79-4.26,1-8.63,1.49-12.94,8.81,0.56,9.32,1.22,9.28,9.54q-0.09,23.08.08,46.17c0.05,8,.15,8-9.32,9.73-0.3-3.94-.54-7.8-0.89-11.65-1.1-12.33-3.05-14.82-15.25-14.87-17.06-.06-34.12.86-51.18,1.35-5.77.17-8.08,2.69-8,8.84,0.68,46,1,92,1.59,138,0,2.2,1.4,4.37,2.15,6.56,1.95-.95,4.23-1.52,5.8-2.9,27.09-23.85,54.19-47.69,81-71.87,3.27-2.95,5.5-7.57,7-11.84a138.91,138.91,0,0,0,5.06-20.44c0.89-4.91,3.61-7.17,8.57-8.16-0.93,10.73-1.68,21.22-2.9,31.67-0.2,1.76-2.25,3.43-3.68,4.92q-53,55-106,110c-7,7.25-13.75,14.73-21,21.68a15,15,0,0,1-8.73,4c-15,.85-30,1.22-45,1.5-2.26,0-6.44-1.18-6.49-2-0.24-4-2.35-8.62,2.67-11.81a147.61,147.61,0,0,0,17.06-12.33c2.29-2,4.38-5.51,4.5-8.42,1.77-44.8,4.2-89.61,4.47-134.44,0.42-69.36-.62-138.73-1.23-208.09-0.06-6.41-1.28-12.83-2.3-19.19s-4.88-10.61-11.42-11.86c-8-1.54-16-3.18-24.1-4.25-3.81-.5-5.1-1.77-5.14-5.66-0.17-15.79-.29-15.74,15.36-15.13,17.28,0.67,34.57,1.1,51.84,2a13.65,13.65,0,0,1,8.3,3.59q51,51.79,101.61,103.94c9.4,9.67,18.48,19.66,27.45,29.73a8.82,8.82,0,0,1,1.56,6.4C1207.22,1319.16,1205.7,1325.62,1204.36,1332.32Z"/><path d="M1168.23,200.56c-1.74,9.8-3.34,18.73-4.86,27.67-0.14.82,0.17,2.45,0.49,2.51,4.43,0.8,9,2.16,13.32,1.69,2-.22,4.59-3.76,5.37-6.27,3.41-10.89,3.21-11,14.35-9.05,1.87,0.32,4,.31,5.51,1.23,1.38,0.83,3.21,2.9,3,4.11q-4.66,27.23-10,54.33c-0.26,1.32-2.84,2.55-4.57,3.09-1.29.4-3-.29-4.45-0.64-3.84-.91-8.92-0.78-11.1-3.22-1.73-1.93,0-7.05.35-10.75,0.42-4.92-1.55-8.05-6.49-9.12-2.23-.48-4.47-0.9-6.67-1.48-2.9-.75-4.16.46-4.65,3.27-1.61,9.17-3.24,18.33-5.1,27.45-0.72,3.53.81,5,3.89,5.5,6.55,1.16,13.06,2.56,19.65,3.36,19.57,2.38,33.92-6.13,44-22.33,2.81-4.54,5-4.84,9.38-2.34,14.32,8.19,14.39,8,6.18,22.22-6.28,10.85-12.59,21.68-18.7,32.62-1.55,2.77-3.32,3.67-6.42,3.1q-56-10.38-112-20.53c-4.21-.76-5.59-2.49-4.63-6.45,0.31-1.29.53-2.6,0.8-3.9,0.79-3.89.38-9.12,2.75-11.27,2.09-1.9,7.3-.45,11.13-0.31,4.57,0.16,5.72-2.83,6.38-6.46q4.92-26.89,9.88-53.77c1.58-8.59,3.22-17.17,4.75-25.77,1.25-7.05.38-8.1-6.62-9.7-8.61-2-8.74.27-6.76-10.68,2.47-13.69,2.5-13.78,15.49-11.4,33.05,6.06,66.08,12.27,99.15,18.22,4,0.72,5.82,2.11,6.45,6.29,2,13.33,4.43,26.6,6.82,39.87,0.58,3.19-.56,4.68-3.62,5l-1.13.13c-5.25.76-11.42,3.52-15.46,1.66-3.39-1.57-4.33-8.51-6.26-13.11-4.73-11.28-13.36-17.7-25.12-20.12C1184.8,203.59,1177,202.21,1168.23,200.56Z"/><path d="M1384.08,296.64c0,17.86,0,35.71,0,53.57,0,6.86-.42,14,8.31,16.78,0.78,0.25,1.52,3,1.11,4.22a99.53,99.53,0,0,1-5.76,14.23c-0.67,1.3-3.77,2.61-5.08,2.12q-28.78-10.83-57.29-22.36c-1.28-.52-2.42-3.48-2.2-5.11,0.38-2.74,1.92-5.32,2.94-8,3.36-8.74,3.37-8.85,12.29-6.79,3.89,0.9,5.86-.27,6.12-4.25,0-.19,0-0.38.06-0.57,2-14.66,2-14.67-11.76-20-6.9-2.68-13.74-5.54-20.78-7.81-1.76-.57-4.68.24-6.16,1.49-2.87,2.41-5.08,5.62-7.61,8.44-3.15,3.51-2.39,6.06,1.8,7.87,1.39,0.6,2.75,1.33,4.18,1.81,3.08,1,3.55,2.91,2.37,5.76q-2.74,6.57-5.16,13.27c-1,2.86-2.48,3.79-5.57,2.57q-22.75-9.06-45.62-17.8c-3.19-1.22-4.06-2.82-2.62-6,1.86-4.15,3.49-8.43,4.94-12.74,1.1-3.26,3.09-4.2,6.09-3,5.33,2.22,9-.13,12.49-3.93,25.62-27.78,51.37-55.44,76.89-83.32,3.31-3.62,6-4.75,10.67-2.58a209.25,209.25,0,0,0,20.68,8.06c3.67,1.25,4.94,3.21,4.91,7.06-0.17,19-.08,38-0.08,57h-0.2Zm-37.75,3.65V268.57l-20.89,23.59Z"/><path d="M1221.86,253.27l-8.91,4.46,1.23-7.55Z"/><path d="M527.49,390.25c1,5.22,1.93,9.11,2.52,13.05,0.77,5.14,3.4,5.68,7.61,3.63,7.75-3.77,7.78-3.71,12.15,3.66,7,11.74,7,11.8-4.69,18.85-10.9,6.57-22,12.81-32.77,19.61-4.25,2.69-6.42,1.69-8.37-2.34a38.49,38.49,0,0,0-3.72-6.4c-3.59-4.75-5.19-8.51,1.24-12.92,2.2-1.51,2.62-7.3,2.06-10.85q-8.83-56-18.4-111.88c-0.73-4.26.16-6.6,4-8.65,6.51-3.52,12.87-7.37,19.07-11.41,3.71-2.42,6.4-2.35,10.06.54,28,22.15,56.25,44.05,84.43,66,2.25,1.75,4.6,3.36,6.88,5.07,3.68,2.78,7.55,3.55,11.62,1,3-1.9,4.83-.87,6.4,2,2.2,4,4.47,8,7,11.76,2,3,1.07,4.71-1.76,6.38q-26.26,15.49-52.41,31.18c-3,1.78-4.37.82-5.83-1.79-2.22-4-4.54-7.92-7.06-11.72-2.07-3.11-1.51-5.16,1.74-6.86a25.38,25.38,0,0,0,4.16-3c2.4-2,2.59-4.09.21-6.22-3.39-3-6.68-6.25-10.34-8.93a5.57,5.57,0,0,0-4.94,0q-14.13,8-27.95,16.56C528.89,387.41,528.1,389.42,527.49,390.25Zm-9.12-57.57-1.23.64,5.48,30.1,19.06-11.35Z"/><path d="M449.58,457.66c-2.33-7.55-4.36-15.22-7.12-22.61-1.36-3.64-.9-5.32,2.53-7.19,15.82-8.58,15.76-8.67,23.49,7.22C473.8,446,479,457,484.53,467.84c1.56,3.08,1.15,5.11-1.21,7.51q-35,35.53-69.79,71.26c-2.71,2.78-4.79,3.31-7.4.17-1.21-1.45-2.73-2.64-4-4-2.49-2.59-6.51-5-6.92-7.91-0.35-2.48,3.38-5.62,5.46-8.35,2.51-3.29,2.28-6.3-.61-9.14-19.66-19.3-39.27-38.64-59-57.83-4.39-4.26-6.63-3.8-11.54,1.08-5.55,5.52-5.56,5.52-11,.21-2.59-2.52-5.06-5.16-7.74-7.57s-2.31-4.17.09-6.59q22-22.28,43.86-44.8c2.13-2.19,3.81-2.73,6.12-.3,3.4,3.57,7,7,10.55,10.4,2.32,2.21,1.94,3.92-.15,6.21-8.27,9.08-8.17,9.12.81,17.9,17.66,17.27,35.37,34.48,52.83,51.95,3.94,3.94,6.48,3.8,10.1-.23C442.57,479.25,448.9,470.24,449.58,457.66Z"/><path d="M858.65,233.7l37.09-43.4-0.59-1.37c-2.48.17-5.05,0.82-7.4,0.34-1.69-.35-4.1-2-4.44-3.41-4.43-18.53-3.83-19.18,14.93-21.1,14.36-1.47,28.7-3,43-4.87,4.64-.6,6.83.69,6.87,5.45a50.06,50.06,0,0,0,.62,6.23c1.22,9.06,1.13,8.8-7.53,12.07a23.48,23.48,0,0,0-8.15,6c-9.28,9.78-18.22,19.89-27.52,29.65-2.64,2.77-2.3,4.48.13,7Q927.25,249,948.56,272c4.27,4.61,8.92,7.6,15.5,6.22,3.22-.68,4.45,1,4.7,4,1.89,23,6.75,17.43-15.71,20.45-16.75,2.25-33.6,3.79-50.36,6-4.3.56-5.94-.76-6.23-4.88A94.88,94.88,0,0,0,895,291.89c-0.89-4.51.75-6.35,5.21-6.46,2.21-.05,4.4-0.7,8.33-1.38L877.94,249.5c-5.51,6-10.57,11.37-15.42,16.93-0.86,1-1,2.75-1.13,4.18a22.44,22.44,0,0,0,.5,4.52c1.89,12.9,1.89,12.81,15.07,13.1,1.3,0,2.86,1.76,3.73,3.09,0.65,1,.35,2.58.5,3.9,1.82,16,1.81,15.85-13.92,17.46-16.43,1.69-32.86,3.43-49.24,5.54-4.91.63-7.08-.46-7.17-5.61a70,70,0,0,0-1.34-11.88c-0.74-3.9.87-5.23,4.45-5.31,1.51,0,3-.45,4.51-0.61,5.37-.55,6.91-3.71,6.33-8.72-3-26.21-5.93-52.45-9-78.65-1-8.66-2.66-10-11-8.59-5.1.85-7.48-.14-7.52-5.72,0-4.15-1.27-8.3-1.22-12.44,0-1.55,2-4.27,3.36-4.44q31.66-3.95,63.4-7.13c1.37-.14,4,2,4.3,3.46,1,4.8,1.21,9.79,1.87,14.68,0.44,3.25-1,4.58-4.07,4.69a33.28,33.28,0,0,0-4,.36c-6.39,1-7.93,2.59-7.33,9.08,1,10.68,2.38,21.32,3.59,32Z"/><path d="M1697.89,642.48c-10.73,3-20.56,5.87-30.46,8.44-3.71,1-4.4,3-3.45,6.28,1.73,6,3.13,12.14,5.1,18.08,6.37,19.12,20.48,28.6,39.85,30.72,4.73,0.52,6.35,2,5.77,6.57-0.55,4.33-.37,8.77-1.22,13-0.29,1.47-2.78,3.66-4.16,3.58q-25.31-1.45-50.57-3.68c-1.47-.13-3.56-2.17-4-3.71-10.35-37.11-20.5-74.27-30.74-111.41-0.92-3.34.2-4.94,3.45-5.72,4.62-1.1,9.22-2.3,13.74-3.74,3-.94,4.22.16,4.91,2.86,3.64,14.24,5.54,11.63,16.71,8.66,23.3-6.19,46.51-12.71,69.76-19.11,9.82-2.7,10.47-3.47,7.67-12.89-1.42-4.78-.46-6.64,4.51-7.93,16.27-4.23,16.21-4.45,20.6,11.6,8.51,31.13,16.94,62.28,25.64,93.36,1.21,4.3.75,6.87-3.12,9.48-10.71,7.21-21.21,14.75-31.65,22.34-3.32,2.41-5.51,2.45-7.77-1.3-2.74-4.54-8.14-8.76-8.23-13.2-0.07-3.7,5.86-7.52,9.14-11.28,7.05-8.07,10.18-17.35,7.9-28-1.91-8.87-4.31-17.64-6.75-27.46-9.62,2.68-18.67,5.19-27.71,7.74a2.25,2.25,0,0,0-1.3,1c1,4.16,1.58,8.55,3.41,12.33,0.86,1.78,4.11,3.19,6.37,3.33,2.91,0.18,6-.86,8.85-1.79,3.37-1.08,4.73.14,5.75,3.32,5.12,16,5.21,16-10.68,20.44-13.34,3.73-26.77,7.16-40.06,11-4.42,1.29-6.5.13-7.1-4.27-0.1-.74-0.44-1.45-0.62-2.19-0.92-3.86-3.49-8.47-2.21-11.38,1.14-2.6,6.5-3.47,10.08-4.86,4.65-1.81,6.54-5,5.33-9.83C1699.83,649.64,1698.93,646.39,1697.89,642.48Z"/><path d="M1718,693l7.38-1.94,1,8.41Z"/><path d="M1496.63,454.25c-10.74-3.58-21.19-5.62-30.25-10.34-39.55-20.58-49.86-68.47-23.41-105.89,31.68-44.81,91.48-43.64,121.58,2.42,1.51,2.31,3.18,2.24,5.67,2.78,5,1.07,9.74,4.08,13.9,7.21,1.14,0.85.36,5.17-.47,7.57-4.16,12-8.77,23.88-12.93,35.9-1.4,4-3.17,5.58-7.47,3.83-5.06-2.06-12.11-2.21-15-5.82-2.58-3.27-.51-10.1-0.77-15.34-0.22-4.54-.27-9.19-1.35-13.55-5.85-23.69-29.61-33.34-49.84-19.55-17.45,11.9-27.89,28.87-29.79,50.23a30.88,30.88,0,0,0,27.72,33.74c7.71,0.87,19.27-8.11,19.42-15.74,0-2-2.28-4.62-4.17-6.13-8.5-6.82-8.68-6.79-2.18-15.77,8.28-11.45,5.48-10.5,16.36-2.92,15,10.41,29.71,21.15,44.68,31.54,3.42,2.38,4.18,4.33,1.39,7.69a93.88,93.88,0,0,0-7.63,10.64c-2,3.31-4.11,3.44-6.85,1-0.85-.74-1.91-1.24-2.81-1.94-4-3.12-7.17-2.28-10,1.79-7.73,11-15.76,21.89-23.3,33.06-2.91,4.32-5.44,6.05-9.68,1.9a26.75,26.75,0,0,0-3.72-2.62C1499.91,465.94,1492.75,462.62,1496.63,454.25Z"/><path d="M1533.75,377.57c-3.78-2.68-6.76-5-9.9-7-8-5.19-16.37-3.7-22,3.91-3.16,4.26-6.17,8.63-9.21,13-6.77,9.7-6,16.46,2.76,24.34a7.17,7.17,0,0,1,.93,1.37c-6.4.89-13.18-3.36-15.25-10.34a28.06,28.06,0,0,1-.84-11.7c1.9-12.88,8.66-23.37,17.81-32.26,6.87-6.67,15-10.7,24.74-6.64C1530.55,355.45,1534.8,365.29,1533.75,377.57Z"/><path d="M711,204.29c1.49-5,12.67-11.46,16.86-9.89,1.25,0.47,2.27,1.93,3.08,3.15,8.27,12.51,16.38,25.14,24.77,37.57,2.36,3.5,2.11,5.57-1.56,7.72-4.57,2.68-8.93,8.07-13.34,8-4.15,0-8.15-5.76-12.39-8.73-4.65-3.26-9.19-6.9-14.31-9.21-22.1-10-44.51,2.74-46.57,26.87-1.82,21.22,5.66,39.33,22.35,52.84,16.08,13,36.54,11.48,49.83-4.41,6.44-7.7,10.82-17.23,15.49-26.26,1.8-3.47,3.19-4.61,6.84-3.16,4.23,1.68,8.74,2.69,12.88,4.53,1.34,0.6,2.94,3.09,2.7,4.41-5.57,31.38-36,60-67.55,63.7-34.25,4.06-65.74-15.18-77.87-47.57-20-53.46,18.65-104.35,75.66-99.61C708.85,204.36,709.8,204.29,711,204.29Z"/><path d="M202,786.57c8.88,12.27,18,24.39,26.53,36.89,3.27,4.78,6,6.28,11.91,4.07,13.14-4.91,26.67-8.76,40.06-13,1.71-.55,3.48-0.95,6.81-1.84-7.66,10.31-14.31,19.25-20.95,28.2-3.28,4.42-6.37,9-9.88,13.23-2.39,2.87-2.19,5,0,7.9,8.65,11.55,17.05,23.28,25.52,35,1,1.34,1.8,2.8,3.48,5.45-5.33-1.54-9.43-2.64-13.46-3.91-11.59-3.64-23.21-7.2-34.71-11.1-3.34-1.13-5.07-.39-7.08,2.37-8.49,11.66-17.23,23.15-25.89,34.69-1.11,1.48-2.29,2.91-4.43,5.63-0.18-3.3-.38-5.24-0.37-7.17,0.06-13.67-.14-27.36.42-41,0.23-5.55-1.87-7.54-6.8-9-15.24-4.54-30.32-9.56-46.94-14.87,2.87-1.12,4.43-1.83,6-2.35,14.26-4.6,28.5-9.3,42.84-13.68,3.75-1.14,5.07-2.94,5-6.84-0.12-14.05.09-28.11,0.2-42.16,0-2,.18-4,0.27-6.07Z"/><path d="M1714.22,814.25c11,3.36,22,6.77,33.06,10.06,6.16,1.84,13.38,6.24,18.3,4.45,5.21-1.89,8.37-9.67,12.23-15,5.66-7.85,11.14-15.84,16.73-23.74,0.83-1.17,1.84-2.22,3.65-4.39,0.25,3,.49,4.82.53,6.6,0.3,14.24.75,28.48,0.74,42.71,0,4.22,1.46,6,5.4,7.1,14.57,4.24,29,8.83,43.54,13.31,1.39,0.43,2.72,1,5.25,2-16.61,5.56-32,10.88-47.5,15.79-4.31,1.37-6,3.17-5.77,7.95,0.64,13.65.67,27.33,0.93,41,0,2,0,4,0,7.81-2.34-2.59-3.6-3.81-4.66-5.19-8.83-11.41-17.73-22.76-26.35-34.32-2.21-3-4.21-3.53-7.62-2.35-14,4.82-28.06,9.4-42.12,14-1.38.45-2.82,0.71-5.75,1.43,6-8.55,11.12-15.92,16.29-23.27,4-5.74,8-11.58,12.25-17.14,2.34-3,2.5-5.14-.05-8.35-9.11-11.42-17.84-23.16-26.7-34.78-1.12-1.47-2.14-3-3.2-4.53Z"/><path d="M1629.55,547.57c5.93-1.16,12-2,17.77-3.6,3.72-1,5.19,0,6.18,3.37,1.33,4.55,3.25,9,4.25,13.56,0.31,1.44-1.16,4.44-2.45,4.88q-24,8.19-48.23,15.64c-1.44.44-4.2-.63-5.19-1.9-20.72-26.73-41.25-53.61-61.89-80.4-1.86-2.42-2.22-4.16.49-6.12q6-4.35,11.76-9c2.26-1.83,4-1.71,5.72.65,0.88,1.24,1.8,2.45,2.78,3.62,4,4.78,6.56,5.22,11.59,1.41,12.58-9.52,25-19.17,37.55-28.78,8.58-6.6,17.22-13.14,25.7-19.87,6.15-4.87,6.21-6.26,1.55-12.59-4.49-6.09-4.49-6.09,1.61-10.82,2.4-1.86,5-3.56,7.18-5.62,3.36-3.12,5.64-3.08,8.62.91q18.07,24.21,36.77,47.94c2.59,3.3,2.84,5.28-.84,7.7a115.1,115.1,0,0,0-10.39,8c-2.61,2.18-4.62,2.12-6.57-.77-8.29-12.26-10.29-7.41-17.8-1.73-19.7,14.91-39.15,30.13-58.88,45-4.38,3.3-4.68,5.83-1.25,10.08C1604.36,540,1614.6,547.69,1629.55,547.57Z"/><path d="M318.27,555.85c1.66-1.29,2.6-1.9,3.4-2.66,10.66-10.16,23.08-13,36.77-7.81,14.3,5.38,21.75,16.5,24,31.34,1.71,11.46-.78,22.42-5.22,32.79-10.83,25.3-22.14,50.39-33.12,75.63-1.44,3.31-3.12,3.73-6.13,2.26-4.09-2-8.29-3.79-12.5-5.51-3-1.23-4.16-2.83-2.57-6.09,5.32-10.95,5-10.92-7.07-16.33q-33.51-15-67.09-29.9c-8.69-3.86-10-3.52-13.7,5.24-1.82,4.3-3.86,5.48-8.1,3.21-3.84-2.05-8.12-3.31-11.83-5.55-1.28-.77-2.46-3.91-1.9-5.18,11.88-26.91,23.51-54,36.43-80.37a54.34,54.34,0,0,1,17.31-19.81c20.6-14.28,47.19-1.58,50.6,23.33C317.72,551.92,317.92,553.38,318.27,555.85ZM307.14,613.7c10.75,4.71,20.73,9.19,30.84,13.37,0.94,0.39,3.45-.74,3.89-1.75,3.31-7.64,6.93-15.24,9.21-23.2,2.68-9.36-2-17.54-10.85-21.17-8.21-3.38-15.61-1-20.7,7.79C315,596.55,311.45,604.92,307.14,613.7ZM285.34,604c3.13-7.58,6.32-14.42,8.74-21.52a29.31,29.31,0,0,0,1.46-11.66c-0.5-5.82-4.4-9.45-10-11.09-5.17-1.52-10.45-.87-13.29,3.7-5.49,8.86-10.06,18.29-15.27,28Z"/><path d="M1167.27,510.62l-3.36-3.75c1.32-.77,2.63-2.08,4-2.12,1,0,2.11,1.53,3.17,2.38Z"/><path d="M530.72,1685.38c-8,.46-14.16-6.18-15-16.57-0.72-9.24,4.4-16.8,11.69-17.45Z"/><path d="M544.55,1643.05c2.62-5.12,4.15-9.15,6.58-12.54,2.27-3.17,6.37-3.81,8.66-.63,1.33,1.85,1.06,6.31-.32,8.34C556.53,1642.52,551.49,1643.16,544.55,1643.05Z"/><path d="M889.81,1786c-2.14,8.19-3.6,16.64-6.59,24.5-4,10.62-12.5,15.37-23.18,14.56-11.32-.85-18.83-6.67-21.78-17.62-3.67-13.63-1.45-26.8,4.93-39.11,4.54-8.78,12.41-12.52,22.28-11.38,10.87,1.26,19.14,6.07,21.88,17.49,0.88,3.66,1.14,7.46,1.68,11.19Z"/><path d="M1383.34,1724.87c0.1,18.86-19.7,31.17-34.32,22.69-15.42-8.95-23-23.47-24.05-40.94-0.57-9,4.9-15.31,12.73-19.35,8.08-4.17,16.43-5.5,24.23.28C1375.06,1697.29,1381.21,1711,1383.34,1724.87Z"/><path d="M874.31,1451c0-19.39.11-38.77-.08-58.16,0-4.27,1.41-5.94,5.57-5.53,5.82,0.58,11.73.68,17.47,1.72,12.87,2.33,17.93,13.1,23.56,23,8.19,14.35,11.34,30.17,12.2,46.43,1.11,20.95.56,41.85-5.75,62.1a101.57,101.57,0,0,1-7.51,17.17c-3.41,6.43-8.44,8.35-14.76,4.4-7.48-4.68-14.06-10.81-20.93-16.43-7.75-6.33-10.48-14.3-10-24.5C874.91,1484.47,874.31,1467.72,874.31,1451Z"/><path d="M873.76,1346.31c0-6.32-.05-11.8,0-17.27q0.42-35.86.95-71.72c0-2,.09-4.7,1.3-5.84,9.07-8.57,18-17.43,27.86-25,7.62-5.84,11.18-4.19,13.72,5.22,6.52,24.17,5.82,48.36-.68,72.48-3.26,12.1-7.66,23.4-18.14,31.35A52.6,52.6,0,0,1,873.76,1346.31Z"/><path d="M332.21,610.22L329.62,606l-3.06,1.61a3.65,3.65,0,0,1-.71-1.29,119.74,119.74,0,0,1,5.43-11c0.63-1.05,3.12-2.09,4-1.64,1.38,0.69,3.18,2.89,2.93,4.05-0.94,4.4-2.64,8.65-4.05,12.95Z"/><path d="M275.5,584.55l5.4-11.19C282.88,577.46,280.48,583.51,275.5,584.55Z"/></svg>