<svg xmlns="http://www.w3.org/2000/svg" viewBox="0 0 2000 2000"><defs><style>.a{fill:#fbfb03;}.b{fill:green;}.c{fill:#fccc03;}.d{fill:#cc0001;}</style></defs><title>logo</title><path d="M351.82,432.26c4.17-15.69,16.81-22.68,28.8-30.8,8.6-5.81,16-13.43,23.71-20.49,0.95-.87.95-3.38,0.6-5-4.85-22.11-9.94-44.17-14.77-66.29-4.15-19,1.36-32.71,17.43-43.82q12.09-8.37,24.36-16.47c14.83-9.77,29.87-9.93,44.63-.06,16.29,10.9,32.39,22.09,48.43,33.36,3,2.14,5.41,2.72,8.5.38s6.73-3.23,6-8.95a106.75,106.75,0,0,1,12.68-66.58,108.69,108.69,0,0,1,45.48-44.28c13.12-6.88,27.21-10.63,41.79-13.34,7.27-1.35,13.86-6,21-8.37,6-1.95,12.44-3.68,18.68-3.7,12.64,0,22.56,6.1,30.06,16.2,1,1.36,2,2.73,3,4.07a7,7,0,0,0,1.53.85c0-1.93,0-3.49,0-5.06,0.09-18.38,13.51-34.45,31.71-37.31,23.7-3.72,47.45-7.09,71.18-10.57,27.69-4.06,55.41-8,83.08-12.16,24.44-3.71,43.3,10.29,46.68,34.94,1,7.33,2.17,14.63,3.22,21.7h102.4c1.17-7.3,2.4-15.1,3.68-22.9,3.68-22.56,22.49-36.3,45.06-32.78q59.34,9.26,118.65,18.67c18.82,3,30.46,14.48,34,33.25,2.5,13.11,5.21,26.18,7.6,39.3,0.6,3.27,2.38,4.36,5.19,5.81,11.52,5.95,19.71,3.36,26.87-7.48,5-7.54,11.85-13.84,17.87-20.69,12.59-14.34,27.62-18.33,45.65-12q13.86,4.87,27.63,10c17.14,6.36,26.29,19,26.84,37.26q0.74,24.59,1,49.18c0,3.4,1.12,5.29,4,7.32,8,5.67,13.78,5.76,22.5-1.09,36.8-28.92,91.31-28.82,129.17-1.15,4.76,3.48,9.67,7,13.6,11.31,7.71,8.47,18.4,12.38,27.35,18.91,13,9.46,19.74,21.61,17.9,37.76-0.57,5-2.35,9.84-3.94,14.64-4,12.13-8.23,24.19-11.76,34.51,7.63-6.65,16-14.58,25.08-21.73,18.33-14.52,41.08-11.95,55.76,6.16s29.21,36.37,43.56,54.76c13.32,17.06,11.61,38.29-4.27,52.88-5.83,5.36-11.89,10.71-18.62,14.79s-14.17,6.4-21.57,9.61l34.38,47c0.93-1.24,1.95-2.44,2.8-3.75a37,37,0,0,1,21.5-15.95c8.43-2.41,16.83-5.33,25.46-6.57,18.72-2.67,35.83,8.45,41.3,26.86,8,26.87,15.32,53.94,22.93,80.92q5.16,18.29,10.29,36.58c4.77,17-.08,32-14,42.84-5.07,3.94-10.47,7.44-15.55,11.37-1.08.83-2.3,2.94-2,3.94,3.31,9.66,7,19.22,10.89,29.89l14-28.63c1.85,9.55,3.46,17.57,4.94,25.62q8.39,45.61,16.67,91.24c0.53,3,1.31,4.52,4.87,5,37.86,4.92,75.69,10.11,113.53,15.22,1.83,0.25,3.65.54,7.06,1-2.58,1.55-4,2.48-5.46,3.26q-50.16,26.59-100.36,53.09c-3.46,1.82-4.82,3.37-4,7.69,7,36.33,13.66,72.72,20.42,109.1,0.27,1.47.43,3,.89,6.13l-23.35-21.56c0.12,257.16-86.42,479.07-273.27,656.45-186.44,177-411,257.08-667.93,241-150.31-9.41-289.26-56.33-415.78-138.32q-189.52-122.82-296.76-322c-71.55-132.69-106-274.71-105-427.12l-18,17.33c0.12-2.47,0-3.84.27-5.16,6.12-37.35,12.21-74.7,18.52-112,0.56-3.32-1-4.14-3.22-5.23q-36.93-18.49-73.85-37C32,869.57,21,863.94,10,857.34c8.25-1.33,16.49-2.69,24.74-4,31.54-4.95,63.07-9.93,94.63-14.72,3.39-.52,3.93-2.43,4.35-5.08q6.72-42,13.52-84.07c1.69-10.49,3.44-21,6.17-31.89l13.52,25.89,8.66-23.89c-4.84-1.51-9.3-2.92-13.78-4.29-20.13-6.15-32.68-25.6-27.16-45.19,9.47-33.63,19.26-67.24,30.78-100.21,8.67-24.82,26.3-42.44,52.39-49.58,8.31-2.27,17.24-2.32,26.07-3.41-4.75-3.91-9.87-8.12-15-12.35-7.64-6.32-13.3-13.9-15.09-23.91-2.17-12.08.91-22.8,8.61-32.22,14.65-17.93,29.16-36,44.11-53.66,15.59-18.45,37.92-20.29,56.64-5.17,3,2.44,6,5,9,7.37C343.78,405.81,351.68,416.61,351.82,432.26Zm1044.33-39.6a6.11,6.11,0,0,0-1.67.38c-10.42,4.47-20.65,3.57-31-.42-12.61-4.84-25.51-9-38.08-13.91-12.19-4.81-25.44-7.27-36.08-15.69-0.7-.55-1.9-0.46-2.87-0.66-4.93-1-10-1.61-14.77-3.23-13.42-4.59-26.59-9.9-40.05-14.37-12-4-22.87-13.08-36.92-8.81-1.36.41-3,0-4.52-.28-40.73-6.35-81.41-13-122.19-19-26.21-3.87-39.48-26.78-34.45-47.57a58.56,58.56,0,0,0,.77-6.49H974a21.21,21.21,0,0,0,.21,2.63c6.18,26-11.44,47-36.32,49.74-29.65,3.29-59.08,8.5-88.61,12.88q-33.34,4.94-66.68,9.88c-8.3,1.22-16.55,1.48-24.33-2.37-3.45-1.71-6.69-3.83-10-5.76-32.11,38.84-72.32,55.83-122.48,46.08-6.73,15.68-8.7,18.78-17.5,24.82-18.81,12.91-37.41,26.16-56.76,38.21-8.51,5.3-16.72,10.74-24.73,16.78-14.14,10.67-29.07,20.33-43.94,30-5.44,3.54-10.61,6.68-12.74,13.4-0.87,2.75-3.28,5.07-5.21,7.42-22.37,27.33-44.65,54.74-67.29,81.85A68.75,68.75,0,0,1,382.76,601c-2.9,1.92-3.45,3.58-3.69,6.69-0.9,11.74-.79,23.83-3.72,35.1-7.72,29.74-16.63,59.18-25.58,88.58a39.38,39.38,0,0,1-8.88,15.07C330.23,757.6,317,761,301.94,756.82c-6.1-1.7-12.16-3.57-19-5.57L260.69,818,333,806.75c-1.4,1.76-1.68,2.19-2,2.54q-41.28,40.45-82.61,80.86c-3,2.91-4.73,5.07-2.26,9.77,15.49,29.45,30.57,59.12,45.76,88.73,2.41,4.69,4.71,9.44,7.66,15.36L234.3,971.59c-20.6,222.72,70.77,513.34,336.09,692.73,262.5,177.49,613.58,176.52,877.6-15.09C1702.83,1464.3,1781.38,1181.7,1762.28,971l-59.73,31.27c1.29-2.92,1.84-4.31,2.5-5.65q23.28-47.85,46.58-95.69c3.17-6.51,2.31-10.86-3-15.81q-35.87-33.64-71.7-67.32c-3.84-3.62-7.28-7.67-11.18-11.8L1734.3,815a8.72,8.72,0,0,0,0-2c-6.89-20.31-13.72-40.64-20.86-60.86-0.51-1.45-3.15-2.87-4.91-3q-16.66-1.46-33.38-2.29c-22.24-1.09-34.91-11.22-40.86-32.5q-16.58-59.3-33.5-118.49a11.27,11.27,0,0,0-3.31-4.6c-4.52-4.24-9.77-7.84-13.72-12.54-10.33-12.29-20.21-25-30.09-37.6-14.34-18.36-28.51-36.86-42.83-55.23a9.57,9.57,0,0,0-3.67-2.32,127.72,127.72,0,0,1-36.7-24.8,16.39,16.39,0,0,0-5.74-3.75c-21.18-7.32-38.9-19.58-52.46-37.38C1406.36,409.85,1401.64,401.24,1396.15,392.66ZM856.27,295.41c2.39,0.48,5.89,2.13,9.1,1.69,24.25-3.35,48.45-7,72.64-10.78,7.85-1.21,11.31-6,10.36-14q-1.08-9-2.7-18c-1.48-8.18-6-11.69-14.29-10.55-4.39.61-7.38-.81-10.29-3.79-8-8.21-16.23-16.25-24.33-24.4-6.38-6.42-12.71-12.9-19.29-19.59,9.26-10.66,18-20.94,27.06-30.93,1.5-1.66,4.33-2.43,6.68-2.93,8.43-1.77,11.91-6.13,11-14.66-0.62-5.54-1.51-11-2.36-16.56-1.47-9.52-6.33-13.19-15.81-11.81-19.05,2.77-38.08,5.7-57.14,8.4-5.89.84-11.78,1.35-14.23,5.38-5.63-.41-9.82-0.91-14-0.94a54.63,54.63,0,0,0-8,1.07c-19.22,2.8-38.44,5.55-57.65,8.41-10,1.48-13.37,6.23-11.86,16.07,0.77,5,1.45,10,2.16,15,1.35,9.47,5.84,13,15.18,11.84a41.53,41.53,0,0,1,4.43,0l12.07,82.19c-1.86.27-3,.41-4.15,0.61-9.24,1.69-12.62,6.4-11.29,15.72,0.71,5,1.48,10,2.17,15,1.4,10.19,6.1,13.73,16.33,12.21,21.71-3.22,43.44-6.31,65.11-9.81C847.33,299.62,851.29,297.31,856.27,295.41ZM1082,246.14c-2-.18-3.53-0.28-5-0.44-8.47-.89-13.14,2.47-14.68,10.87-1,5.31-1.64,10.68-2.42,16-1.46,10.1,1.66,14.63,11.71,16.22q61.07,9.65,122.17,19.1c6.47,1,10.28-.77,13.47-6.54q13.59-24.63,26.92-49.4c3.75-7,1.62-13.33-5.36-17.11-4.6-2.49-9.27-4.87-13.88-7.35-9.43-5.08-14.62-3.53-20,5.67-2.19,3.71-5,7.08-7.45,10.6l-1.28-.79,6.08-38.14c4.36,10.22,12.09,10.38,20.9,8.17,4.09-1,8.31-1.53,12.44-2.43,8.32-1.81,11.75-6.78,10.21-15-2.73-14.61-5.59-29.2-8.43-43.79-1.85-9.5-4.64-12-14.35-13.51q-34.55-5.35-69.08-10.85c-15.68-2.46-31.36-5-47.05-7.36-7.24-1.1-12.71,1.95-14.11,8.38a200.53,200.53,0,0,0-3.49,22c-0.67,6.47,3,10.76,9.55,12.28l6.1,1.42Zm588.4,335.36c-0.56-1.51-1.08-2.72-1.47-4-2.87-9.21-7.6-11.86-16.82-9.32q-7.81,2.15-15.58,4.43c-8.71,2.57-11.71,7.79-9.37,16.49,1.89,7,4,14,5.95,21q13.74,48.76,27.48,97.52c2.26,8,5.34,10.48,13.65,11.06q27.31,1.92,54.63,3.59c7.48,0.45,12.28-3.78,12.93-11.2,0.53-6.06.82-12.14,1.05-18.22,0.34-9.05-3.77-13.27-12.78-14.06-4.56-.4-9.06-1.57-13.58-2.4l0.11-1.48L1755,664.14c-6.88,9-6.92,12.41-1.13,20.62,2.63,3.73,5.29,7.43,8,11.13,6,8.37,11.84,9.37,20.15,3.39q17.7-12.72,35.36-25.49c7.06-5.08,8.39-8.6,6.09-16.91-3.25-11.72-6.6-23.41-9.89-35.11q-11.11-39.5-22.21-79c-2.34-8.29-7.78-11.3-16.2-9.13-3.44.88-6.83,1.93-10.25,2.86-16.14,4.42-17.07,5.81-14.57,22.53ZM1553.83,413.66c1.33,0.8,2,1.22,2.75,1.66,7.86,4.92,13.39,3.83,18.57-3.73,3.25-4.74,6.48-9.48,9.61-14.3,4.6-7.08,3.43-12.91-3.49-17.89-2-1.46-4.11-2.84-5.2-3.6,2.71-3.52,6.27-6.49,7.67-10.26q8.38-22.54,15.46-45.56c1-3.3.85-8.95-1.21-10.81a83.45,83.45,0,0,0-19.51-13c-2.91-1.4-5.44-2.53-7.49-5-22.93-27.92-58.42-39.64-91.85-29.11-29.87,9.41-49,30.64-58.7,59.82-9.33,28.06-5.66,54.8,13,78.46,13.14,16.66,30.39,27,51.29,31.14,1.57,0.31,3.84,1.82,4.09,3.11,0.89,4.56,3.46,7.53,7.16,9.94,4.53,3,8.95,6.07,13.42,9.1,8.38,5.68,14.44,4.44,20.08-3.94C1537.46,437.74,1545.53,425.9,1553.83,413.66Zm-902-63.06c18.85-.12,34.43-5.59,49-14.49,24.75-15.15,36.88-38.72,43.69-65.74,1.65-6.54-1.56-11.66-8-13.83-4.8-1.61-9.72-2.88-14.59-4.29-12.54-3.64-16.26-1.63-20.28,10.75-3.21,9.91-7.74,19.15-15.3,26.52-11.53,11.23-25.25,12.14-38,2.36-13.81-10.62-21.17-25-21.78-42.22a34.24,34.24,0,0,1,4.24-17.33c7-12.25,22-14.89,35.61-6.72,6.33,3.8,12.07,8.65,17.87,13.27,6.37,5.07,11.3,5.36,17.85.5,4.21-3.12,8.4-6.26,12.6-9.39,7.51-5.6,8.54-11.59,3.17-19.09Q704,191.52,690.09,172.2c-7.06-9.76-10-10.52-21.45-6.4-10.34,3.72-19.23,11.72-31.22,10.67a8.18,8.18,0,0,0-2.5.39c-31.25,7.4-54.23,24.75-65,55.74-8,23.15-5.21,45.78,4.95,67.95C588.56,330.35,620.73,351.15,651.82,350.6Zm674.29-47.73c-7.07-1.75-12.55-.11-15.3,6.24a204.17,204.17,0,0,0-7.47,20.45c-1.88,6,.61,11.43,6.5,13.63q33.23,12.41,66.66,24.29a10.79,10.79,0,0,0,13.82-6.28c2.74-6.72,5.21-13.57,7.37-20.5,1.71-5.5-.2-10.75-5.23-12.87-4.45-1.87-5.43-4.82-5.34-9,0-2.19-.2-4.39-0.25-6.59q-1.21-56-2.4-112c-0.19-8.91-2.45-12.11-10.69-15.09s-16.53-6-24.78-8.94c-8.66-3.14-12.23-2.23-18.31,4.68Q1291,226,1251.28,271.07c-2.15,2.46-4,3.34-7.35,2.38-6.4-1.82-11.67.76-14.08,6.72-2.59,6.41-4.92,13-7,19.55s0.48,12,6.83,14.4q26.55,10,53.3,19.51c6.73,2.39,12.67-.55,15.21-7.1,2.38-6.14,4.59-12.35,6.68-18.6,2-5.83.14-10.6-5-14-0.78-.52-1.49-1.13-2.32-1.77C1301.74,289.11,1325,297.47,1326.11,302.87ZM511.69,378.38c-6.18,8.86-6.27,12.25-.22,21.06,3,4.32,5.78,8.73,8.85,13,4.16,5.75,10,7.21,16,3.28q29.12-19.34,57.89-39.19a10.89,10.89,0,0,0,3.28-15.27c-3.77-6.19-7.91-12.19-12.23-18-3.42-4.62-9.2-6.08-14-3.06-3.84,2.42-6.48,1.49-9.49-.85-1.86-1.45-3.88-2.7-5.83-4q-46.31-31.93-92.58-63.9c-6.06-4.2-11.62-4.51-17.69-.16-7.55,5.41-15.37,10.44-23,15.74-6.94,4.82-8.13,8.17-6.27,16.43q13.22,58.54,26.47,117.08c0.77,3.37.84,5.82-2.5,8.26-5,3.69-5.69,9.89-2.19,15.4s7.24,11,11.1,16.34c4.27,5.9,10.4,7.15,16.39,3.15Q489.06,448,512.22,432c6.21-4.28,7.22-10.39,3.13-16.78-2.36-3.7-5-7.23-7.42-10.88-7.24-10.82-8.63-11.43-21.09-9.19,0.49-1.65,1.15-3.5,2.43-4.22C496.77,386.75,502.68,379.56,511.69,378.38ZM344.61,540.7c-1,1.43-1.69,2.38-2.39,3.29-5.81,7.62-5.28,13.24,1.94,19.3,4.4,3.69,8.81,7.38,13.37,10.86,6.35,4.85,12.35,4.39,17.4-1.73q35.34-42.77,70.44-85.74c3.61-4.4,4-9.21,1.13-14.12-9.67-16.25-19.3-32.53-29.18-48.66-4-6.59-10.32-7.87-17.06-3.93q-7.87,4.61-15.54,9.56c-6.86,4.42-8,9.92-4.4,17.4,2.77,5.75,5.67,11.57,7.35,17.68,2.89,10.52-.34,19.79-7.73,28.14l-62.11-51c1.23-1.53,2-2.43,2.69-3.35,5.8-7.3,5.13-13.33-2.13-19.21-4.59-3.72-9.09-7.56-13.79-11.15-5.61-4.28-11.86-4-16.3,1.31Q265.28,437,242.71,465c-4.43,5.5-3.6,11.36,1.7,16.22,3.49,3.19,7.44,5.87,10.85,9.13,9.39,9,17.11,8.33,24-1.64a4.2,4.2,0,0,1,1.31-.61Zm1269.55-42.86,62.66-49.93c1.31,1.49,2.29,2.6,3.26,3.73,5.55,6.44,11.47,7.13,18.13,2,4.82-3.71,9.64-7.43,14.27-11.36,5.78-4.9,6.44-10.94,2-17-2.59-3.54-5.43-6.91-8.16-10.34q-17.36-21.82-34.74-43.62c-6-7.46-12-8.09-19.64-2.2-2.54,2-5,4-7.53,6-13.13,10.36-13.47,12.09-4.79,26.56l-64.87,51.62c-1.18-1.25-2-2.06-2.77-2.93-6.54-7.53-11.65-8.06-19.63-1.9-4.41,3.41-8.8,6.86-13.09,10.42-6,5-6.85,11.25-2,17.35q34.49,43.5,69.16,86.85c3.45,4.33,8,5.92,13.11,4.23,18.43-6.12,36.82-12.39,55.1-18.93,6.31-2.26,8.84-8.07,6.82-14.44-2.09-6.6-4.42-13.13-7-19.56-2.36-5.93-7.73-8.46-14-6.93-3.28.79-6.45,2-9.73,2.79C1636.31,513.53,1623.92,510.79,1614.16,497.84Zm-1339,69.44c-1-1.45-1.67-2.39-2.29-3.37-13.63-21.26-40.76-26.82-61.67-12.72-12.9,8.7-19.91,21.52-24.34,35.76-8.91,28.71-17.3,57.58-25.82,86.4-2,6.83,1,12.5,7.69,14.82,4,1.38,8.08,2.48,12.14,3.65,15.45,4.43,17,3.73,23.77-11.18l79.47,23.58c-0.32,1.58-.5,2.72-0.78,3.83-2.31,9.39.26,13.92,9.53,16.76,5,1.53,10,3.12,15,4.57,9.3,2.68,14.39-.2,17.17-9.56,4.57-15.38,9.32-30.7,13.69-46.13,5.23-18.5,12-36.63,13.68-56,2.54-28.7-13.25-52.73-39.37-58.77C299.49,555.78,286.89,558.81,275.14,567.28ZM164.25,791.11a22.19,22.19,0,0,0-1,2.59c-3.12,19.34-6.32,38.68-9.24,58.05-0.6,4-2,5.66-6.18,6.19-12.56,1.61-25.05,3.72-37.56,5.69-7.87,1.24-15.72,2.59-24.65,4.07,1.56,1.07,2,1.49,2.58,1.77,18,9,35.87,18.14,53.91,27,3.06,1.5,4.22,2.94,3.57,6.52-2.92,16.29-5.55,32.63-8.24,49-0.61,3.69-1.08,7.41-1.61,11.12a15,15,0,0,0,5.26-3.67c13.21-12.84,26.48-25.61,39.54-38.59,2.53-2.52,4.33-2.55,7.38-1,16.69,8.56,33.51,16.85,50.3,25.22,1.44,0.72,3,1.29,5.73,2.48-1.67-3.37-2.73-5.58-3.85-7.75-8.09-15.78-16.1-31.61-24.38-47.3-1.72-3.25-1.52-5.19,1.18-7.77,13.53-13,26.87-26.18,40.26-39.31,1.45-1.42,2.79-2.94,5.11-5.39-2.77.33-3.93,0.42-5.08,0.6-19.53,3-39.07,6-58.56,9.22-3.39.57-4.81-.45-6.18-3.29-3.44-7.16-7.16-14.18-10.78-21.24C176.12,814.22,170.43,803.15,164.25,791.11Zm1569.39,48.78c1.89,2,2.83,3.14,3.89,4.14,13.79,13,27.5,26,41.46,38.76,3.24,3,4.14,5.16,2,9.35-6.59,12.75-12.67,25.76-18.94,38.68-2.44,5-4.83,10.1-7.86,16.43,3-1.5,4.69-2.26,6.3-3.11,16.44-8.65,32.93-17.2,49.27-26,3.11-1.68,4.91-1.36,7.4,1,10.61,10.16,21.43,20.11,32.18,30.13l12.46,11.59a11.51,11.51,0,0,0,.1-5.79c-3.35-17.93-6.62-35.87-10.15-53.76-0.73-3.71-.08-5.73,3.48-7.57,17.42-9,34.69-18.22,52-27.4,1.08-.57,2-1.36,3.88-2.61-21.66-2.9-42.21-5.78-62.81-8.29-4-.49-5.33-2-6-5.8-3.28-18.8-6.84-37.55-10.32-56.31-0.21-1.14-.65-2.25-1.31-4.49-9.36,19.38-18.26,37.55-26.88,55.86-1.57,3.34-3.28,4.38-6.94,3.82-12.18-1.88-24.42-3.43-36.64-5.08C1751.77,842.27,1743.32,841.17,1733.64,839.89Zm-948.19,949.4c3.45,0.78,6.09,1.22,8.62,2,9.42,2.84,13.27,9.18,11,18s-10.47,14.22-19.16,12.46c-1.37-.28-2.76-0.47-4.26-0.72a7.2,7.2,0,0,0-.23,2.11c4.85,14.76,9.71,29.52,14.68,44.25a4,4,0,0,0,2.3,2.28c6.5,1.71,13.05,3.21,20.68,5-0.4-2.18-.28-3.76-1-4.84-1.89-3-4.8-5.59-6.07-8.83-3.6-9.11-6.59-18.45-9.79-27.71-0.8-2.32-1.51-4.67-2.11-6.53,5.2-2,10-3.25,14.18-5.68,6.73-3.95,9.4-10.57,8.76-18.16-0.58-7-5-11.29-11.47-13.42-4.8-1.59-9.73-2.82-14.63-4.08-11.73-3-23.48-6-35.39-9-1.33,2.56-1.81,4.62,1.57,5.57,4.16,1.17,5,3.79,3.92,7.76-4.9,18.79-9.65,37.62-14.46,56.44-0.92,3.58-2.68,5.68-6.89,4.49-3.17-.89-4.86.34-4.12,4l34.5,9c2-3.09,1.32-4.84-1.81-5.52-4.68-1-5.17-4.16-4.22-8.1,0.28-1.15.45-2.32,0.74-3.47C775.67,1827.63,780.51,1808.69,785.45,1789.29Zm-513.7-376.95c4.16,2.47,7.47,4.91,11.14,6.5,8,3.47,15.39,1.5,21.41-4.39,5.84-5.71,5.65-12.66,2.22-19.61s-7.06-13.83-10.6-20.73q-6.09-11.85-12.19-23.68l-1.76-.19c-0.47,1.6-1.8,3.61-1.26,4.73,2.19,4.58.14,6.88-3.65,8.83-17.12,8.77-34.25,17.51-51.29,26.45-3.82,2-6.27,1.42-8.21-2.35-1.7-3.31-3.64-2.73-5.69-.27l16.34,31.89c3.89-.47,4.33-2.26,2.9-5.26-1.2-2.52-2.08-5.27,1.21-7,19-10.13,38.05-20.22,57.66-30.64,2,4.13,3.76,7.18,5.11,10.39,2.05,4.88,1.64,9.65-1.71,13.85-7.1,8.92-21.38,7.83-27.23-2-0.73-1.22-1.48-2.42-2.37-3.86a9.62,9.62,0,0,0-2,1.65q-11.52,20-22.93,40a4.08,4.08,0,0,0-.36,3.27c3.14,6.09,6.49,12.06,9.77,18.08l1.5,0.22a32,32,0,0,0,1.58-4.19c0.49-2.1.17-4.55,1.13-6.35C258.75,1435.87,265.23,1424.24,271.75,1412.35Zm1461.16,63.81c-2.26-2.21-4.08-3-5.78.1-2.25,4.17-5.23,4.43-9.16,2-17.17-10.43-34.42-20.73-51.65-31.06a18.53,18.53,0,0,0-2.2-1c1.67-3.1,2.66-5.25,3.92-7.23,5.3-8.36,12.34-10.46,20.2-6.11,8.2,4.53,11.07,13.27,7.11,21.66-0.67,1.42-1.31,2.86-2,4.33a6.27,6.27,0,0,0,1.88.94q23.54-.86,47.08-1.85a3.46,3.46,0,0,0,2.39-1.47c3.48-5.74,6.83-11.56,10.85-18.44-2.32-.14-3.81-0.58-5.07-0.23-3.62,1-7.06,3-10.72,3.41-6.69.81-13.48,0.91-20.23,1.11-5.32.16-10.64,0-15.57,0-0.31-4.85,0-9.51-1-13.87-1.8-7.73-7.16-12.63-14.84-14.32-7.25-1.59-12.84,1.62-16.89,7.61-2.08,3.07-4.08,6.21-6,9.4q-10.2,17.12-20.3,34.31l0.44,1.48c1.64-.33,4.11-0.1,4.76-1.09,2.75-4.11,5.8-3.9,9.5-1.68q25.18,15.14,50.41,30.19c3.19,1.9,3.5,4.19,1.65,7.16s-1.2,5,2.63,5.31Zm-1206,222.41c-4.07,0-7.94-.23-11.77,0a21,21,0,0,0-19.37,25.55c2.8,13.14,12.19,20.76,24.31,22.9,9.56,1.68,15.4,5.12,20.11,13.65,4.15,7.52,11.45,11.94,21,7.63,1.5-.68,3.42-0.49,4.88-1.21,1.28-.64,2.2-2,3.29-3.06l-0.48-1.25c-12,.75-16.82-7.28-21.43-15.93,4-2.05,7.76-3.39,10.78-5.68s5.54-5.67,8.45-8.75l13.11,9.39,6.33-6.39c-8.9-5.79-17.53-11.33-26.08-17-5.77-3.83-6.51-3.84-11.67,1.12,1.95,3.62,9.67,2.79,7.43,9.57-1.82,5.53-5.1,9.66-12.24,11.39l-5-34.3c7.79-1.26,14.4-1.74,20.64-3.49,6.78-1.9,11-8.55,10.43-14.53-0.57-6.4-5.27-11-12.74-12.49-13.52-2.68-25,4.4-28.58,17.67C527.79,1694.86,527.44,1696.33,526.88,1698.56Zm893,60c-1.22-5.22-2-10.6-3.75-15.63-8.69-24.65-30.24-34.34-53.76-24.16a86.07,86.07,0,0,0-15.41,8.63c-12.69,9-19.53,21.26-17,37,2.63,16.24,10.33,29.48,26.23,36.57,19.91,8.89,48.93-7.77,57-21.61A49.82,49.82,0,0,0,1419.86,1758.56ZM885.8,1886.94c21.11-.93,36.19-12,41.73-31.39,5.26-18.4,1-33.79-12.21-43.89-6.93-5.29-15.13-7.3-23.54-8.67-27.92-4.53-47,8-51.71,33.89-3.83,21.2,5,38.46,23.63,45C870.8,1884.33,878.42,1885.29,885.8,1886.94Zm629-166.1-3.26-4.74c-12.25-17.81-24.42-35.68-36.8-53.4-2.69-3.84-2.67-6.64,1.31-9.29,2.81-1.87,3-3.85-.28-5.88l-22.62,15.68,2.82,3.53c8.77-4.28,9-4.41,13.09,1.34,8.47,11.79,16.73,23.74,25,35.65a4.16,4.16,0,0,1,.12,1.62c-1-.19-1.84-0.28-2.62-0.49-22-6-43.94-12.1-65.93-18.06-2-.54-4.71-1.15-6.17-0.25-6.26,3.9-12.16,8.35-18.2,12.61l-0.18,1.54c1.65,0.34,3.59,1.4,4.92.88,6.92-2.68,7.07-3,11.4,3.23,9.69,13.83,19.21,27.79,28.71,41.75,5.85,8.59,5.78,8.63-1.46,15.9l2.64,3.24,22.26-15.45c-1-2.79-2.39-4.51-5.2-2.31-4.11,3.23-6.82,1.65-9.46-2.15-8.48-12.2-17.15-24.27-25.73-36.41-0.8-1.13-1.48-2.35-2.73-4.37,2.32,0.6,3.6.91,4.86,1.25,22.33,6,44.73,11.75,67,18.08C1504.5,1726.15,1509.39,1724.81,1514.76,1720.85ZM271.54,1319.74c-4,0-4.78,1.85-3.48,4.91,1.91,4.48.07,6.92-4.17,8.45-12.53,4.55-24.91,9.55-37.56,13.74-14.45,4.78-22.75.14-27.46-14.49-4-12.33-.48-20.43,11.52-25.17,11.61-4.58,23.42-8.68,35.18-12.9,8.85-3.17,8.87-3.11,14.54,6.08,1.09-1.91,2.82-3.62,2.48-4.58-3.82-10.59-8-21.07-12.56-32.94-1.47,1.93-3.31,3.24-3.29,4.51,0.11,7.92.27,8-7.33,10.9-13.39,5.14-26.86,10.1-40.21,15.35-9.57,3.76-14.08,11.14-14.09,21.33A50.81,50.81,0,0,0,196,1346.43c7.14,9.35,16.74,12.1,28,9,4.06-1.11,8-2.66,12-4,10.2-3.55,20.38-7.17,30.59-10.68,3.82-1.32,7.2-1.5,9.24,3.19,0.42,1,3,1,5.54,1.75Zm425.55,518.77c3.24-3.48.89-4.59-1.84-5.94s-6.63-1.76-4.79-6.62c7.27-19.25,14.36-38.57,21.76-57.77,0.44-1.13,3.15-2.3,4.51-2,13.16,2.66,17.25,13.06,10,24.9-3.79,6.18-9.9,8.24-16.58,5.59l-3.91-1.54-1.23,1c0.84,1.72,1.24,4,2.6,5.07,10.53,7.9,28.37,4.58,35.63-6.43,7.64-11.6,5-21.81-7.53-27.9-5.44-2.64-11.25-4.54-16.93-6.68-9.41-3.55-18.86-7-28.29-10.54l-1.39.9c0.7,1.49,1.05,3.89,2.16,4.31,5,1.89,5.09,5.07,3.49,9.28q-10.22,27-20.31,54c-1.47,3.94-4,5.26-7.89,3.66s-4.24.61-4.48,3.54Zm-469.6-670.85-8.89-61.78-1.39-.82c-1,1.32-3,2.76-2.86,3.95,0.72,6.06-2.74,7.53-7.66,8.15q-27.63,3.51-55.23,7.26c-3.6.49-6.64,0.49-8.68-3.2-0.44-.79-2-1-4.05-1.84,0.88,5.66,1.63,10.1,2.25,14.56,1.89,13.54,3.67,27.1,5.69,40.62,0.22,1.46,1.76,3.9,2.68,3.89,5.81,0,11.62-.62,17.29-1,0.85-4.22-1.33-4.47-4.17-5-3.08-.56-7.77,1.7-8.85-3.41-1.81-8.52-3.2-17.13-4.92-26.49l32.11-4.91c0.75,5.72,1.19,10.58,2.07,15.35s-0.11,7.87-5.62,8.41c-3.61.35-3.8,2.53-2.08,5.46l24.39-3.57c-0.25-4.52-.28-4.26-3.61-4.64-2.09-.23-5.6-1-5.86-2.15-1.5-6.46-2.22-13.09-3.26-20l28.77-3.23c0.9,6.29,2,12.07,2.51,17.9,0.88,10.12.73,10.13-8.48,12.94a8.66,8.66,0,0,0-1.19,1.06c1.05,1.11,2.06,3.13,3.12,3.15C216.57,1168.39,221.58,1168,227.48,1167.66Zm1421.2,323.52c-0.17-1.51.23-3.56-.6-4.44-3.34-3.5-7.07-6.62-11.21-10.4l-37.77,50.19,3.47,2.42c7.21-6.48,7.35-6.67,15.22-.72,14.41,10.89,28.63,22,43,33.06,2.29,1.76,3.9,3.56,3,6.8-0.29,1,.54,2.4.85,3.61,1.15-.71,2.63-1.16,3.4-2.16,6.07-7.9,12-15.94,18-23.88,5.08-6.7,10.25-13.33,15.52-20.17l-14.8-13c-3.3,1.9-2.9,3.66-.87,6.17s5.26,6.61,4.46,8c-4.57,7.93-10.2,15.25-15.72,23.15l-25.89-19.11c2.94-4,5.27-7.53,8-10.77,7-8.44,5.65-6.89,13.19-2.36a4.69,4.69,0,0,0,1.34.19l2.38-3.47-20.31-15.36-2.84,3.77c1.4,1.32,2.95,2.17,3.48,3.44,0.72,1.73,1.58,4.37.79,5.6-3.34,5.2-7.28,10-11.31,15.39l-22.61-18.23c3.95-5.19,7.48-10.09,11.29-14.77C1638.4,1486.35,1638.47,1486.41,1648.68,1491.18Zm-592,392.29-2.74-32.14c5.94-.4,11-0.62,16-1.12,4.45-.44,7.21.87,7.35,5.8,0.11,3.83,2.09,4.46,5.29,2.95-0.5-7.21-.87-14.29-1.6-21.33-0.14-1.32-1.76-2.49-2.7-3.74-0.78,1.21-1.66,2.37-2.32,3.64-1,1.92-1.6,5.42-2.8,5.62-6.54,1.07-13.2,1.33-20.59,1.93V1816c6.32-.41,12.53-1,18.76-1.18,8-.22,7.94-0.06,10.33,7.54a3.55,3.55,0,0,0,2.64,2.08c0.78,0,2.08-1.59,2.12-2.52,0.22-4.83.1-9.67,0.1-15-2.19,0-4.19-.13-6.17,0-17.67,1.33-35.33,2.73-53,4.06-3.87.29-3.16,2.43-2.41,4.78,9.21,0.87,9.56.84,10.25,9.54,1.42,17.84,2.44,35.71,3.61,53.57,0.25,3.77.41,7.45-4,9.39-0.74.33-.87,2-1.49,3.6l59.1-4.42V1868c-4.42-1.41-4.45,1.4-5,4.22-0.63,3,.95,7.57-3.82,8.27C1075,1881.72,1066.26,1882.43,1056.72,1883.47Zm717.37-777c-0.61,2.91-1.22,5.18-1.55,7.49-2.42,17.05-4.82,34.11-7.08,51.18-0.15,1.13.88,2.42,1.37,3.63,1.23-.94,3.34-1.72,3.55-2.86,0.93-5.06,4-6.06,8.42-5.39q28.56,4.26,57.13,8.4c3.08,0.45,5.31,1.65,6.24,5,0.29,1,1.87,1.72,3.48,3.1l8.33-59.12-19.19-4.35c-2,4.23.45,5,3.1,6.24s7.63,0.45,7.27,5.43c-0.63,8.71-1.7,17.39-2.68,26.91l-32-3.94c0.69-5.24,1.44-9.84,1.88-14.48,0.49-5.22,2-8.82,8.42-7.66,0.93,0.17,2.21-1.57,3.32-2.42-1-.84-1.89-2.24-3-2.43-6.16-1-12.4-1.59-18.55-2.69-4.44-.79-4.43,1.25-3.24,3.86,2.75,1.5,7,3.27,7,5.09,0.08,6.59-1.26,13.19-2.11,20.23l-28.75-5.21c1.14-7.4,2.08-14.05,3.21-20.68,0.86-5.08,2.52-9.26,9.2-7.23,0.75,0.23,2-1.09,3-1.69-0.64-1-1.09-2.56-1.94-2.8C1784.27,1108.77,1779.5,1107.77,1774.09,1106.51Zm58.47-15.57c5.1,0.68,10.32,1.07,15.39,2.16,3,0.65,4.21-.33,5.42-2.81,5.3-10.91,6.34-22.32,4.12-34.09a30.18,30.18,0,0,0-9.75-17.34c-13.91-12.44-33-6.82-37.36,11.09-1.41,5.73-2.41,11.59-4.08,17.24-1.83,6.17-5.84,9-11.46,8.9s-11-3.44-12-9.11a39.27,39.27,0,0,1,.51-15.82c1.86-7.37,3.68-8.28,11.16-8.25,4,0,4.68-1.56,3.58-4.84-4.94-.86-9.72-1.92-14.57-2.39a5.08,5.08,0,0,0-4,2.5,50.34,50.34,0,0,0-2.58,34.66c3.25,11.64,13.21,18.38,25.16,18,10.26-.36,16.55-6.47,19.59-19.11,1.22-5.09,2.09-10.28,3.63-15.27,1.91-6.18,5.77-8.62,12.17-8.52,7.58,0.12,13.9,5.5,14.36,13.57a42.88,42.88,0,0,1-2.13,15.33c-2,6.19-6.34,10.36-13.74,9.46C1832.54,1085.83,1831.39,1087.41,1832.57,1090.94ZM157.93,1039.8c1-3.45.1-4.88-3.23-4.87a88.59,88.59,0,0,1-12.62-.62c-3-.42-4.21.58-5.16,3.24-4,11-4.15,22.12-1.44,33.41a29.89,29.89,0,0,0,10.71,16.75c7.49,6,16,6.95,24.89,4.07,8.56-2.78,11.2-10,12.33-18.13,0.84-6,1.37-12.12,2.79-18a11.7,11.7,0,0,1,19.25-6.09c6.3,5.38,6.48,12.68,5.19,20.06-1.12,6.43-4.37,10.84-11.81,10.61-0.95,0-1.94,1.57-2.92,2.42,1.11,0.89,2.14,2.39,3.36,2.57,3.49,0.52,7.12.18,10.58,0.82,3.17,0.59,4.64-.26,5.54-3.32a55.17,55.17,0,0,0-.62-33.91c-3.79-11.11-14.19-17.18-25.91-16-11.13,1.15-16.56,7.08-18.66,20.34-0.9,5.66-1.51,11.39-2.89,16.93-1.43,5.76-5.16,8.24-11.13,8.49-7,.29-13-4-15.07-11.1-2.21-7.51-.89-14.59,2.63-21.53C146.8,1039.94,152.57,1040.71,157.93,1039.8ZM1600.26,1557c-3.35-4.09-6.44-8.08-9.83-11.81a4.12,4.12,0,0,0-3.78-.84c-12.72,6.62-22.69,15.95-26.87,30.06-2.72,9.19,2.19,20.32,10.64,26,7.74,5.24,15.23,4.77,24.38-1.7,4.55-3.21,8.89-6.71,13.45-9.91s9.34-4,14.11-.52,7.45,8.31,6.15,14.47c-2.15,10.24-9.27,15.6-18.71,18.6-4.08,1.29-7.62.6-10.7-2.46-1.17-1.16-2.55-2.12-4.12-3.4l-2.87,3.48c4,4.51,7.56,8.76,11.39,12.77a4.18,4.18,0,0,0,3.72.92c15.66-7.22,27.47-18,30.23-35.88,1.74-11.26-3.13-20.23-12.77-26.11-9.16-5.59-17.1-1.73-24.56,4.2-4,3.15-8,6.21-12.22,9-6,4-10.26,3.65-15.15-.7-4.32-3.85-5.91-9.94-2.65-15.18a38.56,38.56,0,0,1,10.19-10.84c6.28-4.44,8.39-3.87,14.3.95,0.86,0.71,1.82,1.3,2.88,2.05Zm86.84-161.23c2.78-.56,5.23-0.41,5.6-1.22,2.44-5.31,6.94-5.18,11.59-5,23.47,0.73,46.94,1.36,70.41,2.26,3.58,0.14,5.29-.8,6.83-4.14s-0.06-4.77-2-6.85c-16.1-17.33-32.07-34.77-48.13-52.13-3.28-3.54-5.84-7.13-2.65-12.41l-4.34-1.75c-3.59,7.61-6.88,14.82-10.37,21.93-1.84,3.74.77,3.72,2.84,4.47,6-8.81,6.22-9,13.61-1.53,10.58,10.68,20.86,21.66,31.24,32.54a15.19,15.19,0,0,1,1.48,2.57c-1.65,0-2.61,0-3.56,0-15.36-.62-30.73-1.2-46.08-1.9-8.95-.4-9.28-1-6.41-9.56a10.22,10.22,0,0,0-.22-2.24c-1.65.49-4.06,0.51-4.51,1.46C1697.41,1372.68,1692.7,1383.31,1687.1,1395.73Zm-497.27,464.95-1.71-1.2c-4.94,2.44-9.71,5.29-14.83,7.25-17.18,6.55-32.87,2.15-42.28-11.51-16.82-24.41-4.91-51.66,23.78-53.72,4.78-.34,10.09,1.19,14.48,3.29,2.14,1,2.46,5.48,4.09,8.07,0.78,1.24,2.72,1.75,4.3,2.69,0-6.71.16-12.1-.13-17.46a4.33,4.33,0,0,0-2.77-3.08c-17.69-2.37-34.88-1-50.25,9-24.86,16.13-23.32,55.76,3.08,69.39,19.67,10.16,39,6.32,57.09-5.2C1187,1866.71,1188.13,1863.24,1189.82,1860.68ZM224.41,1255.3c-0.24,3.61,1.32,4.34,4.34,3.83a81.53,81.53,0,0,1,12.06-1.34c2.87-.06,3.84-1,4-3.79,0.79-15.48-1.13-30.45-9.17-44-8.47-14.26-21-22.06-37.86-20.3-17.72,1.85-31.37,10.35-36.48,28.18-5.48,19.14-.76,36.78,11.54,52.23,1.54,1.93,5,2.36,7.51,3.48l1.07-1.53c-2-3-4-5.93-5.88-9-12.47-20.8-7.5-42.56,12.8-52.18,24.87-11.79,47.12-1.6,48.85,26.87,0.62,10.21-1.59,13.25-11.21,16.68A12.75,12.75,0,0,0,224.41,1255.3Zm1607.89-60.74-2,1.06c0.35,3.65.85,7.29,1,11,1,23.86-14,40.65-35.73,39.88-27.23-1-41.29-21-31.53-44.94,4-9.86,7.44-12,18.08-11.59,1.06,0,2.16-1.29,3.25-2-0.64-1-1.07-2.44-2-2.81-5.1-2.11-10.31-4-15.45-5.89-9.82,11.4-16.4,33.29-14.34,49.47,2.14,16.86,11.47,28.21,27.77,33.29,15.8,4.93,30.55,2.55,41.9-9.87,12.8-14,17.28-31.07,13.81-49.83C1836.6,1199.52,1834,1197.13,1832.3,1194.56Zm-572.48,656.56c-0.72-4.41-.84-4.8-4.46-3.7-5.51,1.68-7.65-.84-9-5.65-3.12-10.88-6.54-21.67-9.73-32.53-2.5-8.51-4.84-17.07-7.35-25.95,4-1.14,7.38-2.14,10.79-3.07,10.21-2.8,10.21-2.79,14.12,6.78a9.13,9.13,0,0,0,1.45,1.45c1-1,3.22-2.2,3.08-3-1-5.72-2.41-11.36-3.69-17l-71.82,21.45,6,18.18,4.55-1.91c-0.57-2.66-1.35-5-1.44-7.27-0.05-1.41.6-3.75,1.56-4.14,6-2.43,12.26-4.44,18.33-6.55a12.15,12.15,0,0,1,1.16,1.93q8.53,29.17,17,58.35c1.3,4.43-.61,6.71-4.72,7.78-3.71,1-4.11,2.86-1.67,5.61Zm-291.51-33.06c-0.76,20.92-1.56,41-2.17,61.05-0.16,5.14-2,8-7.51,7.65-3.47-.22-4,1.63-2.37,5.78,11.31,0,23.1,0,34.88-.09,0.9,0,1.79-1.35,2.68-2.06-0.86-1-1.55-2.54-2.61-2.86-7.9-2.32-8.12-2.25-8-9.64,0.35-15.37.9-30.73,1.48-46.09,0.16-4.32-.88-10.36,1.47-12.47s8.26-.51,12.59-0.33c8.06,0.34,8.18.4,8.69,8.58,0.22,3.54,1.57,4.42,5,3.07l2-18.35-75.11-1.84c0,5.53-.13,10.91.12,16.27,0,1,1.72,1.84,2.64,2.75,0.78-.85,2-1.59,2.25-2.58,0.57-1.92.37-4.09,1-6,0.41-1.15,1.81-2.71,2.82-2.75C954.53,1817.93,960.9,1818.06,968.31,1818.06ZM300.17,1537.2l23,30.15,3.53-2.53c-0.48-1-.82-1.71-1.22-2.43-3.85-6.82-3.89-6.87,2.39-11.77q11-8.58,22.08-17c8.44-6.37,17-12.62,25.71-19.1,2.35,3.13,4.41,5.79,6.37,8.52,6.28,8.75,6.26,8.76-1.21,16.48a8.67,8.67,0,0,0-.68,2c1.48,0.43,3.39,1.66,4.3,1.14,4.9-2.83,9.55-6.09,14.27-9.19l-45.53-59.65-14.76,12,3.12,3.59c2.49-1.55,4.52-3.16,6.82-4.1,1.24-.5,3.59-0.42,4.33.4,4.26,4.72,8.19,9.74,12.11,14.51a8.42,8.42,0,0,1-1.16,1.9c-16.2,12.18-32.44,24.3-48.61,36.51-3.73,2.82-6.52,1.81-9-1.61C304.07,1534.2,302.21,1534,300.17,1537.2Zm105.35,59.5c0.85-2.46,1.42-4,1.89-5.52,3-10,6.38-19.94,8.9-30.08,0.87-3.49,1-8.68-.93-11-3.6-4.24-9-7-13.76-10.16a3.17,3.17,0,0,0-3,.57c-0.53.54-.32,2-0.2,2.95,0.49,3.87,1.94,7.85,1.45,11.58-0.92,7-3.32,13.79-4.42,20.77-2.21,14-9.42,24.48-20.77,32.74-3.86,2.8-6.64,3.61-10,0-2.51-2.68-4.15-1.78-5.52,1.11l26.12,27.73,3.17-3.09c-1.15-1.46-1.66-2.13-2.18-2.78-4.35-5.37-4.37-6,.45-10.94,3.31-3.38,6.9-6.49,10.11-10a27.65,27.65,0,0,1,16.63-8.79c11.67-1.84,23.27-4.08,34.89-6.23,2.11-.39,4.16-1.15,6.58-1.84-5.56-7.75-5.56-7.76-13.32-5.82-2.46.61-4.91,1.25-7.37,1.84Zm1321-290.8c3,2.26,4.81,1.6,5.79-1.62,1.49-4.89,4.43-5.47,9-3.82,17,6.16,34.09,12,51.08,18.07,8.5,3.06,8.43,3.23,6.39,11.92a4.84,4.84,0,0,0,.19,1.33l3.86,1.2c3.89-11,7.68-21.42,11.26-32,0.42-1.23-.3-2.84-0.5-4.27-1.34.79-3.47,1.28-3.89,2.41-1.77,4.78-4.72,5.44-9.17,3.87-17.65-6.27-35.31-12.51-53.05-18.51-4.93-1.67-7.05-4.08-5-9.3,1.34-3.42-.44-4.49-3.64-4.24Zm-1470,165.36,19.78,31.28c3.35-.64,4.44-2.26,2.53-5-3.11-4.4-1.64-7.29,2.55-9.89q24.09-15,48-30.16c4.13-2.63,7.21-2.13,9.71,2,1.89,3.14,3.72,2.83,5.66,0l-19.61-31.34c-3.68.68-4.12,2.42-2.46,5.32s3.21,5.94-1.05,8.57q-25.23,15.53-50.25,31.38c-3.82,2.41-6.62,1.8-8.83-2C260.85,1468.6,259,1468.13,256.47,1471.26ZM1299,1750.42l-34.54,13.64c0.24,4.36,2.38,4.28,5.22,3.18,3.26-1.27,6.05-1.59,7.72,2.69,7.16,18.42,14.5,36.77,21.83,55.12,1.62,4.05.75,6.83-3.51,8.34-3.36,1.19-4.13,3.06-1.39,5.89l34.29-13.62c-1-4.19-1.2-4.62-4.29-3.39-5.29,2.11-7.8-.12-9.61-4.76q-10.16-26-20.52-51.83c-1.79-4.46-1.56-7.84,3.62-9.6C1301.29,1754.9,1301.13,1752.83,1299,1750.42ZM274.83,529.4l4.07-6.08L267.71,525Z"/><path d="M1277.4,1184.86c0.42,1.35.49,3,1.31,4a342.17,342.17,0,0,1,54,98.72c1,2.76,2.54,3.05,4.92,3a302.58,302.58,0,0,1,31.14,1c-6.5,4.66-13,9.35-19.51,14-8.8,6.21-8.91,6.21-6.47,16.41a341.59,341.59,0,0,1,5.26,133.9q-15.4,97.51-79.89,172.5a329.89,329.89,0,0,1-50.7,48c-2.66,2-3.07,3.84-2,6.86,3.09,8.76,5.91,17.61,8.81,26.44,0.51,1.55.87,3.15,1.65,6-7-5-13.6-8.57-18.92-13.53-8.39-7.83-15.21-8.35-25.55-1.79-33.57,21.28-70.58,34.69-109.6,42.06-68.37,12.91-135.11,6.7-199.32-20.22-19.68-8.25-38-19.74-56.82-30-2.8-1.53-4.52-1.71-7.1.19-9.4,6.9-19,13.55-28.5,20.28-1.16.82-2.37,1.58-4.67,3.1,3.94-12.1,7.44-23,11-33.83,2.76-8.31,2.89-8.38-3.67-13.93A349.07,349.07,0,0,1,694,1554.74a342.28,342.28,0,0,1-32.55-109.27,346,346,0,0,1,6.73-123.34c0.84-3.59-.15-5.48-3-7.49-10.81-7.5-21.44-15.26-33.29-23.74h44.58c5-11.91,9.38-23.41,14.56-34.52q39.68-85.07,116.81-138.72c4.4-3.06,5.86-6.27,6-11.53,2.09-58.79,20.23-111.66,58.85-156.76,4.71-5.49,9.94-10.54,15.43-16.32-47.35-56.7-106.55-95.06-178.8-116.27-9.05,87.45,2.51,169,56.86,241.26-14.17-1.38-27.57-4.65-39.37-12-11.5-7.16-22.21-15.59-33.27-23.47a542.67,542.67,0,0,0,15.29,79.56,366.45,366.45,0,0,0,29.86,77c-14.19-1.47-25.56-7.08-35.8-15.11-18.14-14.22-30.17-33.11-40-53.54-14.54-30.24-23-62.35-28.95-95.23a4.19,4.19,0,0,0-.88-2.18,838.49,838.49,0,0,0,11.9,120.15c7,39.68,16.76,78.57,33,115.65l-0.77,1.41c-5.29-1.67-10.82-2.8-15.82-5.1-15.89-7.3-27.15-19.81-36.59-34.1-16.52-25-26.32-52.84-34-81.49-9-33.53-14.38-67.75-17.55-102.3-1.54-16.78-2.56-33.62-4.42-50.55-0.12,1.73-.32,3.46-0.36,5.19-1.28,47.18-.73,94.31,3.57,141.35,4.58,50.1,12.33,99.6,27.55,147.68,4.22,13.33,9.46,26.34,14.41,40-10.46-.91-19.46-5.09-27.71-11.17-16.52-12.16-27.45-28.78-36.41-46.76-17.66-35.45-27-73.45-33.56-112.25-11.89-70.57-13.1-141.58-8.51-212.81a153,153,0,0,0,.42-17.74c-0.91,7.8-2,15.59-2.71,23.4a1259.22,1259.22,0,0,0-4.92,179.3c2.5,54.46,8.71,108.46,21.86,161.5,5.7,23,12.76,45.54,22.27,67.27a7.41,7.41,0,0,1,.53,4.25c-5.1-1.55-10.45-2.58-15.27-4.75-19.2-8.67-31.65-24.36-42-41.91-17.22-29.15-26.87-61.16-34.2-93.9-7.84-35-12.49-70.52-15.85-106.34q0,9.52,0,19c0,6.59,0,13.19,0,19.78,0.1,41.62,2.22,83.14,7.54,124.43,6.34,49.22,15.93,97.71,34.57,144,1.38,3.42,2.82,6.82,4.47,10.8a50.8,50.8,0,0,1-22.82-7.61c-17.34-10.55-28.88-26.3-38.35-43.68-17.24-31.64-26.85-65.92-33.79-101-13-66-16.53-132.81-13.21-199.86,1.84-37.1,4.73-74.26,9.53-111.09,10.25-78.66,28-155.59,59.29-228.87,13.72-32.13,29.75-63,53.24-89.29,7.82-8.73,17.46-15.82,26.2-23.73,2.09-1.89,4.39-3.8,5.79-6.17a269.6,269.6,0,0,1,43.51-56.4c14.82-14.53,27.95-30.78,42.61-45.48,26-26.09,54.46-49.14,87.58-65.83,16.11-8.12,32.86-14.35,51.16-15,27.62-.93,47.25,13.07,55.51,39.58,7.17,23,6,46.42,2.65,69.84-3.15,22-9,43.3-16,64.34a16.43,16.43,0,0,0-.5,8.83c1.68,6.51,4.11,12.83,6.28,19.21,2.86,8.42,8,14.52,16.63,17.77,19.72,7.47,39.32,15.24,59,22.86a35.86,35.86,0,0,0,4.3,1,112.23,112.23,0,0,1-.8-60l-1.53-.7-21.47,34.72c-4.52-7.47-8.94-35.63-7.73-47.64,1.68-16.76,9.14-31.13,18.55-44.74l-1.16-.82L842.53,579c-0.23-2.35-.44-3.76-0.48-5.18-0.14-4.22,0-8.48-.37-12.67-3.14-31.37,11.31-54.34,34.85-72.85,26.6-20.92,57.57-31.71,90.42-37.31,38-6.48,75.77-5.63,112.94,5.5,22.62,6.78,43.4,16.94,60.06,34.28a8.4,8.4,0,0,0,4.59,2.69c26.61,2.54,44.62,24.92,48.38,51.73,2,14.28-1.28,27.86-4.55,42.24l-5.3-2.46c-16.39-7.54-32.59-15.58-49.25-22.47-13.06-5.4-27.09-5.13-41-3.91a11.43,11.43,0,0,1-2.51.27c-11.73-1.72-17,4.89-22.05,14.5-5.31,10-6.66,17.93-.89,28.58s8.14,23.15,12,34.83a39,39,0,0,0,2.85,7.48c5.29,9,11,17.81,16.17,26.87,1.34,2.32,2.5,3.12,5.1,2.56,36.39-7.79,71.32-19.58,103.82-38a11,11,0,0,0,4.66-5.59c2.6-7.84,4.8-15.81,6.83-23.82,0.45-1.78-.13-4-0.77-5.85-9-25.6-15.83-51.72-18.55-78.75-1.89-18.75-1.76-37.45,4.4-55.66,8.76-25.86,30-39,57.12-35.22,22.59,3.15,42.57,12.8,61.61,24.73,37.18,23.28,68.55,53.23,97.23,86.06,14.76,16.9,28.59,34.62,42.72,52.07a70.64,70.64,0,0,1,5.71,9,76.65,76.65,0,0,0,18.52,21.77c19.87,15.87,33.63,36.85,45.95,58.74,21.25,37.76,36.2,78.11,48.53,119.51a1007.1,1007.1,0,0,1,31.57,147c8.81,62.53,13.46,125.35,12,188.54-1.32,57.43-6.52,114.42-21.19,170.16-7.86,29.84-17.91,58.88-36.33,84.2-9.5,13.05-20.77,24-36.6,29.23a53.13,53.13,0,0,1-5.9,1.44,26,26,0,0,1-3.26.23c38.77-100.48,44-205.18,43.51-310.65l-1.43-.2q-0.63,6.8-1.26,13.6c-0.42,4.54-.78,9.09-1.25,13.63-5.12,49.24-13.4,97.78-32.53,143.83-7.63,18.36-17.2,35.64-31.32,49.94-9.21,9.33-20,16.06-33.17,18.24a13.34,13.34,0,0,1-2,0c4-11.19,8.24-22,11.78-33.06,13.27-41.36,20.64-83.92,25.45-127a1096.78,1096.78,0,0,0,5.69-161.53c-1.24-34.41-4.1-68.75-6.23-103.13l-1.68.09c0.28,5.63.53,11.25,0.85,16.88,3,51.89,2.91,103.77-2,155.54-4.47,47.56-12.17,94.55-29.12,139.51-8.45,22.41-19,43.71-36.3,60.93-10.07,10-23,16.68-34.26,17,2.26-6,4.51-11.68,6.59-17.45,14.63-40.41,22.91-82.27,28.54-124.75,8.31-62.7,9.61-125.67,7.64-188.78a14.08,14.08,0,0,0-.74-2.07c-0.31,4-.6,6.84-0.72,9.64-2.07,48.91-7.52,97.38-19.72,144.89-7.5,29.23-17.24,57.68-34.38,82.94-10,14.79-22.06,27.39-39.76,33a41,41,0,0,1-4.91,1.23,36.08,36.08,0,0,1-3.95.28c30.32-75.65,39-154.78,41.93-235-1.44,7.31-2.8,14.63-4.33,21.91-6.73,31.88-16.1,62.86-32.34,91.36-10.25,18-22.61,34.32-41.47,44-6.55,3.37-14.28,4.45-21.48,6.58,0.53-1.53,1-3.11,1.61-4.6,4.44-10.4,9.33-20.63,13.3-31.2,11.92-31.76,19.16-64.72,24.24-98.19,1.24-8.2,2.27-16.43,3.3-24-10.87,8.37-21.17,17.37-32.52,24.74a78.18,78.18,0,0,1-39.06,12.51c54.27-75.66,63.27-160,52.59-248.69-49.89,3.25-155.8,68.7-187.57,115.41l6.14,5.85a207.83,207.83,0,0,1,34.63,43.48c22.93,38,34.38,79.42,36.12,123.63,0.12,3,.51,5.32,3.46,7.19,30.49,19.37,56.89,43.38,80,71C1274.49,1183.37,1276.09,1184,1277.4,1184.86Zm-59.23,158.29c3.4-4.67,3.38-8.29-1-13.45-6.1-7.23-12.36-14.34-18.89-21.18q-58-60.65-116-121.22a18.16,18.16,0,0,0-13.7-6.13c-22.81-.58-45.6-1.43-68.4-2.24-9.06-.32-11.61,2-11.68,11,0,5.85,0,11.69,0,18.54-1.68-1.51-2.51-2.24-3.33-3s-1.71-1.64-2.6-2.41c-18.1-15.7-40-21.07-63.12-23.12-2.16-.19-4.83,1.34-6.7,2.79a66.5,66.5,0,0,0-7.82,7.67c-12.72,13.78-25.26,27.74-38.12,41.39q-46,48.9-92.43,97.48c-5.62,5.85-6,12.22-5,19.14,0.9,5.86,6.46,7.89,8.86,6.8a11.27,11.27,0,0,1-1.37-4.93c-0.17-5.12-1-10,3.45-14.53q31.58-32.22,62.49-65.1c21.84-23.3,43.11-47.14,64.94-70.44,13.17-14,13.48-14,32.24-10.18,21.3,4.32,39.92,13.17,53,31.6,15.07,21.21,18.35,45,16.06,70-0.88,9.62-3.31,19.1-5,28.65,11-33.44,11.3-66.25-6.07-99.12,9.18,1.57,17.45,3,25.73,4.38,4.49,0.74,6.79,3.28,7,7.81,0.88,16.69,2.44,33.38,2.56,50.08,0.43,57.47.88,114.94,0.31,172.4-0.45,45.11-2.64,90.2-3.44,135.31-0.16,9.11-3.84,14.51-11.2,18.46a4.94,4.94,0,0,0-.43.27c-16.91,11.45-14.7,5.65-14.77,27.72,0,9.16,2.42,11.32,11.61,11,18.75-.62,37.5-1.22,56.24-1.9a38.58,38.58,0,0,0,5.5-1,12.31,12.31,0,0,0-6.14-1c-18.07.62-36.14,1.2-54.2,2-3.89.17-5.69-1-5.52-5.08,0.18-4.22-.31-8.49.2-12.66a9.85,9.85,0,0,1,3.24-6.08c6-4.65,12.53-8.61,18.49-13.29a10.38,10.38,0,0,0,3.62-6.61c1.16-15.84,2.27-31.7,2.72-47.58q4-145,.87-290c-0.23-11.1-1.74-22.19-2.84-33.26-0.41-4.14-3-6.76-7.13-7.5-9.63-1.72-19.25-3.53-28.93-4.9-3.94-.56-5.65-1.94-5.52-6.08,0.24-7.26.16-14.54,0-21.8-0.08-3.9,1.29-5.38,5.38-5.22,24,1,48,1.6,71.94,2.64a12.15,12.15,0,0,1,7.33,3.37c8.85,8.83,17.38,18,26,27q53.75,56.61,107.49,113.23c2.76,2.91,5,6,4.12,10.32l-5.93,26.09,2.19,0.41ZM799.71,1508.29c26.43,28.48,52.81,57.44,79.81,85.8,12.54,13.18,26.21,25.29,39.57,37.67,1.39,1.29,4.5,2.08,6.21,1.45,7.73-2.84,15.64-5.58,22.77-9.62,24.31-13.75,41.78-34,53.38-59.23,17.77-38.7,20.41-78.06,3.85-117.84-8-19.28-20.78-34.83-41.18-41.43-15-4.85-30.78-7.3-46.17-11-1.85-.44-4.88-2-4.85-3a9.71,9.71,0,0,1,2.91-6.09c1.62-1.53,4.16-2.13,6.36-3,7.22-2.86,14.67-5.21,21.65-8.55,23.8-11.38,42.45-28.12,52.45-53.1,7.58-18.93,9.33-38.73,6.26-58.77-2.56-16.67-9.07-31.7-20.91-44.18-11.45-12.07-26.06-17.62-41.76-21.27-16.78-3.91-16.86-3.9-28.59,8.64q-58.65,62.72-117.36,125.38c-3.12,3.33-6.27,6.64-9.4,10,5.89-3.85,11.14-8.34,16.74-12.34,5.88-4.21,9.89-2.47,10.94,4.73a143.23,143.23,0,0,1,1.76,19.17c0.34,34.47.63,68.95,0.53,103.42,0,16.72-.86,33.44-1.55,50.15-0.24,5.9-1.63,6.62-7.45,5C803.46,1509.61,801.27,1508.8,799.71,1508.29Zm378.62-60.92c9.38-1.3,9.29-1.31,9.24-9.78-0.09-16-.19-32.09,0-48.14,0.07-7.66-.86-8.89-9.24-9.38-0.41,4.5-.69,9-1.27,13.53-0.93,7.31-4.57,11.08-11.72,10.31-19.61-2.13-39.14-5-58.72-7.36-4.67-.57-6.13-2.69-6-7.33,1.05-43.43,1.89-86.86,2.9-130.28,0-1.78,1.22-3.53,1.87-5.3,1.8,0.69,3.92,1,5.34,2.12,10.5,8.51,21.27,16.75,31.16,25.93,17.45,16.19,34.44,32.88,51.34,49.65,2.43,2.41,3.88,6.28,4.69,9.74,1,4.23.88,8.72,1.12,13.11,0.33,5.93,2.54,8.26,8.36,8.91,1.44-6.78,3-13.51,4.19-20.3a7.12,7.12,0,0,0-1.44-5.27c-11.07-12.31-22.13-24.63-33.57-36.59q-49.36-51.64-99.08-102.92a10.53,10.53,0,0,0-6.46-2.79c-15-.8-30-1.37-45.07-1.81-7.84-.23-15.69,0-23.88,0,0,5.32.17,10.72-.06,16.11-0.14,3.25,1.11,4.41,4.25,4.83,7.52,1,15,2.47,22.5,3.58,9.07,1.35,14.36,6.53,15.28,15.56,1.13,11.07,2.46,22.2,2.5,33.3,0.34,77.59.81,155.18,0.31,232.76-0.23,35.13-2.5,70.25-4.12,105.36a12.3,12.3,0,0,1-3.83,7.67,126.82,126.82,0,0,1-14.5,11c-7.66,5.15-8.57,7.16-6.23,16.79,0.93,0,1.92.17,2.9,0.14,16.55-.56,33.11-1,49.65-1.84a11.92,11.92,0,0,0,7.28-3.27c14.73-15.13,29.24-30.47,43.77-45.79q42.9-45.21,85.72-90.5c1.79-1.9,4.07-4.21,4.33-6.53,1.19-10.35,1.74-20.78,2.51-31.18-6.75,2.25-6.71,2.26-8.22,8.55-1.9,7.88-3.67,15.8-6,23.56a18.09,18.09,0,0,1-4.69,8q-42.4,38.46-85.13,76.54c-1.23,1.1-3.48,2.18-4.75,1.75-1.09-.37-2-2.9-2-4.48q-1-73.51-1.72-147c0-3.93,1.51-5.57,5.51-6.23a230.78,230.78,0,0,1,57.58-1.83c8.23,0.7,11.2,3.09,12.14,11.24C1177.6,1436.6,1177.88,1441.82,1178.33,1447.37Zm39.92-36.67c-0.31,6.34-.76,12.07-0.73,17.79a4.92,4.92,0,0,0,2.67,3.7c12.25,3.91,17,11.94,15,24.79-1.63,10.84-2.93,21.76-3.71,32.7-0.5,7.1-2.55,13.08-7.48,18.26-6.53,6.85-12.87,13.87-19.11,21a18.85,18.85,0,0,0-3.62,6.48c-3.31,10.29-5.21,21.21-9.81,30.86-7,14.61-7.29,28.25-.56,42.9,4,8.77,6.31,18.35,9.67,28.46,53.8-66.7,78.62-142.62,81.68-226.93h-64ZM804,1627.89c0.42-1,.87-1.82,1.16-2.72,5.93-18,11.75-35.95,17.84-53.85,1.15-3.39.58-5.57-1.87-8.06-13.48-13.74-26.78-27.67-40.2-41.47-14.9-15.33-11.42-33.84,8.56-42.29v-68.62H729.64C724.57,1471.14,766.88,1594.6,804,1627.89Zm404.22,32.7c44.43-36.11,77.25-79.8,99-131.71a329.52,329.52,0,0,0,25.56-118.18h-44.39c-0.15,1.69-.25,3.17-0.43,4.63-2.66,22.62-3.84,45.53-8.29,67.79-11.74,58.75-36.2,111.86-74.57,158.26-1,1.24-1.9,3.4-1.55,4.82C1204.62,1650.74,1206.35,1655.13,1208.18,1660.58Zm-412.68-6.35c1.88-5.58,3.76-10.26,4.95-15.11a8.86,8.86,0,0,0-1.08-6.31c-4-6-8.68-11.65-12.73-17.67-35.42-52.71-55.12-111-61.38-174-1-10-1.52-20.12-2.28-30.3H678.57c1.89,46.42,12.13,90.33,31.78,131.92A330.86,330.86,0,0,0,795.5,1654.23Zm68.64-539.38c-60.32,44.9-97.67,104.53-119.49,175.72,10.7,0,20.6-1,30.22.23,14.88,1.91,25.83-2.81,34.73-14.74,3.57-4.79,6.74-9.23,8.58-15.08,5.23-16.58,10.61-33.16,17-49.3a312.94,312.94,0,0,1,42.42-74.9Zm402.56,175.72c-21.9-71.58-59.49-131.32-120.19-176.18-2.57,5.63-4.55,10.46-7,15.07-1.74,3.34-.9,5.63,1.11,8.63,8.74,13,17.83,25.91,25.45,39.59,18.86,33.9,31.34,70.29,39.59,108.13,0.8,3.67,2.09,4.95,5.91,4.86,11.32-.27,22.65-0.1,34-0.1h21.12Zm48.49,0a328.07,328.07,0,0,0-66.75-115,324,324,0,0,0-96.33-74.46c-0.67,3.84-5.43,6.32-.28,10,28.37,20.49,52,45.62,71.8,74.4,21.26,30.88,36.81,64.47,47.87,100.23,0.55,1.77,2.26,4.51,3.49,4.55C1288.11,1290.69,1301.26,1290.56,1315.19,1290.56Zm-619.29,0c14.08,0,27.23.09,40.38-.15,1.13,0,2.71-2,3.27-3.43,7.47-18.82,13.72-38.2,22.35-56.47,22.08-46.75,53.57-86.22,95-117.49,1.32-1,2.59-2,4.08-3.23l-4.58-7.49C778.72,1144.56,725.65,1207,695.9,1290.56ZM1104.09,518c-7.34,9.64-14.31,18.62-16.87,30.55,35.48,0.1,67.32,10.08,96.45,29.77a72.27,72.27,0,0,0,2-36.66c-4.88-25.19-24.12-43.06-49.28-40.37a10.22,10.22,0,0,1-6.11-1.51q-10.87-6.93-21.38-14.41c-5.66-4-11.65-6.79-18.75-6.3-11.94.82-23.88,1.73-35.82,2.57-6.61.46-13.22,0.85-21.34,1.37,7.11,4.57,12.91,8.24,18.64,12,8,5.27,16.26,10.29,23.95,16,6.47,4.84,13.15,8.07,21.36,7.44C1099.07,518.34,1101.17,518.22,1104.09,518Zm95.6,772.86c-11.07-55-30.63-105.46-64.63-150.83-5.19,11.71-9.31,22.46-14.62,32.58-4.62,8.81-6.15,17.1-1.63,26.3,1.61,3.28,2,7.15,3.24,10.63a16.16,16.16,0,0,0,3.24,5.6q35,36.65,70.23,73.12C1196.63,1289.43,1198.29,1290,1199.69,1290.89ZM1019.58,1572l-0.92-.24c-0.59,1.11-1.21,2.2-1.77,3.32-10.45,20.63-24.31,38.62-42.73,52.62-5.23,4-6.67,7.38-5.44,13.68,4.81,24.53,9.29,49.14,19.58,72.14a62.56,62.56,0,0,0,9.16,14.44c4.46,5.31,9.57,5.16,14.38.1a42,42,0,0,0,6.14-8.62c8.51-15.39,12.52-32.35,16.7-49.23,0.87-3.5,1.45-7.06,2.19-10.74-4.6,0-8.46-.05-12.31,0-4.05.07-8.1,0.38-12.15,0.39-11.5,0-19.55-7.44-20.17-18.92-0.3-5.56-.21-11.15-0.09-16.72a20.62,20.62,0,0,1,10-17.77c4.25-2.75,8.59-5.39,12.71-8.32,1.39-1,3-2.66,3.19-4.16C1018.79,1586.73,1019.1,1579.37,1019.58,1572Zm313.32-167.67c0.28-27.44-1.94-54-8.44-80.63-2,1.31-3.41,2.18-4.76,3.14-10.19,7.24-20.29,14.61-30.6,21.67-3.06,2.1-3.93,4.34-3.65,8,1.1,14.48,1.84,29,2.73,43.47,0.09,1.44.26,2.87,0.41,4.38h44.32Zm-508-146.06,1.1,0.59,75.89-82.74-21-34C854.53,1177.75,837.14,1216.78,824.91,1258.29Zm-139.29,71.16c-5.13,25.18-7.8,49.62-6.92,74.68h43.9c0.92-14.93,1.86-29.37,2.6-43.83a5,5,0,0,0-1.83-3.69C711.14,1347.68,698.79,1338.89,685.62,1329.45Zm13.74-17.62,0.31-1h4.81c21.13,0,42.28-.57,63.37.28,8.76,0.35,12.41-4.66,17.53-10.44H662l128,91.44c0-5.11.16-9.14-.09-13.14a5.27,5.27,0,0,0-2-3.7c-6-3.68-12.14-7-18.17-10.63a49.72,49.72,0,0,1-6.93-4.93c-4.56-3.92-8.67-8.42-13.47-12-11.38-8.48-23.06-16.54-34.6-24.8C709.61,1319.26,704.49,1315.54,699.37,1311.83ZM921,1655c3.57,6.66,7.19,13.9,11.25,20.88,10.45,17.94,22.61,34.53,40,46.39,5.78,3.93,12.37,6.66,18.59,9.94-18.13-29.58-21.95-62.75-28.95-94Zm286.44-354.52c4.54,7.1,9.24,10.85,17.87,10.6,25-.71,50-0.26,75.06-0.24,1.4,0,2.8.18,5.14,0.34-2.11,1.63-3.38,2.69-4.72,3.65q-34.26,24.44-68.51,48.88c-2.15,1.54-5.19,3.22-5.74,5.36-2.58,10.17-8.94,15.55-19.58,16.79l-0.47,10,132-94.34-0.62-1H1207.45Zm-109.15,339.9c-3.1,3.3-6.3,6.51-9.27,9.92a22,22,0,0,1-17.39,7.84c-7.42,0-14.85.51-22.27,0.32-4.63-.12-6.63,1.24-7.65,6.12-4.89,23.26-10.21,46.43-24.31,66.89,9.43,0.64,16.67-3.7,23.5-8.47C1070.11,1702.64,1085.39,1672.33,1098.3,1640.41ZM969.46,1380.53c12.25,4.89,22.87,11,31,20.16,7.91,8.88,14.67,18.79,21.23,27.34V1304.88C1014.23,1336.71,997,1361.59,969.46,1380.53Zm75.5,347.86c41-12.27,70.44-39.47,95.37-73.19L1109,1633C1094,1669.48,1077.13,1704.07,1045,1728.39ZM806.85,1504.47c4.24-23.49,3.12-161.73-1.46-172.13l-6.31,4.56c3,9.17,3.43,143.85.51,157.59-1.72-.74-3.35-1.53-5-2.14-4.37-1.56-9.27.52-10.11,4.8-1.09,5.53-1.1,10.82,3.37,15.56,29.12,30.82,57.81,62,87.19,92.61,11.55,12,24.44,22.76,36.94,33.84,2,1.74,5.39,3.43,7.68,2.94,7.19-1.53,14.16-4.11,21.21-6.29l-0.37-1.17c-4.89,1.59-9.83,3-14.66,4.81-3.18,1.16-5.82.89-8.41-1.36-7.9-6.86-16.52-13-23.71-20.53q-50.06-52.38-99.38-105.47c-1.71-1.83-2.55-5.06-2.67-7.69-0.22-4.82,1.54-5.71,5.89-3.81C800.58,1501.9,803.67,1503.15,806.85,1504.47Zm314.4-130.57c8.37,1.16,16.87,2.17,25.31,3.57,4.68,0.78,6.54-.25,6.71-5.48,0.33-10.62,6.09-16.84,16.62-19.31,1.1-.26,2.19-0.61,3-0.85,1.34-6.18-.4-10.75-4.83-14.78-6-5.45-11.44-11.47-17.33-17a9.88,9.88,0,0,0-5.63-2.79c-6.74-.34-13.51-0.29-20.25,0-1.25.05-3.47,1.88-3.48,2.9C1121.2,1337.82,1121.26,1355.52,1121.26,1373.91Zm-7.7,250.45,93.1,66,1-.72L1167.8,1569c-7.1,4.06-7.8,8.65-5.34,15.59,8.17,23.08,15.51,46.46,23.15,69.72,0.57,1.74,1,3.52,1.53,5.29l-1,.44-63.73-45.17ZM973.19,1182.23l28.82-88c1.21,3.45,1.9,5.31,2.52,7.2q10,30.3,19.89,60.61c2.44,7.42,3.42,7.89,12.25,5.83l-35.33-108-1.13.06L962,1177.22ZM816.46,1661.17c0.73-2.52,1-3.79,1.46-5,7.31-22.12,14.66-44.23,21.87-66.39,0.56-1.73,1-4.28.14-5.54-2.09-3.11-5-5.7-8.11-9.15L794,1689.68l1,0.71,86.44-61.34c-6.75-9.22-6.74-9.19-15-3.29C850.14,1637.31,833.88,1648.82,816.46,1661.17ZM872,1647.63c24.57,35.6,53.73,64.48,94.82,79-3.12-3.28-6.67-6.08-9.93-9.17-17.93-17-30.37-37.85-41-59.91-0.79-1.64-1.55-3.62-2.92-4.59-8-5.62-16.11-11-24.78-16.84Zm344.74-151.35,1.68,0.33a16.28,16.28,0,0,0,1-3.08c1.63-13.58,3.27-27.15,4.76-40.74,0.74-6.71-5.07-10.89-11.26-8-4.29,2-8.69,4-12.4,6.83a18.57,18.57,0,0,0-6.39,8.42c-2.67,8.52-4.31,17.36-6.65,26a12.94,12.94,0,0,1-3.44,5.94q-35.17,32.15-70.56,64.06a14.52,14.52,0,0,1-2.46,1.45,8.54,8.54,0,0,1-.31-1.38q-0.49-61.61-1-123.22c0-3.68,2-4.26,4.72-4.33,14.85-.34,29.7-0.56,44.55-0.93,3.48-.09,4.7,1.49,4.88,4.8,0.31,5.74.83,11.47,1.44,17.18,0.48,4.5,3.29,7.73,7.66,7,6.44-1,12.67-3.37,19-5.15l-0.36-1.16c-4.16,1.26-8.32,2.53-12.49,3.78-4.82,1.44-6,.62-6.44-4.46-0.54-5.88-1.28-11.75-1.62-17.65-0.25-4.28-2.49-6.08-6.46-6-16.86.27-33.73,0.63-50.59,0.91-4.78.08-6.4,2.13-6.35,7.14,0.33,35.5.26,71,.46,106.49,0.06,9.87.61,19.75,1,30.55,2.1-1.65,3.44-2.58,4.65-3.67,21.91-19.6,43.46-39.63,65.85-58.66,10.9-9.26,17.93-19.87,19.2-34,1-10.86,6.18-18.14,16.65-21.44a50.31,50.31,0,0,1,5.65-1.12c0.26,2,1,4.12.72,6.1C1220.17,1470.91,1218.41,1483.59,1216.71,1496.28Zm-107.29-234.17c-0.24,2.32-.47,3.59-0.5,4.86-0.53,23-1.1,45.95-1.54,68.92-0.32,16.72-.56,33.45-0.59,50.18,0,1.63,1.54,4.53,2.68,4.69,18.36,2.62,36.78,4.86,55.18,7.26,4.2,0.55,5.94-1.69,6.39-5.34,0.62-5,1.09-10.07,1.55-15.12,0.49-5.41,1.5-6.1,6.76-4.3,2.72,0.93,5.34,2.23,8.13,2.84,5.1,1.12,6.37,4,6.29,9.08-0.3,19.42-.09,38.84,0,58.26a32.23,32.23,0,0,0,.39,3.56,4.49,4.49,0,0,0,1.55-3.19q0.06-32.68,0-65.36c0-3.94-1.79-6.81-5.57-8.22-4.74-1.77-9.46-3.63-14.28-5.17-5.5-1.76-9.82,1-10.58,6.75-0.53,4-.71,8.08-1.09,12.11-0.62,6.65-.73,7-7.23,6.26-14.08-1.61-28.11-3.74-42.2-5.25-5.11-.55-6.15-2.8-6-7.52,0.85-35.13,1.44-70.27,2.14-105.4a17.87,17.87,0,0,1,.6-2.79c25.11,21.31,49.36,42.54,71.09,66.47a10,10,0,0,1,2.06,5.46c0.56,5.54.65,11.13,1.13,16.68,0.64,7.41,18,18.06,25.25,15.37a35.3,35.3,0,0,0-4.85-2.68c-10.68-3.88-14.76-11.4-13.5-22.61,0.68-6.07-1.64-11.38-6.34-15.77-18.76-17.51-37.26-35.29-56.07-52.75C1123.82,1273.51,1116.83,1268.26,1109.42,1262.12ZM841.6,1669.24c31.44,27.53,66.12,47.22,106.23,57-33.82-17.6-59.35-44.08-80.68-75.2Zm438.84-313a11.24,11.24,0,0,0-2.59.59c-19.23,13.69-38.47,27.34-57.56,41.22-1.44,1-1.72,3.67-2.62,5.75a14.9,14.9,0,0,0,2.54.72c19.39,0,38.79,0,58.18.1,3.3,0,3.94-1.56,3.82-4.38C1281.58,1385.76,1281,1371.28,1280.44,1356.22ZM1020.9,1070.11c3.37,7.6,6.83,14.38,9.44,21.48,8.67,23.56,13.34,48.11,17.41,72.79,0.51,3.11.93,5.86,5.51,4.4,0.15-1.39.39-2.85,0.47-4.33,1.06-21.43,1.87-42.88,3.3-64.28,0.37-5.54-1.21-9.18-5.28-12.62C1042.66,1079.87,1033.08,1073.21,1020.9,1070.11Zm40.64,67a24.5,24.5,0,0,0,1.51-2.37q13.79-31.25,27.55-62.51c2.81-6.37,2.11-11.81-2.2-16.42a12.8,12.8,0,0,0-14.38-3.08c-6,2.47-8.5,7.36-8.82,13.58C1064,1089.55,1062.79,1112.8,1061.54,1137.1Zm30.32,6a2.73,2.73,0,0,0,.92-0.62c9.61-21.58,19.26-43.15,28.75-64.79,2.42-5.51,1.13-10.65-3-14.94-3.87-4-8.61-5.38-13.86-3.28-5.48,2.19-8.54,6.45-9.06,12.37-0.27,3-.32,6.07-0.48,9.1Q1093.5,1112,1091.86,1143.12Zm29.41,8.33c10-22.35,19.67-43.88,29.31-65.42,2.53-5.64,1.62-11.89-2.35-16s-8.72-5.72-14.24-3.41c-5.93,2.47-8.62,7.24-9,13.45-0.26,4.21-.3,8.43-0.53,12.64C1123.43,1112.08,1122.36,1131.43,1121.27,1151.45Zm-197-10.81,0.7-.33c-4.45-23.47-8.74-47-13.46-70.39-1.22-6-6.12-9.21-12.07-10.08-5.19-.76-9.21,1.79-12,6-3.3,5-3.17,10.26-.13,15.26,6.39,10.52,13,20.92,19.48,31.37Q915.53,1126.54,924.26,1140.64Zm-27.87,13.14c-4.53-24.32-8.79-47-13-69.74-1.23-6.68-6.09-11.92-12.11-12.62-5.32-.61-9.73,1.09-12.68,5.67a13.47,13.47,0,0,0-.16,15.28c5.64,9.22,11.38,18.39,17.06,27.59C882.24,1130.83,888.95,1141.72,896.38,1153.78Zm56.26-23.91,0.74-.15c-1-5.1-2-10.19-3-15.3-3.4-18-6.71-36.08-10.19-54.1-1.17-6.05-5.06-9.8-11-11.18-5.55-1.28-10.06.78-13.16,5.34-3.43,5.05-3.3,10.47-.29,15.73,1.67,2.92,3.67,5.65,5.43,8.52Q936.92,1104.28,952.64,1129.87ZM788.73,1404.29l0.27-1-58.32-41.63-1.87,42.59h59.91Zm386.19,240.27,0.77-.8-19.76-59.87-29.13,26.51Zm-29.78,14.06c-19,25.91-40.85,47.86-69.61,63.94,20.78-2.6,81-36.8,89-50.14Zm141.49-341.29h-63.57a26.89,26.89,0,0,0,1.64,2.44c7.05,8.1,10.28,16.8,5.46,27.44-1.49,3.28-1.48,7.24-2.4,12.2Zm-133.92,129.6c-7.63,3.38-8,4.28-8.66,11.73-0.85,9.21,3.49,17.06,5.95,25.4,1.73,5.87,3.88,11.63,6.15,18.34,10.17-10.88,24.35-17.66,23.1-34.85C1163,1469.28,1158.34,1465.68,1152.71,1446.92Zm-150.6-333.23-18.91,57.81c11.81-8.67,24.27-2.15,36.32-4.54Zm-49.54,59.72c7.78-17.4,7.78-17.4-1.8-33-1.85-3-3.65-6.06-5.52-9.06-2.54-4.07-5.12-8.12-7.68-12.18l-1.93-.19c-1.57,4.71-4.62,9.49-4.37,14.1,0.44,8.33,3.83,16.5,4.2,24.82,0.49,11.09,6.3,15.12,16.2,15.69A6.43,6.43,0,0,0,952.57,1173.41Zm32.44-100a1.37,1.37,0,0,0-.76-0.16c-11.23,4.83-20.34,12.56-28.7,21.26a4.18,4.18,0,0,0-.89,3.19c2.62,14.25,5.37,28.47,8.08,42.7l0.82,0.1Zm71.36,95.47,27.53,2.29c0.52-10.66.77-21.79,1.72-32.85,0.64-7.44-4.14-11.89-7.52-18.6ZM828.59,1643.61l0.93,0.79L869,1616.35l-23.17-25.19Zm317.91-205c-6.83,0-12.05-.2-17.26.06a8.53,8.53,0,0,0-8.18,9.34,136.55,136.55,0,0,0,3,19.25c1.54,6.38,4,12.54,6,18.79,3.33,10.06,6.68,20.12,10.06,30.27,8.21-5.27,8.37-5.6,5.75-13.74-1.86-5.78-3.85-11.52-5.74-17.28q-5.58-17-11.12-34Zm-223.24-50.46c11.78,2.75,22.76,5,33.59,7.9,23.8,6.31,40.87,20.91,51.57,43,14.93,30.79,16.66,62.94,9.65,95.95-0.8,3.78-1.82,7.51-2.74,11.27a2.36,2.36,0,0,0,1.55-1.6c10.75-36.27,9.91-72-5.27-107-6.59-15.17-16.4-27.9-30.21-37.31-11.23-7.65-24-11.53-36.95-14.77-2.47-.62-5-2.58-7.23-2.16C932.7,1384.31,928.39,1386.35,923.27,1388.15ZM768,1317.46H717.74l39.9,28.5C755.79,1333.66,759.91,1324.93,768,1317.46Zm344.69-138.63,0.75-.19c0.94-18.9,1.95-37.8,2.73-56.7,0.08-2-1.16-4-1.78-6a291.71,291.71,0,0,0-14.24,29.37,4.15,4.15,0,0,0-.17,2.9C1104.14,1158.42,1108.42,1168.62,1112.67,1178.82Zm-15.33-23.19-1.67.1c-1.34,2.88-2.67,5.76-4,8.63-5,10.67-5.16,10.81,3,19,6.1,6.15,12.64,11.87,19.36,18.14Zm-195.13-37.27c-3.61,2-4.41,4.25-3.64,7.78,1.73,7.9,3,15.91,4.5,23.87,1,5.1,2,10.17,3.28,16.31,3.57-8,6.67-14.93,9.64-21.88a4.22,4.22,0,0,0,.12-3.27C911.59,1133.53,906.89,1126,902.21,1118.37ZM1122,1480.85v52c4.5-4.07,8-7,11.13-10.22a5.16,5.16,0,0,0,1-4.3C1130.27,1505.84,1126.14,1493.41,1122,1480.85ZM835.77,1673.29l-7.26,5.64a325.49,325.49,0,0,0,54.41,28.75Zm342.35,9.58c-7-6.81-6.76-6.54-13.34-1.69-10.57,7.79-21.43,15.18-32.17,22.73-1.24.87-2.55,1.64-3.83,2.46l1,1.59Zm15-139.72-1.06-.56c-5.19,5.49-10.4,11-15.54,16.5a3,3,0,0,0-1,2.2c1.58,5.3,3.33,10.55,5,15.82l1.25-.18Zm-281-375.25,21.32,1.23-12.85-20.78Zm209,142.68h20.45c-6.71-4.91-10.31-12.89-19.92-9.52Zm86,100.08v23c4.81-1.58,6.63-12.8,4.34-23h-4.34Zm-186.5-329.8-2.06.55,15.24,46.77,1.65-.53Zm-95.85,19.6,3.8,19.2C934.65,1112.34,935.56,1114.66,924.77,1100.46Zm161.59,20,1.12-19.94C1079.54,1114.17,1079.9,1113.53,1086.36,1120.47Zm-119.62-44.15v-1c-3.36,1.32-6.77,2.55-10.08,4-5.62,2.45-5.59,2.5-3.27,8.57Zm77.2-2.49,13.17,10.28C1058.35,1077.4,1055.56,1075.26,1043.95,1073.83Z"/><path d="M817.7,209.29l38.13-47.65a76.35,76.35,0,0,0-8,1c-4,1-5.56-.81-6-4.57-0.61-5.2-1.31-10.4-2.25-15.55-0.66-3.61.49-5.31,4.19-5.84q31.35-4.49,62.66-9.21c3.14-.47,4.34,1,4.75,3.78q1.3,8.78,2.62,17.55c0.46,3-1.22,3.89-3.84,4.8-4,1.39-8.71,2.66-11.43,5.57-11.18,11.95-21.72,24.49-33.46,37.93,5.14,4.73,10.22,9.12,15,13.83,12,11.87,24,23.76,35.79,35.91,4.53,4.69,9.53,6.82,15.87,5.56,3.61-.71,5.37.54,5.78,4.27,0.59,5.37,1.41,10.72,2.28,16.06,0.54,3.34-.55,5-4,5.51-22.73,3.28-45.47,6.58-68.16,10.12-5.07.79-7.1-.87-7.49-5.84s-1.26-9.71-2-14.55c-0.52-3.36.75-5.09,4.19-5.46,2.65-.29,5.27-0.92,9.3-1.65l-32-33.81c-5.35,6.18-10.52,12.08-15.56,18.07a4.08,4.08,0,0,0-.49,2.87c0.67,4.85,1.46,9.69,2.26,14.52,0.57,3.47,2.7,4.89,6.14,4.45,0.33,0,.67,0,1-0.08,11.31-1,11.42-1,13,10.14,2.39,17,3.88,13.54-12,16.09-18.85,3-37.78,5.5-56.64,8.47-4.84.76-6.84-.73-7.26-5.52-0.44-5-1.32-10-2.14-15-0.51-3.15.59-4.63,3.82-5.15,12.75-2,13.42-.33,11-16.43-3.9-26.06-7.73-52.13-11.71-78.18-0.9-5.86-2.32-6.71-8.21-6.14-10.15,1-10.43,1-11.73-8.93-2.39-18.38-5.4-14.8,13.28-17.75,18-2.84,36.1-5.32,54.15-8,6.56-1,7.27-.52,8.2,6,0.67,4.68,1.39,9.35,2.11,14,0.49,3.21-.46,5.18-4,5.56-12.5,1.32-13.3,1.57-11,16C815.07,190.59,816.24,199.26,817.7,209.29Zm87.78-75.55-59.85,8.74,2,13.89c1.9-.21,3.45-0.73,4.83-0.45,2.78,0.57,6.69.81,7.86,2.64s0.45,6.14-1.07,8.1c-13.15,16.94-26.64,33.62-40.15,50.28a5.4,5.4,0,0,1-4.17,1.81c-0.93-.13-2.09-2.14-2.29-3.45-2.09-13.69-4.19-27.38-5.9-41.12-0.89-7.13,2.78-11.48,9.86-12.93,1.93-.39,3.85-0.81,6.1-1.28l-2.34-13.77-64.87,9.64,2,13.43a24,24,0,0,0,2.41.18c13.41-.54,15.46,1.07,17.51,14.15q3,19.27,5.89,38.55c2.21,15,4.4,30.08,6.41,45.14,1,7.24-1.82,11.06-8.95,13-2.08.57-4.19,1-6.79,1.68l2.2,13.54,65-9.51c-0.43-2.88-.74-5-1.08-7.2s-0.7-4.24-1.1-6.62c-2,.17-3.67.27-5.32,0.45-8.83,1-12.62-1.79-14.1-10.47-0.79-4.66-1.62-9.32-2.08-14-0.18-1.87-.06-4.35,1-5.68,5.72-7.09,11.79-13.91,17.74-20.82,2.11-2.45,4.23-2.42,6.42-.09,3.71,3.93,7.45,7.83,11.16,11.77,7.07,7.49,14.29,14.85,21.13,22.55,4.6,5.17,3.1,9.23-3.62,11-2.24.6-4.53,1-7.1,1.56l1.88,13.88,67.39-10c-0.57-4.37-.86-7.89-1.58-11.33-0.2-.95-1.77-2.41-2.55-2.31-9.16,1.13-14.75-4.65-20.4-10.29q-23.3-23.29-46.55-46.63c-4.6-4.61-4.62-5.3-.21-10.4q13.59-15.72,27.19-31.44c4.87-5.66,9.74-11.26,18.14-12.36Z"/><path d="M840.17,240.21l14.33,15.06-3.15,3.57-17.4-2C831.08,249.83,831.78,247.63,840.17,240.21Z"/><path d="M823.42,188.34l-1.83-11.87,17.5-7.83Z"/><path d="M1146.15,166.16l-4.86,30.35c1.39,0.34,2.66.71,3.94,1,12.5,2.41,14.38,1.07,16.3-11.55,1-6.48,1.7-6.94,8.31-5.71,3.82,0.71,7.64,1.44,11.5,1.82,4.2,0.41,5.38,2.42,4.71,6.46-2.38,14.33-4.56,28.68-6.82,43-0.76,4.84-1.59,9.66-2.28,14.51-0.42,3-2,4.09-4.9,3.63-5.33-.85-10.67-1.68-16-2.56-2.93-.48-4-2.21-3.24-5.1a8.6,8.6,0,0,0,.21-1c2.14-14.76.35-16.84-15.37-17.56a13.56,13.56,0,0,0-1,2.61c-1.54,9.51-3.08,19-4.5,28.54-0.36,2.43-1.07,5.22,2.85,5.7,8.55,1,17.06,2.79,25.63,3.1,19.17,0.69,32-9.66,41.41-25.3,3.41-5.68,3.49-5.75,9.38-2.67,4.34,2.27,8.65,4.6,13,6.91,2.71,1.45,3.42,3.27,1.82,6.19-8.7,15.85-17.35,31.72-25.81,47.7-1.74,3.29-4.11,3.53-7.14,3q-42.53-6.74-85.07-13.46c-11.85-1.87-23.69-3.83-35.57-5.48-4.06-.57-5.08-2.49-4.4-6.2,0.94-5.15,1.82-10.32,2.45-15.51,0.45-3.7,2.22-4.89,5.8-4.34,14.73,2.27,12.65.71,14.58-10.86,4.29-25.65,8.21-51.37,12.24-77.07,1.41-9,.82-9.73-8.13-11.27-7.81-1.34-7.83-1.34-6.7-9.3,0.59-4.18,1.44-8.33,1.87-12.53,0.41-4,2.25-5.09,6.11-4.46,18.34,3,36.71,5.75,55.07,8.62,19.7,3.08,39.36,6.35,59.1,9.15,5.14,0.73,7.66,2.64,8.56,7.88,2.39,13.81,5.19,27.56,8,41.3,0.79,3.9-.07,6.12-4.35,6.74-5.18.75-10.31,1.85-15.45,2.86-3.2.63-5.19-.34-5.94-3.71a58,58,0,0,0-2-6.26c-4.75-13.76-13.88-22.49-28.56-24.91C1162.78,169.08,1154.69,167.63,1146.15,166.16Zm61.75,74.24c-0.93,1.4-1.56,2.38-2.21,3.35-6.54,9.7-14.48,17.83-25.6,22.24-16.9,6.71-33.62,2.77-50.17-1.41-1.87-.47-4.2-4.89-3.93-7.19,1.45-12.39,3.67-24.7,5.59-37,0.46-3,2.19-4,5-3.46,4.81,0.9,9.66,1.63,14.41,2.77,5.2,1.25,8.32,5.23,8.57,10.6,0.17,3.66,0,7.34,0,11.23l11.73,1.9,8.65-55.7-12.07-1.49-2.06,8c-1.83,7.15-5.69,10.37-13,10.09a140.11,140.11,0,0,1-14.08-1.66c-3.48-.49-4.22-2.8-3.71-5.93q2.6-16,5.09-32c0.53-3.38,2.06-5.11,5.81-4.44,10,1.78,20,3.07,29.92,5.18,13.42,2.86,22.22,11.52,27.6,23.87,1.34,3.08,2.4,6.27,3.78,9.91l13.86-2.83c-2.67-13.58-5.34-26.64-7.73-39.75-0.59-3.25-2.39-3.89-5.15-4.32-29.19-4.56-58.36-9.25-87.55-13.84-8-1.25-15.94-2.29-24.37-3.5l-2.08,13.58c15.65,3.53,16.8,5.06,14.57,20.54-2,13.87-4.27,27.7-6.43,41.55-2,13-4,26-6.14,39-1.56,9.46-5.46,12.3-15,11.39-1.45-.14-2.92,0-4.61,0l-2.24,13.17c7.36,1.28,14.44,2.63,21.54,3.74,29.2,4.54,58.41,9,87.61,13.52,11.49,1.79,11.54,1.94,17.14-8.27,6.55-11.93,13-23.94,19.59-36.22Z"/><path d="M1145.51,253.11l-4.25-.73,2.87-17.16Z"/><path d="M1770,606.32L1739.88,615c1.56,4.45,2.53,8.76,4.61,12.45,0.94,1.67,4,2.77,6.2,2.95,2.4,0.19,4.95-.87,7.37-1.58,6.78-2,7-1.92,8.88,4.56,1.23,4.21,2.35,8.46,3.63,12.66,0.92,3,.07,4.79-3.08,5.67q-28.3,7.91-56.55,16c-3.43,1-5.45,0-6.31-3.62-1.13-4.76-2.41-9.5-3.94-14.15-1.14-3.46.07-5.14,3.34-5.87,0.66-.15,1.3-0.36,2-0.55,12.94-3.72,14.69-8.18,7.81-21.27-10.53,3-21.21,6-31.82,9.23-1,.3-2.34,2.33-2.11,3.18,3.63,13.82,5.92,28.25,16.65,39.06,8,8,18,11.82,28.93,13.26,10.23,1.35,9.15.9,8.56,10.41-0.24,3.88-.55,7.76-0.58,11.64,0,3.52-1.62,4.79-5,4.57q-27.32-1.83-54.64-3.5c-3.5-.21-4.3-2.51-5.07-5.29q-9.54-34.16-19.2-68.27c-4.57-16.25-9-32.54-13.76-48.74-1.19-4-.2-6,3.77-7,5.07-1.29,10.12-2.69,15.1-4.28,3.27-1,5.18-.22,6.07,3.13,3.81,14.43,4.8,12.26,17.16,8.81q37.32-10.43,74.6-21c8.49-2.41,8.83-3.18,6.45-11.76-0.36-1.3-1.28-2.72-1-3.85,0.43-1.76,1.31-4.33,2.62-4.81,5.71-2.06,11.64-3.49,17.49-5.13,3.79-1.06,4.62,1.55,5.39,4.32,5.63,20,11.32,40,16.93,60,5,17.72,9.79,35.49,14.87,53.18,0.94,3.28.45,5.33-2.37,7.32-12.27,8.68-24.46,17.49-36.62,26.33-2.79,2-4.82,1.67-6.77-1.16-3.16-4.59-6.37-9.16-9.78-13.57-2.05-2.66-1.22-4.3.89-6.42,4.26-4.3,8.62-8.6,12.2-13.45,5.3-7.19,6.36-15.6,4.41-24.19C1775,624.92,1772.47,615.86,1770,606.32Zm-9.15,28.17c-3,.63-5.58,1.26-8.21,1.72-7.14,1.25-11.87-1.17-14.55-7.84-1.7-4.22-2.93-8.63-4.26-13-0.94-3.08-.13-5.1,3.35-6,10.6-2.83,21.18-5.75,31.69-8.91,3.91-1.18,5.64.13,6.63,3.74,2.08,7.65,4.33,15.25,6.46,22.89q7.3,26.18-12.67,44.66c-1.34,1.24-3.2,1.9-4.82,2.83l9.19,12.63c11-7.9,21.5-15.59,32.21-22.95,3.08-2.12,3.57-4.07,2.57-7.54-6.28-21.72-12.3-43.52-18.46-65.28-4.08-14.4-8.25-28.78-12.48-43.49L1764.37,552c0.13,1.07.14,1.57,0.26,2,3.13,12.3,1.58,15.58-10.32,19.07-17.81,5.22-35.75,10-53.63,15-9.92,2.76-19.78,5.74-29.77,8.23-6.88,1.72-10.49-.38-13.31-6.8-0.94-2.13-1.69-4.35-2.67-6.87l-13.26,3.83L1674.8,704l52.56,3.53,0.82-14c-3.5-.61-6.35-1-9.14-1.61-16.92-4-30.18-12.81-36.85-29.37-3.39-8.41-5.7-17.28-8.2-26-1.77-6.23-.07-9.21,6.16-11.08,11.32-3.39,22.72-6.51,34.07-9.81,2.75-.8,4.62-0.29,5.4,2.71,1.2,4.56,2.81,9,3.61,13.67,1.26,7.26-1.64,12-8.49,14.78-2.46,1-5,1.81-8,2.88l3.48,11.81,54-15.25Z"/><path d="M1706.63,633.15c-5.56,2.84-12.36,3.53-15.16,12.05l-2-7.25Z"/><path d="M1571.12,306.51c6.23-4.92,9.93.22,14.13,2.92,7,4.53,7,4.61,4.41,12.32-4.48,13.28-9.1,26.51-13.4,39.85-1.28,4-3.18,5.1-7.08,3.76a130.08,130.08,0,0,0-13.61-4c-4.18-.94-5.91-3-5.62-7.4,0.35-5.22.13-10.47,0-15.71a42.21,42.21,0,0,0-6.8-22c-8-12.58-23.49-17.64-37.86-12-16.69,6.6-26.23,20.23-33.39,35.73-5.3,11.48-7.5,23.53-3.08,35.94,4.14,11.61,16.53,20.34,28.83,20.56,5.26,0.09,8.9-2.49,11.81-6.61,8-11.41,8.16-11.54-3.48-19.08-4.09-2.65-4.84-4.92-1.74-8.85s5.79-8.31,8.56-12.56c1.84-2.82,3.84-3.32,6.74-1.35q28.29,19.24,56.69,38.31c2.73,1.84,3,3.79,1.2,6.37-3.24,4.74-6.46,9.5-9.6,14.3-1.75,2.68-3.79,3.14-6.34,1.2-11.43-8.67-11.39-4.19-17.27,4.24q-11.16,16-21.86,32.32c-2.38,3.62-4.63,4.38-8.19,1.66a89.91,89.91,0,0,0-11.33-7.66c-4.32-2.35-6.27-5.34-4.91-10.24a16.6,16.6,0,0,0,.21-3.54c-6.84-1.44-13.71-2.34-20.23-4.35-42.91-13.23-64.62-57.67-48.26-99.52,9.76-25,26.59-43.53,53.06-51.24,32.72-9.53,68.16,4.43,86.44,33.32C1569.72,304.09,1570.2,305,1571.12,306.51Zm-0.59,52.82c4.5-13.09,8.94-25.8,13.17-38.59,0.52-1.58.55-4.55-.34-5.14-2.72-1.81-6.58-4.49-8.95-3.7-5.07,1.69-6.89.26-9.51-3.92-11.38-18.17-27.51-30.24-48.84-33.83-31-5.22-54.8,6.94-72.18,32.35-12,17.53-16.61,37.07-11.91,57.91,6.72,29.78,32.49,51.25,63.06,53.63,10,0.78,10,.77,9,10.57-0.13,1.34,0,3.37.86,4,3.94,3,8.16,5.72,12.52,8.69,7.5-11.08,14.54-21.58,21.69-32,9.49-13.86,9.79-13.91,25-7.37l7.63-11.39-54.47-36.83-8,11.77c2.85,2.12,5.37,3.82,7.69,5.76,5.11,4.27,5.93,8.58,2.48,14.25a113.43,113.43,0,0,1-7.53,10.77c-3.08,4-7.27,5.73-12.36,5.84-21.47.47-39.12-15.92-38.9-37.41,0.26-24.57,11.4-44.43,30.41-59.19,24.66-19.14,55-8.6,63.12,21.59,2.05,7.66,1.28,16.07,2.07,24.11,0.16,1.65,1.15,4.07,2.41,4.6C1562.32,357.37,1566.32,358.15,1570.53,359.33Z"/><path d="M1504.89,380.48c-4.06,7.89-5.71,8.62-13.36,6.24a23.6,23.6,0,0,1-16.38-24.16c1.57-19.67,10.8-35.54,26.68-46.89,15.25-10.89,33-4.27,37.84,13.81,1.84,6.87,1.76,14.26,2.55,21.42l-1.35.78c-2.19-1.32-4.43-2.58-6.57-4-3.67-2.41-7.2-5-10.93-7.36-6.67-4.14-12.65-2.87-17.11,3.55q-5.06,7.28-10,14.68c-4.89,7.39-3.8,13.17,3.37,18.27C1501.32,378,1503,379.15,1504.89,380.48Z"/><path d="M660.24,183.67c-0.32-5.6,3.45-6.92,7.48-8.3,12.68-4.34,10.11-5.5,18.1,5.64,8.17,11.4,16.28,22.84,24.66,34.08,2.62,3.52,2.47,5.84-1.19,8.29a144.73,144.73,0,0,0-11.82,8.73c-3.09,2.56-5.27,1.93-8.41-.29-8.48-6-16.69-13.2-26.2-16.81-22.36-8.48-43.29,5.24-44.74,29.15-1.49,24.5,8.66,44.29,29.39,57.52,16.94,10.82,37.52,5.67,50.07-12.37,5.31-7.63,8.82-16.61,12.47-25.27,1.76-4.18,3.57-5.53,7.89-4,4.78,1.67,9.72,2.9,14.61,4.24,3,0.81,4.16,2.33,3.25,5.57-5.75,20.52-14.09,39.38-31.41,53.15-33.85,26.94-80.1,26.49-109.92-8.38-19.32-22.59-25.55-49-16.88-77.76,9.82-32.54,42-54.15,77.48-53.2C656.59,183.7,658.09,183.67,660.24,183.67Zm45.14,34.82c-8.65-12.06-16.93-23.75-25.43-35.28-1.29-1.75-4.08-4.21-5.38-3.8-3.44,1.08-8.47.94-8.65,6.74-0.1,3.23-2.34,4-5.32,3.88-4.7-.2-9.47-0.57-14.12-0.06-21.78,2.36-40.3,11.13-53.38,29.21-14.68,20.29-17,42.68-8.74,65.93,9.82,27.61,29,45.22,58.31,50.14,20.81,3.5,39.45-3.12,56.09-15.41,16.82-12.43,25.53-30,30.55-50.19l-12.89-3.76c-2.28,5.36-4,10.32-6.46,14.92a100.9,100.9,0,0,1-8.64,13.67c-15.7,20.75-40.81,24.51-61.66,9.13-16.1-11.88-24.54-28.33-27.31-47.9-1.78-12.54.12-24.35,8.16-34.45,14.28-18,36.37-18.79,55.54-7,6.14,3.78,11.7,8.51,17.72,13,3-2.21,6.15-4.49,9.25-6.78C703.72,220,704.33,219.38,705.39,218.49Z"/><path d="M1334.86,301.87c0.22-8.47.23-8.49-7.91-11.44-8.89-3.23-17.74-6.57-26.73-9.51a6.64,6.64,0,0,0-5.52,1.32c-3,2.73-5.29,6.12-8,9.16s-2.43,5.13,1.38,7c9.34,4.67,9.3,4.77,5.73,14.76-1.14,3.18-2.35,6.34-3.44,9.53-1,2.82-2.61,3.57-5.46,2.52q-25-9.18-50-18.16c-3.57-1.28-4.85-3.11-3.33-6.85,2-5,3.79-10.13,5.55-15.24,1-3,2.85-4.09,5.83-2.88,5.78,2.37,9.78.18,13.69-4.29q39-44.63,78.39-89c5.62-6.38,5.59-6.42,13.67-3.52,7.15,2.57,14.23,5.37,21.46,7.7,3.95,1.27,5.55,3.24,5.63,7.58,0.72,37.68,1.68,75.35,2.57,113,0.08,3.38.23,6.75,0.35,10.13,0.18,5,1.93,8.81,7.19,10.33,3.52,1,4.21,3.25,2.8,6.65-2.07,5-3.87,10.1-5.62,15.21-1,3-2.79,3.91-5.81,2.81q-31.41-11.45-62.85-22.82c-2.81-1-3.48-2.81-2.44-5.57,2-5.37,3.95-10.79,5.9-16.19,0.92-2.55,2.25-3.72,5.34-2.93C1334.51,314.11,1334.54,314,1334.86,301.87Zm-44.77,3.76c-1.51-.59-2.74-1.05-4-1.55-7.64-3.11-9.47-9.1-4.49-15.66a138.9,138.9,0,0,1,11.14-13.11,6.62,6.62,0,0,1,5.65-1.45q19.64,6.72,39,14.18c1.6,0.62,3.49,3,3.54,4.66a145.49,145.49,0,0,1-.6,18.71c-0.59,6.07-4.47,8.78-10.57,8-2.27-.3-4.5-0.91-6.91-1.41l-4.53,13L1378,352.51l4.79-13.24c-8.75-3.18-10-10.42-10.24-18.15-0.08-2.19-.11-4.39-0.16-6.59-0.77-37-1.58-74-2.23-111-0.06-3.26-1.1-4.79-4.15-5.78-6.42-2.08-12.79-4.35-19-6.9-3.19-1.31-5.06-.72-7.33,1.87-25.7,29.33-51.57,58.51-77.29,87.82-5.3,6-10.88,10.78-19.82,7.59l-5,13.36c12.33,4.51,24.22,8.76,36,13.21C1286.09,319.46,1286.06,319.54,1290.09,305.62Z"/><path d="M454.48,276.14c1.41,0.82,2.76,1.5,4,2.34q48.41,33.36,96.79,66.74c1.81,1.25,3.7,2.37,5.5,3.62,4.06,2.82,8.19,3.13,12.2.11,3.09-2.33,5.16-1.41,7.07,1.51q4.43,6.79,9.07,13.44c2,2.82,1.53,4.79-1.35,6.72Q560.41,389,533.2,407.58c-2.88,2-4.82,1.57-6.69-1.33q-4.39-6.82-9.12-13.41c-2.1-2.92-1.86-4.88,1.18-7.13,8.59-6.39,8.5-6.51-.08-13.2-8.2-6.39-8.19-6.38-16.82-.46-7.39,5.06-14.89,10-22.11,15.25a6.49,6.49,0,0,0-2,5.2c0.57,4.16,1.94,8.2,2.88,12.32,0.82,3.58,2.66,4.26,5.89,2.62s7.09-4.67,9.62-3.85c2.86,0.93,4.56,5.46,6.71,8.47,1.77,2.47,3.39,5.05,5.19,7.5s1.3,4.38-1.09,6q-22.69,15.31-45.38,30.61c-2.36,1.6-4,.95-5.52-1.24-3.4-5-6.8-10.08-10.27-15.07-1.66-2.4-.84-4.1,1.32-5.48,5.15-3.27,6.14-7.6,4.78-13.53-9-39-17.54-78.09-26.56-117.07-1.28-5.51-.29-8.62,4.64-11.52,7.12-4.18,13.75-9.21,20.61-13.84C451.65,277.58,453,276.95,454.48,276.14Zm47.36,145.45L494,409.91c-1.85,1-3.28,1.89-4.75,2.68-6.82,3.63-11.92,1.81-14.23-5.44A130,130,0,0,1,470.71,390a7.17,7.17,0,0,1,2.52-5.79q16.73-11.85,34-23a6.94,6.94,0,0,1,6.19.1,158.63,158.63,0,0,1,14,10.78c4.94,4.12,5.06,9.38.5,14-1.5,1.51-3.18,2.83-4.91,4.36l7.83,11.43,52.61-35.67-8.21-11.91c-6.6,4.95-12.6,3.05-18.45-.92-6.7-4.55-13.45-9-20.12-13.61q-39.61-27.3-79.14-54.71c-2.33-1.62-4-1.67-6.26,0-5.32,3.87-10.74,7.64-16.36,11.06-3.4,2.07-4.37,4.29-3.45,8.25,8.49,36.83,16.74,73.72,25.22,110.56,2,8.66,3.91,17-4.82,23.51l8,11.5Z"/><path d="M397.28,473.43c-0.09-11.5-3.66-20.93-8.9-29.74-2-3.41-1.56-5.46,1.77-7.39,4.82-2.79,9.56-5.74,14.26-8.74,2.57-1.64,4.41-1.09,5.91,1.39,9.48,15.79,19.06,31.51,28.26,47.46,0.85,1.48-.05,4.95-1.33,6.52-16.8,20.74-33.83,41.31-50.79,61.92-5.8,7-11.65,14-17.31,21.2-2.33,2.94-4.38,3.1-7.16.69-4-3.42-8-6.71-12.2-9.9-3-2.28-3.86-4.57-.86-7.45a20.24,20.24,0,0,0,1.63-1.94c5.58-6.91,5.4-8.67-1.58-14.4q-30.75-25.24-61.52-50.47c-1.31-1.07-2.74-2-4.06-3-3.07-2.46-5.66-2.08-8.4.77-8,8.35-8.07,8.29-17.22.92-10.45-8.41-10.46-8.42-2-18.71,12.31-15,24.74-30,36.92-45.09,3-3.72,5.35-4.41,9-.91a135.14,135.14,0,0,0,11.31,9.38c2.84,2.2,3.29,4.28.9,7.2-7.5,9.18-10.12,8.24,2.15,18.32q29.57,24.29,59.14,48.59c6.48,5.32,6.63,5.28,11.6-1.34C392.61,490.86,397.26,482.54,397.28,473.43Zm35.91,5.17-27.07-45.15-12.21,7.77c0.51,1,.78,1.59,1.1,2.16,12.35,21.76,10.67,41.67-5.15,61-5.85,7.15-9.41,7.59-16.49,1.81q-16.29-13.29-32.47-26.7c-11.59-9.56-23.29-19-34.69-28.78-5.75-4.94-5.89-9.87-1.41-16l3.48-4.8L297.6,421l-41.83,50.82,10.83,8.88c10.86-11.47,13.57-11.64,25.52-2l0.79,0.64q29.58,24.25,59.16,48.5c10.84,8.87,11.29,12.79,2.63,23.92a3.26,3.26,0,0,0-.19,1.18l10.63,8.53,53.32-64.9C423.29,490.72,428.08,484.84,433.19,478.6Z"/><path d="M1640.34,520.68c6.74-1.43,13.56-2.6,20.21-4.4,3.82-1,5.64-.1,6.79,3.56,1.57,5,3.37,9.91,5.3,14.78,1.35,3.4.66,5.29-3,6.5-17,5.69-33.93,11.44-50.8,17.42-3.83,1.36-5.64-.54-7.61-3q-28.07-35.31-56.17-70.6c-3.47-4.36-6.88-8.78-10.47-13-2.39-2.85-2-4.94.92-7.14,4.48-3.32,8.82-6.83,13.09-10.41,2.34-2,4.19-1.72,6,.59,0.31,0.4.66,0.77,1,1.16,7.89,9.28,7.88,9.24,17.58,1.49q29.9-23.88,59.87-47.68c1.06-.84,2.09-1.71,3.11-2.6,4.64-4,4.82-5.76,1.15-10.62-6.16-8.17-6.16-8.17,2-14.56a86.11,86.11,0,0,0,7.51-6c3.48-3.43,5.77-2.46,8.52,1.07,9.34,12,18.93,23.8,28.41,35.68,4.32,5.41,8.52,10.93,13,16.24,2.52,3,2.3,5.25-.82,7.59-4.32,3.24-8.53,6.65-12.7,10.08-2.47,2-4.54,1.9-6.42-.7-0.1-.14-0.21-0.27-0.31-0.4-7.37-9.44-6.84-11-18.52-1.65q-30.31,24.18-60.65,48.33c-5.42,4.33-5.37,4.39-1.12,9.75C1614.83,513.09,1625.48,520.4,1640.34,520.68Zm21.58,1.84c-2.12.48-3.91,0.84-5.67,1.29-24.39,6.13-42.56-.51-57-20.86-3.84-5.39-3.63-8.27,1.24-12.7,2.62-2.38,5.48-4.5,8.25-6.71,20.09-16,40.08-32,60.32-47.8,8.24-6.41,12.23-5.61,18.9,2.28,0.82,1,1.73,1.88,2.75,3l10.8-8.71-40.93-51.37-10.88,8.69c0.61,0.93.93,1.49,1.32,2,7.42,9.79,7.13,13.68-2.57,21.58-13.87,11.3-28,22.34-42,33.45-8.6,6.81-17.1,13.75-26,20.21-5.25,3.83-9.9,3.07-14.61-1.39-1.68-1.58-3.18-3.35-4.94-5.22l-10.59,8.52c1.07,1.59,1.82,2.87,2.74,4q30.78,38.61,61.53,77.24c1.85,2.33,3.47,2.49,6,1.58,10.65-3.78,21.37-7.39,32.06-11.07,4.56-1.57,9.12-3.18,13.83-4.83Z"/><path d="M271.83,583.24c7.91-10.23,17.15-16.16,29.29-16.79,20.43-1.05,38.15,13.82,41.93,35,2.13,11.94.59,23.68-2.64,35.09-7.61,27-15.78,53.77-23.57,80.69-1.17,4-3.08,5.11-7,3.77-4.94-1.7-10-3.16-15-4.5-3.35-.89-4.3-2.58-3.27-5.94,3.89-12.76,4-12-9.19-16Q245.71,683.71,209,672.91c-1.13-.34-2.28-0.63-3.43-0.92-6.5-1.59-7.68-1.11-9.51,5.33-3.16,11.14-3.41,8.7-12,6.45-3.27-.85-6.48-1.92-9.72-2.87-5.85-1.73-6.1-2.2-4.28-8.27,8.23-27.49,16.36-55,24.73-82.44,3.34-10.94,8.32-21,17.19-28.75,19.91-17.34,48.83-9.71,57.66,15.25C270.33,578.56,270.91,580.45,271.83,583.24ZM189,679c0.62-1.61,1.1-2.85,1.57-4.09,3.58-9.59,7.17-11.41,17-8.53q24.29,7.12,48.57,14.29c12.13,3.6,24.29,7.13,36.33,11,6.06,2,7.84,5.43,7,11.71-0.35,2.47-1,4.89-1.57,7.83L311,714.92c0.45-1.17.74-1.77,0.92-2.4,7.79-26.57,15.87-53.06,23.21-79.76,3.75-13.65,4.91-27.53-1.62-41.08-11.12-23.09-41.14-26.1-56.16-5.46-1.69,2.32-3,4.9-4.91,7a4.92,4.92,0,0,1-3.82,1.49c-0.84-.12-1.76-1.86-2.06-3a63.69,63.69,0,0,1-.95-6.51c-2-13.18-11-23.88-23.26-26.53-13.15-2.85-23.93,2.12-31.33,12.76A89,89,0,0,0,200,594c-6,17.94-10.95,36.2-16.33,54.33-2.62,8.83-5.26,17.65-8,26.74Z"/><path d="M168.62,816.24q6.06,11.79,12.12,23.59c2.54,5,5.28,9.84,7.52,14.94,1.37,3.11,3.15,3.62,6.29,3.08,13-2.24,26-4.23,39-6.28,1.4-.22,2.85-0.16,5.43-0.28C233.26,857,228.33,862,223.34,867c-5.17,5.11-10.25,10.31-15.63,15.19-2.81,2.56-3.29,4.64-1.4,8.15,6.18,11.44,11.95,23.11,17.85,34.7,0.42,0.82.68,1.73,1.47,3.8-6-2.94-10.89-5.35-15.79-7.79-7.57-3.75-15.31-7.2-22.63-11.4-4-2.3-6.29-1.31-9,1.67-9.35,10.21-18.85,20.28-28.29,30.4l-2.31-1.61c0.67-4.49,1.29-9,2-13.47,1.58-9.66,3.07-19.35,4.94-29,0.65-3.34-.37-4.84-3.26-6.24C140,886,128.9,880.29,117.71,874.7a17.63,17.63,0,0,1-5.68-4l48-7.48,7.64-46.74ZM211,914.8l0.73-.74c-4.25-8.22-8.37-16.52-12.83-24.63-1.81-3.3-1.8-5.46,1.11-8.27,7-6.74,13.51-13.91,20.56-21.27-8.95,1.45-17.71,2.81-26.44,4.29-7.51,1.27-7.41,1.28-10.71-5.42-3.92-7.93-8-15.78-12.57-24.72-1.52,10-3.31,18.61-4,27.32-0.51,6.28-3.5,8-9.19,8.61-8.71.87-17.34,2.56-26.39,4a6.62,6.62,0,0,0,.83,1.1c6.17,3.13,12.33,6.29,18.53,9.35,11.36,5.6,11.31,5.57,9.16,18.27-1.13,6.65-2,13.35-3,20l1.88,1.14c6.44-6.91,12.94-13.75,19.27-20.77,2.31-2.56,4.26-2.85,7.39-1.17C193.77,906.42,202.43,910.53,211,914.8Z"/><path d="M1829.61,813.48c2.86,15.27,5.68,29.15,7.95,43.12,0.66,4.07,2.49,5.15,6.09,5.59,12.73,1.56,25.43,3.34,38.15,5,1.45,0.19,2.89.46,5.4,0.86-1.84,1.25-2.8,2-3.87,2.61-11.77,6.27-23.51,12.61-35.38,18.68-3.11,1.59-3.86,3.19-3.13,6.69,2.6,12.38,4.74,24.86,7,37.31,0.26,1.43.4,2.89,0.78,5.73-7.37-6.82-13.77-12.74-20.15-18.67-4.21-3.91-8.51-7.72-12.53-11.82-2.17-2.21-3.86-2.23-6.53-.77-11,6-22.06,11.74-33.12,17.55-1.71.9-3.49,1.68-6.55,3.15,6.19-12.71,11.84-24,17.18-35.36,4.77-10.16,5.38-6.72-2.63-14.46-9.35-9-18.94-17.8-28.18-27.71,4.5,0.52,9,1,13.5,1.57,10.2,1.4,20.4,2.8,30.57,4.38,3,0.46,4.47-.31,5.8-3.18,5.3-11.49,10.93-22.84,16.46-34.23C1827.23,817.93,1828.12,816.33,1829.61,813.48Zm-53,45.81c8,7.5,14.58,14.11,21.64,20.23,3.47,3,3.79,5.5,1.68,9.45-4.3,8.06-8.1,16.39-12.68,25.81,9.59-5.06,18-9.32,26.2-13.92,3.26-1.83,5.42-1.86,8.27,1,6.68,6.69,13.79,12.95,21.58,20.17-1.9-10.38-3.49-19.49-5.28-28.56-0.7-3.55-.27-5.9,3.5-7.66,7.33-3.43,14.39-7.42,21.55-11.21,1.34-.71,2.61-1.52,5-2.94-11-1.48-20.51-2.93-30.05-4-3.64-.39-5.4-1.74-5.85-5.43-0.64-5.19-1.65-10.33-2.58-15.48-0.77-4.27-1.65-8.53-2.73-14.09-4.68,9.74-8.94,18-12.58,26.48-1.78,4.15-4.16,4.87-8.23,4.21C1796.84,861.87,1787.53,860.77,1776.64,859.29Z"/><path d="M529.81,1742.49c-11,.45-18.89-8-18.86-20.52,0-10.18,6.41-17.57,14.42-17.29Z"/><path d="M539,1699.09c2.2-5.25,3.64-9.89,6-14,2.63-4.57,8.18-5.42,11.67-2.45,3.28,2.78,3.2,8-.38,11.64C552,1698.71,546.46,1699.58,539,1699.09Z"/><path d="M1405.07,1765.76c0.11,13.42-5,20.23-13.62,24.72s-17.29,4.86-25.32-1.16c-14-10.52-22.67-24.46-22-42.24,0.63-17.25,23.23-28.67,37.78-19.31C1396.67,1737.27,1402.93,1752.2,1405.07,1765.76Z"/><path d="M911.77,1838.37c-0.76,11.41-1.79,21-6.9,29.54s-12.64,12.65-22.44,11.8c-9.56-.83-17.77-4.45-21.69-14.1-6.58-16.19-4.5-32,3.83-46.76,5.36-9.49,15-11.45,25.25-9.77s17.43,7.18,20.05,17.52A112.74,112.74,0,0,1,911.77,1838.37Z"/><path class="a" d="M799.71,1508.29c1.55,0.51,3.74,1.32,6,2,5.82,1.66,7.2.94,7.45-5,0.69-16.71,1.5-33.43,1.55-50.15,0.09-34.47-.2-68.95-0.53-103.42a143.23,143.23,0,0,0-1.76-19.17c-1.05-7.2-5.05-8.94-10.94-4.73-5.6,4-10.85,8.49-16.74,12.34,3.13-3.32,6.28-6.63,9.4-10q58.69-62.68,117.36-125.38c11.73-12.54,11.81-12.54,28.59-8.64,15.7,3.65,30.31,9.2,41.76,21.27,11.83,12.48,18.35,27.52,20.91,44.18,3.07,20,1.33,39.84-6.26,58.77-10,25-28.66,41.72-52.45,53.1-7,3.34-14.43,5.69-21.65,8.55-2.19.87-4.74,1.47-6.36,3a9.71,9.71,0,0,0-2.91,6.09c0,0.95,3,2.51,4.85,3,15.39,3.69,31.17,6.14,46.17,11,20.4,6.59,33.16,22.15,41.18,41.43,16.56,39.78,13.91,79.14-3.85,117.84-11.6,25.26-29.07,45.48-53.38,59.23-7.13,4-15,6.78-22.77,9.62-1.71.63-4.82-.16-6.21-1.45-13.36-12.38-27-24.49-39.57-37.67C852.53,1565.72,826.14,1536.77,799.71,1508.29ZM860,1333h-0.78q0,25.35,0,50.7c0,7.19.66,7.7,7.5,6.36,3.64-.71,7.32-1.27,10.9-2.24,20-5.44,35.44-16.76,43.13-36.47,6.92-17.73,10.71-36.22,10.24-55.44-0.37-15.06-.73-30.09-6.74-44.28-4.52-10.68-12.69-14.17-23.34-9.7a32.79,32.79,0,0,0-9.15,5.32q-15.09,13.48-29.61,27.58c-1.45,1.41-2.06,4.26-2.08,6.46C859.94,1298.51,860,1315.75,860,1333Zm-0.25,150.9c0,22.31,0,44.62.07,66.93,0,2.23.39,5,1.68,6.61,8.9,11.3,18.47,22.05,30.7,29.91,8,5.11,16.44,8,25.8,3.26,7.89-4,10.94-11.69,14.16-19.08,9.12-20.91,10.43-43.08,10.56-65.53,0.16-28.06-5.43-54.24-21.69-77.73a39.37,39.37,0,0,0-16.63-14.17c-11.85-5.35-24.18-5.46-36.78-4.22-7.79.77-7.87,0.5-7.88,8.11Q859.71,1450.92,859.76,1483.88Z"/><path class="a" d="M1178.33,1447.37c-0.45-5.55-.74-10.78-1.33-16-0.94-8.15-3.91-10.54-12.14-11.24a230.78,230.78,0,0,0-57.58,1.83c-4,.66-5.56,2.31-5.51,6.23q0.87,73.52,1.72,147c0,1.59,1,4.11,2,4.48,1.26,0.43,3.52-.66,4.75-1.75q42.68-38.14,85.13-76.54a18.09,18.09,0,0,0,4.69-8c2.29-7.76,4.06-15.68,6-23.56,1.52-6.29,1.47-6.3,8.23-8.55-0.77,10.4-1.32,20.83-2.51,31.18-0.27,2.32-2.54,4.63-4.33,6.53q-42.79,45.31-85.72,90.5c-14.54,15.32-29,30.66-43.77,45.79a11.92,11.92,0,0,1-7.28,3.27c-16.54.83-33.09,1.28-49.65,1.84-1,0-2-.09-2.9-0.14-2.34-9.63-1.44-11.64,6.23-16.79a126.82,126.82,0,0,0,14.5-11,12.3,12.3,0,0,0,3.83-7.67c1.62-35.11,3.89-70.23,4.12-105.36,0.5-77.58,0-155.18-.31-232.76,0-11.11-1.37-22.23-2.5-33.3-0.92-9-6.21-14.22-15.28-15.56-7.51-1.12-15-2.58-22.5-3.58-3.14-.42-4.39-1.58-4.25-4.83,0.23-5.38.06-10.78,0.06-16.11,8.19,0,16-.19,23.88,0,15,0.44,30.06,1,45.07,1.81a10.53,10.53,0,0,1,6.46,2.79q49.68,51.33,99.08,102.92c11.44,12,22.5,24.28,33.57,36.59a7.12,7.12,0,0,1,1.44,5.27c-1.16,6.8-2.75,13.52-4.19,20.3-5.82-.64-8-3-8.36-8.91-0.24-4.39-.14-8.88-1.12-13.11-0.8-3.45-2.26-7.32-4.69-9.74-16.9-16.77-33.89-33.46-51.34-49.65-9.89-9.18-20.66-17.42-31.16-25.93-1.42-1.15-3.54-1.43-5.34-2.12-0.65,1.77-1.83,3.52-1.87,5.3-1,43.43-1.85,86.86-2.9,130.28-0.11,4.64,1.36,6.76,6,7.33,19.58,2.39,39.11,5.24,58.72,7.36,7.16,0.78,10.79-3,11.72-10.31,0.57-4.49.85-9,1.27-13.53,8.38,0.49,9.31,1.72,9.24,9.38-0.15,16-.05,32.09,0,48.14C1187.62,1446.06,1187.71,1446.07,1178.33,1447.37Z"/><path class="b" d="M1218.25,1410.7h64c-3.06,84.31-27.88,160.23-81.68,226.93-3.36-10.11-5.64-19.69-9.67-28.46-6.72-14.64-6.4-28.29.56-42.9,4.6-9.65,6.5-20.57,9.81-30.86a18.85,18.85,0,0,1,3.62-6.48c6.23-7.12,12.58-14.14,19.11-21,4.94-5.18,7-11.16,7.48-18.26,0.78-10.93,2.08-21.85,3.71-32.7,1.94-12.86-2.78-20.89-15-24.79a4.92,4.92,0,0,1-2.67-3.7C1217.5,1422.76,1217.95,1417,1218.25,1410.7Z"/><path class="b" d="M804,1627.89c-37.08-33.29-79.4-156.74-74.33-217h59.82v68.62c-20,8.45-23.46,27-8.56,42.29,13.42,13.8,26.72,27.73,40.2,41.47,2.45,2.49,3,4.67,1.87,8.06-6.09,17.9-11.91,35.89-17.84,53.85C804.83,1626.07,804.38,1626.93,804,1627.89Z"/><path class="b" d="M1208.18,1660.58c-1.83-5.45-3.57-9.85-4.69-14.39-0.35-1.41.53-3.58,1.55-4.82,38.37-46.4,62.83-99.51,74.57-158.26,4.45-22.26,5.63-45.18,8.29-67.79,0.17-1.46.27-2.93,0.43-4.63h44.39a329.52,329.52,0,0,1-25.56,118.18C1285.43,1580.79,1252.62,1624.48,1208.18,1660.58Z"/><path class="b" d="M795.5,1654.23a330.86,330.86,0,0,1-85.14-111.48c-19.65-41.58-29.9-85.5-31.78-131.92H723c0.75,10.19,1.28,20.27,2.28,30.3,6.26,63,26,121.29,61.38,174,4,6,8.72,11.62,12.73,17.67a8.86,8.86,0,0,1,1.08,6.31C799.26,1644,797.38,1648.65,795.5,1654.23Z"/><path class="b" d="M864.14,1114.85l13.49,21.93a312.94,312.94,0,0,0-42.42,74.9c-6.42,16.14-11.81,32.72-17,49.3-1.84,5.85-5,10.29-8.58,15.08-8.9,11.93-19.85,16.65-34.73,14.74-9.62-1.24-19.52-.23-30.22-0.23C766.47,1219.38,803.82,1159.76,864.14,1114.85Z"/><path class="b" d="M1266.7,1290.57h-21.12c-11.33,0-22.66-.16-34,0.1-3.83.09-5.11-1.18-5.91-4.86-8.25-37.84-20.73-74.23-39.59-108.13-7.61-13.69-16.71-26.56-25.45-39.59-2-3-2.86-5.29-1.11-8.63,2.41-4.61,4.39-9.44,7-15.07C1207.21,1159.25,1244.8,1219,1266.7,1290.57Z"/><path class="b" d="M1315.19,1290.56c-13.94,0-27.08.13-40.21-.21-1.23,0-2.94-2.77-3.49-4.55-11.06-35.76-26.62-69.35-47.87-100.23-19.81-28.78-43.43-53.91-71.8-74.4-5.15-3.72-.39-6.21.28-10a324,324,0,0,1,96.33,74.46A328.07,328.07,0,0,1,1315.19,1290.56Z"/><path class="b" d="M695.9,1290.56c29.75-83.56,82.82-146,160.48-188.26l4.58,7.49c-1.49,1.18-2.77,2.24-4.08,3.23-41.42,31.28-72.91,70.74-95,117.49-8.63,18.27-14.88,37.65-22.35,56.47-0.56,1.4-2.13,3.41-3.27,3.43C723.13,1290.65,710,1290.56,695.9,1290.56Z"/><path class="c" d="M1104.09,518c-2.92.19-5,.31-7.12,0.47-8.21.63-14.9-2.6-21.36-7.44-7.68-5.75-15.91-10.76-23.95-16-5.73-3.76-11.53-7.43-18.64-12,8.12-.52,14.73-0.91,21.34-1.37,11.94-.84,23.88-1.75,35.82-2.57,7.1-.49,13.08,2.28,18.75,6.3q10.5,7.47,21.38,14.41a10.22,10.22,0,0,0,6.11,1.51c25.16-2.68,44.41,15.18,49.28,40.37a72.27,72.27,0,0,1-2,36.66c-29.13-19.69-61-29.67-96.45-29.77C1089.78,536.65,1096.75,527.67,1104.09,518Zm-58.66-31.8-0.36,1.4c0.89,0.67,1.75,1.38,2.67,2q16.8,11.27,33.61,22.52a25.83,25.83,0,0,0,17.25,4.56c9.24-.82,18.5-1.43,27.75-2.14,5.29-.41,10.57-0.85,17.27-1.39-2.26-1.67-3.37-2.55-4.55-3.34-10.89-7.37-21.73-14.83-32.72-22.06-5.64-3.71-11.8-5.54-18.75-4.39a148.89,148.89,0,0,1-15.07,1.43C1063.51,485.38,1054.47,485.77,1045.43,486.24Z"/><path class="b" d="M1199.69,1290.89c-1.4-.85-3.07-1.46-4.17-2.6q-35.2-36.48-70.23-73.12a16.16,16.16,0,0,1-3.24-5.6c-1.26-3.48-1.63-7.35-3.24-10.63-4.52-9.2-3-17.49,1.63-26.3,5.31-10.12,9.43-20.87,14.62-32.58C1169.06,1185.43,1188.62,1235.88,1199.69,1290.89Z"/><path class="b" d="M1019.58,1572c-0.48,7.34-.79,14.7-1.57,22-0.16,1.5-1.8,3.17-3.19,4.16-4.12,2.94-8.45,5.58-12.71,8.32a20.62,20.62,0,0,0-10,17.77c-0.13,5.57-.21,11.16.09,16.72,0.62,11.49,8.67,19,20.17,18.92,4.05,0,8.1-.31,12.15-0.39,3.86-.07,7.71,0,12.31,0-0.74,3.67-1.33,7.24-2.19,10.74-4.18,16.88-8.19,33.84-16.7,49.23a42,42,0,0,1-6.14,8.62c-4.81,5.05-9.92,5.21-14.38-.1a62.56,62.56,0,0,1-9.16-14.44c-10.29-23-14.77-47.6-19.58-72.14-1.24-6.31.21-9.71,5.44-13.68,18.42-14,32.29-32,42.73-52.62,0.57-1.12,1.18-2.22,1.77-3.32Z"/><path class="b" d="M1332.9,1404.36h-44.32c-0.14-1.51-.32-2.95-0.41-4.38-0.89-14.49-1.64-29-2.73-43.47-0.28-3.63.59-5.87,3.65-8,10.31-7.06,20.41-14.43,30.6-21.67,1.35-1,2.77-1.83,4.76-3.14C1331,1350.4,1333.18,1376.92,1332.9,1404.36Z"/><path class="b" d="M824.91,1258.29c12.23-41.51,29.62-80.54,56-116.14l21,34L826,1258.88Z"/><path class="b" d="M685.62,1329.45c13.17,9.43,25.52,18.22,37.76,27.16a5,5,0,0,1,1.83,3.69c-0.75,14.46-1.68,28.9-2.6,43.83h-43.9C677.82,1379.08,680.49,1354.64,685.62,1329.45Z"/><path class="b" d="M921,1655l40.92-16.83c7,31.29,10.82,64.47,28.95,94-6.22-3.28-12.81-6-18.59-9.94-17.42-11.86-29.58-28.45-40-46.39C928.19,1668.93,924.58,1661.69,921,1655Z"/><path class="b" d="M1098.3,1640.41c-12.91,31.92-28.19,62.23-57.39,82.62-6.83,4.77-14.07,9.11-23.5,8.47,14.1-20.45,19.42-43.63,24.31-66.89,1-4.88,3-6.24,7.65-6.12,7.41,0.19,14.84-.29,22.27-0.32a22,22,0,0,0,17.39-7.84C1092,1646.92,1095.2,1643.71,1098.3,1640.41Z"/><path class="d" d="M969.46,1380.53c27.55-18.94,44.77-43.83,52.26-75.66V1428c-6.57-8.55-13.32-18.46-21.23-27.34C992.33,1391.55,981.71,1385.42,969.46,1380.53Z"/><path class="b" d="M1045,1728.39c32.16-24.32,49-58.92,64-95.38l31.33,22.2C1115.4,1688.93,1086,1716.12,1045,1728.39Z"/><path class="d" d="M1121.26,1373.91c0-18.38-.06-36.08.16-53.78,0-1,2.23-2.85,3.48-2.9,6.74-.28,13.51-0.33,20.25,0a9.88,9.88,0,0,1,5.63,2.79c5.89,5.56,11.35,11.58,17.33,17,4.43,4,6.17,8.6,4.83,14.78-0.84.24-1.93,0.59-3,.85-10.53,2.47-16.29,8.69-16.62,19.31-0.16,5.24-2,6.26-6.71,5.48C1138.13,1376.08,1129.63,1375.06,1121.26,1373.91Z"/><path class="b" d="M872,1647.63l16.23-11.51C896.87,1642,905,1647.34,913,1653c1.38,1,2.14,3,2.92,4.59,10.59,22.07,23,42.88,41,59.91,3.26,3.1,6.81,5.89,9.93,9.17C925.7,1712.11,896.55,1683.23,872,1647.63Z"/><path class="b" d="M841.6,1669.24l25.55-18.2c21.33,31.11,46.86,57.6,80.68,75.2C907.72,1716.45,873,1696.77,841.6,1669.24Z"/><path class="b" d="M1280.44,1356.22c0.6,15.06,1.14,29.53,1.77,44,0.12,2.82-.52,4.4-3.82,4.38-19.39-.11-38.79-0.07-58.18-0.1a14.9,14.9,0,0,1-2.54-.72c0.9-2.08,1.18-4.7,2.62-5.75,19.09-13.87,38.34-27.53,57.56-41.22A11.24,11.24,0,0,1,1280.44,1356.22Z"/><path class="b" d="M1020.9,1070.11c12.18,3.1,21.76,9.76,30.85,17.44,4.07,3.44,5.65,7.07,5.28,12.62-1.43,21.41-2.24,42.85-3.3,64.28-0.07,1.47-.31,2.94-0.47,4.33-4.58,1.47-5-1.29-5.51-4.4-4.07-24.68-8.75-49.23-17.41-72.79C1027.73,1084.5,1024.27,1077.71,1020.9,1070.11Z"/><path class="c" d="M1061.54,1137.1c1.26-24.3,2.46-47.55,3.67-70.8,0.32-6.22,2.78-11.11,8.82-13.58a12.8,12.8,0,0,1,14.38,3.08c4.3,4.61,5,10.05,2.2,16.42q-13.79,31.25-27.55,62.51A24.5,24.5,0,0,1,1061.54,1137.1Z"/><path class="c" d="M1091.86,1143.12q1.64-31.19,3.26-62.17c0.16-3,.21-6.08.48-9.1,0.52-5.92,3.58-10.18,9.06-12.37,5.25-2.09,10-.73,13.86,3.28,4.13,4.29,5.41,9.43,3,14.94-9.49,21.64-19.14,43.21-28.75,64.79A2.73,2.73,0,0,1,1091.86,1143.12Z"/><path class="c" d="M1121.27,1151.45c1.09-20,2.16-39.38,3.2-58.74,0.23-4.21.27-8.43,0.53-12.64,0.38-6.21,3.07-11,9-13.45,5.52-2.3,10.23-.74,14.24,3.41s4.88,10.36,2.35,16C1140.94,1107.57,1131.29,1129.1,1121.27,1151.45Z"/><path class="c" d="M924.26,1140.64q-8.74-14.1-17.48-28.19c-6.5-10.46-13.09-20.85-19.48-31.37-3-5-3.17-10.31.13-15.26,2.79-4.18,6.81-6.74,12-6,5.95,0.87,10.85,4,12.07,10.08,4.72,23.42,9,46.92,13.46,70.39Z"/><path class="c" d="M896.38,1153.78c-7.44-12.06-14.14-22.95-20.86-33.82-5.68-9.2-11.41-18.37-17.06-27.59a13.47,13.47,0,0,1,.16-15.28c3-4.57,7.36-6.28,12.68-5.67,6,0.69,10.88,5.93,12.11,12.62C887.59,1106.76,891.85,1129.46,896.38,1153.78Z"/><path class="c" d="M952.64,1129.87q-15.74-25.58-31.48-51.15c-1.77-2.87-3.76-5.6-5.43-8.52-3-5.25-3.15-10.67.29-15.73,3.1-4.56,7.61-6.63,13.16-5.34,6,1.38,9.86,5.13,11,11.18,3.48,18,6.79,36.07,10.19,54.1,1,5.11,2,10.2,3,15.3Z"/><path class="b" d="M788.73,1404.29H728.82l1.87-42.59L789,1403.33Z"/><path class="d" d="M1174.92,1644.56l-48.12-34.15,29.13-26.51,19.76,59.87Z"/><path class="b" d="M1145.14,1658.62l19.43,13.8c-8.09,13.34-68.26,47.54-89,50.14C1104.29,1706.48,1126.15,1684.53,1145.14,1658.62Z"/><path class="d" d="M1286.63,1317.32l-58.87,42.08c0.92-5,.92-8.92,2.4-12.2,4.82-10.63,1.59-19.33-5.46-27.44a26.89,26.89,0,0,1-1.64-2.44h63.57Z"/><path class="b" d="M1152.71,1446.92c5.63,18.76,10.25,22.35,26.53,20.61,1.24,17.2-12.94,24-23.1,34.85-2.27-6.71-4.41-12.46-6.15-18.34-2.46-8.34-6.8-16.19-5.95-25.4C1144.73,1451.2,1145.08,1450.3,1152.71,1446.92Z"/><path class="d" d="M1002.1,1113.69l17.41,53.26c-12,2.4-24.51-4.13-36.32,4.54Z"/><path class="b" d="M952.57,1173.41a6.43,6.43,0,0,1-.91.15c-9.91-.56-15.71-4.6-16.2-15.69-0.37-8.32-3.76-16.5-4.2-24.82-0.24-4.61,2.81-9.4,4.37-14.1l1.93,0.19c2.56,4.06,5.15,8.1,7.68,12.18,1.87,3,3.67,6,5.52,9.06C960.35,1156,960.35,1156,952.57,1173.41Z"/><path class="b" d="M985,1073.38l-21.45,67.09-0.82-.1c-2.72-14.23-5.46-28.45-8.08-42.7a4.18,4.18,0,0,1,.89-3.19c8.36-8.7,17.47-16.43,28.7-21.26A1.37,1.37,0,0,1,985,1073.38Z"/><path class="b" d="M1056.37,1168.85l21.74-49.15c3.38,6.7,8.16,11.16,7.52,18.6-0.95,11.06-1.2,22.18-1.72,32.85Z"/><path class="d" d="M828.59,1643.61l17.24-52.45L869,1616.35l-39.48,28.05Z"/><path class="d" d="M768,1317.46c-8.08,7.48-12.19,16.2-10.34,28.5l-39.9-28.5H768Z"/><path class="b" d="M1112.67,1178.82c-4.25-10.21-8.53-20.4-12.71-30.64a4.15,4.15,0,0,1,.17-2.9,291.71,291.71,0,0,1,14.24-29.37c0.63,2,1.86,4,1.78,6-0.78,18.91-1.79,37.8-2.73,56.7Z"/><path class="b" d="M1097.34,1155.64l16.64,45.89c-6.72-6.26-13.26-12-19.36-18.14-8.14-8.21-8-8.35-3-19,1.35-2.87,2.68-5.75,4-8.63Z"/><path class="b" d="M902.21,1118.37c4.68,7.63,9.38,15.16,13.91,22.8a4.22,4.22,0,0,1-.12,3.27c-3,6.95-6.08,13.84-9.64,21.88-1.24-6.14-2.32-11.21-3.28-16.31-1.51-8-2.77-16-4.5-23.87C897.79,1122.62,898.6,1120.33,902.21,1118.37Z"/><path class="d" d="M1122,1480.85c4.11,12.56,8.25,25,12.16,37.49a5.16,5.16,0,0,1-1,4.3c-3.14,3.25-6.63,6.15-11.13,10.22v-52Z"/><path class="b" d="M835.77,1673.29l47.15,34.39a325.49,325.49,0,0,1-54.41-28.75Z"/><path class="b" d="M1178.12,1682.87L1129.73,1708l-1-1.59c1.28-.82,2.59-1.59,3.83-2.46,10.75-7.54,21.61-14.94,32.17-22.73C1171.36,1676.33,1171.15,1676.05,1178.12,1682.87Z"/><path class="b" d="M1193.16,1543.15l-11.28,33.78-1.25.18c-1.7-5.27-3.45-10.52-5-15.82a3,3,0,0,1,1-2.2c5.15-5.53,10.35-11,15.54-16.5Z"/><path class="b" d="M912.17,1167.9l8.47-19.55,12.85,20.78Z"/><path class="b" d="M1207.12,1410.66h4.34c2.29,10.23.47,21.44-4.34,23v-23Z"/><path class="b" d="M1020.62,1080.86l14.83,46.8-1.65.53-15.24-46.77Z"/><path class="b" d="M924.77,1100.46c10.8,14.21,9.89,11.89,3.8,19.2Z"/><path class="b" d="M1086.36,1120.47c-6.46-6.94-6.82-6.3,1.12-19.94Z"/><path class="b" d="M966.74,1076.32l-13.34,11.52c-2.32-6.06-2.35-6.12,3.27-8.57,3.31-1.44,6.72-2.67,10.08-4v1Z"/><path class="b" d="M1043.95,1073.83c11.61,1.43,14.41,3.56,13.17,10.28Z"/><path class="a" d="M905.48,133.74l2,13.83c-8.41,1.1-13.28,6.7-18.14,12.36q-13.55,15.75-27.19,31.44c-4.41,5.1-4.39,5.79.21,10.4q23.27,23.32,46.55,46.63c5.65,5.65,11.23,11.42,20.4,10.29,0.78-.1,2.35,1.36,2.55,2.31,0.72,3.44,1,7,1.58,11.33l-67.39,10-1.88-13.88c2.57-.56,4.86-1,7.1-1.56,6.73-1.81,8.22-5.86,3.62-11-6.84-7.7-14.06-15.05-21.13-22.55-3.71-3.93-7.45-7.83-11.16-11.77-2.2-2.33-4.31-2.36-6.42.09-5.95,6.91-12,13.73-17.74,20.82-1.07,1.33-1.19,3.81-1,5.68,0.46,4.7,1.28,9.36,2.08,14,1.48,8.68,5.27,11.45,14.1,10.47,1.65-.18,3.31-0.28,5.32-0.45,0.4,2.38.76,4.5,1.1,6.62s0.65,4.31,1.08,7.2l-65,9.51L773.94,282c2.6-.64,4.71-1.11,6.79-1.68,7.13-1.94,9.92-5.75,8.95-13-2-15.06-4.2-30.11-6.41-45.14q-2.84-19.29-5.89-38.55c-2.05-13.09-4.1-14.7-17.51-14.15a24,24,0,0,1-2.41-.18l-2-13.43,64.87-9.64L822.69,160c-2.25.47-4.17,0.89-6.1,1.28-7.08,1.45-10.75,5.8-9.86,12.93,1.71,13.74,3.81,27.43,5.9,41.12,0.2,1.3,1.36,3.32,2.29,3.45a5.4,5.4,0,0,0,4.17-1.81c13.51-16.66,27-33.34,40.15-50.28,1.52-2,2.22-6.3,1.07-8.1s-5.08-2.07-7.86-2.64c-1.38-.28-2.94.24-4.83,0.45l-2-13.89Z"/><path class="a" d="M1207.9,240.39l12.4,6.61c-6.63,12.28-13,24.29-19.59,36.22-5.6,10.2-5.66,10.06-17.14,8.27-29.2-4.55-58.41-9-87.61-13.52-7.11-1.11-14.18-2.45-21.54-3.74l2.24-13.17c1.69,0,3.16-.12,4.61,0,9.55,0.91,13.45-1.93,15-11.39,2.14-13,4.11-26,6.14-39,2.16-13.85,4.43-27.68,6.43-41.55,2.23-15.48,1.08-17-14.57-20.54l2.08-13.58c8.42,1.2,16.41,2.25,24.37,3.5,29.19,4.59,58.36,9.28,87.55,13.84,2.76,0.43,4.56,1.08,5.15,4.32,2.39,13.11,5.06,26.16,7.73,39.75l-13.86,2.83c-1.38-3.63-2.44-6.83-3.78-9.91-5.38-12.34-14.18-21-27.6-23.87-9.89-2.11-20-3.4-29.92-5.18-3.74-.67-5.28,1.06-5.81,4.44q-2.5,16-5.09,32c-0.51,3.14.24,5.44,3.71,5.93a140.11,140.11,0,0,0,14.08,1.66c7.29,0.28,11.15-2.94,13-10.09l2.06-8,12.07,1.49-8.65,55.7-11.73-1.9c0-3.89.14-7.57,0-11.23-0.25-5.37-3.37-9.34-8.57-10.6-4.75-1.15-9.6-1.87-14.41-2.77-2.83-.53-4.55.47-5,3.46-1.92,12.34-4.14,24.64-5.59,37-0.27,2.31,2.05,6.72,3.93,7.19,16.55,4.18,33.28,8.11,50.17,1.41,11.12-4.41,19.06-12.54,25.6-22.24C1206.35,242.77,1207,241.79,1207.9,240.39Z"/><path class="a" d="M1760.86,634.49l3.41,11.79-54,15.25-3.48-11.81c3-1.07,5.51-1.88,8-2.88,6.85-2.8,9.75-7.51,8.49-14.78-0.8-4.63-2.41-9.11-3.61-13.67-0.79-3-2.66-3.51-5.4-2.71-11.35,3.3-22.75,6.42-34.07,9.81-6.23,1.86-7.93,4.85-6.16,11.08,2.49,8.75,4.81,17.61,8.2,26,6.67,16.56,19.93,25.41,36.85,29.37,2.78,0.65,5.64,1,9.14,1.61l-0.82,14L1674.8,704l-33.12-117.53,13.26-3.83c1,2.52,1.73,4.74,2.67,6.87,2.82,6.42,6.44,8.52,13.31,6.8,10-2.49,19.85-5.46,29.77-8.23,17.88-5,35.82-9.8,53.63-15,11.91-3.49,13.46-6.76,10.32-19.07-0.12-.47-0.13-1-0.26-2l13.13-4.06c4.22,14.71,8.4,29.09,12.48,43.49,6.16,21.76,12.18,43.56,18.46,65.28,1,3.47.51,5.42-2.57,7.54-10.71,7.36-21.18,15-32.21,22.95l-9.19-12.63c1.61-.93,3.48-1.59,4.82-2.83q19.95-18.42,12.67-44.66c-2.13-7.64-4.38-15.24-6.46-22.89-1-3.62-2.72-4.92-6.63-3.74-10.5,3.17-21.09,6.08-31.69,8.91-3.48.93-4.29,3-3.35,6,1.33,4.36,2.56,8.76,4.26,13,2.68,6.67,7.41,9.09,14.55,7.84C1755.27,635.76,1757.87,635.13,1760.86,634.49Z"/><path class="a" d="M1570.53,359.33c-4.21-1.18-8.2-2-11.87-3.51-1.26-.53-2.25-3-2.41-4.6-0.79-8,0-16.44-2.07-24.11-8.09-30.19-38.46-40.73-63.12-21.59-19,14.76-30.16,34.62-30.41,59.19-0.22,21.48,17.43,37.88,38.9,37.41,5.09-.11,9.27-1.89,12.36-5.84a113.43,113.43,0,0,0,7.53-10.77c3.45-5.66,2.63-10-2.48-14.25-2.32-1.94-4.84-3.64-7.69-5.76l8-11.77,54.47,36.83-7.63,11.39c-15.18-6.54-15.48-6.49-25,7.37-7.14,10.43-14.19,20.93-21.69,32-4.36-3-8.58-5.64-12.52-8.69-0.84-.65-1-2.69-0.86-4,1-9.8,1-9.79-9-10.57-30.57-2.38-56.34-23.85-63.06-53.63-4.7-20.84-.08-40.37,11.91-57.91,17.38-25.42,41.17-37.57,72.18-32.35,21.33,3.59,37.46,15.66,48.84,33.83,2.61,4.17,4.43,5.61,9.51,3.92,2.37-.79,6.23,1.89,8.95,3.7,0.89,0.59.86,3.56,0.34,5.14C1579.47,333.52,1575,346.24,1570.53,359.33Z"/><path class="a" d="M705.39,218.49c-1.06.89-1.67,1.46-2.34,2-3.11,2.3-6.23,4.57-9.25,6.78-6-4.44-11.58-9.17-17.72-13-19.17-11.81-41.26-11-55.54,7-8,10.11-9.95,21.91-8.16,34.45,2.78,19.57,11.21,36,27.31,47.9,20.85,15.38,46,11.62,61.66-9.13A100.9,100.9,0,0,0,710,280.81c2.43-4.6,4.18-9.56,6.46-14.92l12.89,3.76c-5,20.19-13.74,37.75-30.55,50.19-16.63,12.3-35.28,18.91-56.09,15.41-29.28-4.92-48.5-22.54-58.31-50.14-8.27-23.25-5.94-45.64,8.74-65.93,13.08-18.08,31.6-26.85,53.38-29.21,4.65-.5,9.42-0.14,14.12.06,3,0.13,5.22-.66,5.32-3.88,0.17-5.79,5.2-5.65,8.65-6.74,1.3-.41,4.09,2,5.38,3.8C688.46,194.74,696.74,206.43,705.39,218.49Z"/><path class="a" d="M1290.09,305.62c-4,13.92-4,13.84-16.51,9.13-11.82-4.45-23.71-8.7-36-13.21l5-13.36c8.94,3.19,14.52-1.55,19.82-7.59,25.72-29.31,51.59-58.49,77.29-87.82,2.27-2.59,4.14-3.18,7.33-1.87,6.24,2.56,12.61,4.82,19,6.9,3,1,4.09,2.52,4.15,5.78,0.64,37,1.46,74,2.23,111,0,2.2.08,4.39,0.16,6.59,0.28,7.73,1.49,15,10.24,18.15L1378,352.51,1318.37,331l4.53-13c2.41,0.5,4.64,1.11,6.91,1.41,6.1,0.8,10-1.92,10.57-8a145.49,145.49,0,0,0,.6-18.71c-0.05-1.63-1.94-4-3.54-4.66q-19.37-7.45-39-14.18a6.62,6.62,0,0,0-5.65,1.45,138.9,138.9,0,0,0-11.14,13.11c-5,6.57-3.14,12.56,4.49,15.66C1287.35,304.57,1288.57,305,1290.09,305.62Zm51-57.91h0.54c0-6.57.14-13.14-.1-19.7-0.06-1.59-1.4-3.12-2.15-4.68-1.55.75-3.55,1.11-4.58,2.31-8.61,9.92-17,20-25.53,30-2.69,3.16-2.29,5.31,1.74,6.77q12.11,4.36,24.15,8.91c3.85,1.45,5.9.28,5.93-3.9C1341.11,260.86,1341.08,254.29,1341.08,247.72Z"/><path class="a" d="M501.84,421.59l-42,28.32-8-11.5c8.74-6.46,6.82-14.85,4.82-23.51-8.48-36.83-16.72-73.72-25.22-110.56-0.91-4,.05-6.18,3.45-8.25,5.62-3.42,11-7.19,16.36-11.06,2.3-1.67,3.93-1.63,6.26,0q39.5,27.46,79.14,54.71c6.67,4.59,13.43,9.06,20.12,13.61,5.85,4,11.85,5.87,18.45.92l8.21,11.91-52.61,35.67L523,390.42c1.73-1.52,3.41-2.85,4.91-4.36,4.57-4.58,4.45-9.84-.5-14a158.63,158.63,0,0,0-14-10.78,6.94,6.94,0,0,0-6.19-.1q-17.22,11.13-34,23a7.17,7.17,0,0,0-2.52,5.79,130,130,0,0,0,4.35,17.14c2.31,7.25,7.41,9.07,14.23,5.44,1.47-.78,2.9-1.63,4.75-2.68Zm-47.36-97.21c3.53,14.35,6.79,28.1,10.38,41.77,0.93,3.53,3.55,3.4,6.34,1.46,6.91-4.81,13.92-9.46,20.84-14.25,4.09-2.83,4.15-4.6.11-7.67-6.3-4.78-12.72-9.41-19.09-14.1-4.2-3.1-8.34-6.29-12.65-9.22a5.38,5.38,0,0,0-4.09-.69C455.41,322,454.94,323.65,454.48,324.38Z"/><path class="a" d="M433.19,478.6c-5.11,6.24-9.9,12.12-14.72,18l-53.32,64.9L354.51,553a3.26,3.26,0,0,1,.19-1.18c8.66-11.13,8.21-15.05-2.63-23.92q-29.6-24.23-59.16-48.5l-0.79-.64c-11.95-9.66-14.66-9.48-25.52,2l-10.83-8.88L297.6,421l10.68,8.91-3.48,4.8c-4.48,6.14-4.34,11.07,1.41,16,11.4,9.78,23.1,19.22,34.69,28.78q16.21,13.38,32.47,26.7c7.08,5.78,10.64,5.34,16.49-1.81,15.82-19.33,17.5-39.25,5.15-61-0.32-.57-0.6-1.16-1.1-2.16l12.21-7.77Z"/><path class="a" d="M1661.91,522.51l4.6,13.21c-4.72,1.65-9.27,3.25-13.83,4.83-10.69,3.68-21.4,7.29-32.06,11.07-2.55.91-4.18,0.75-6-1.58q-30.66-38.7-61.53-77.24c-0.92-1.15-1.67-2.44-2.74-4l10.59-8.52c1.76,1.87,3.27,3.64,4.94,5.22,4.71,4.45,9.36,5.22,14.61,1.39,8.85-6.46,17.36-13.4,26-20.21,14-11.11,28.11-22.15,42-33.45,9.69-7.89,10-11.78,2.57-21.58-0.39-.52-0.72-1.09-1.32-2l10.88-8.69,40.93,51.37-10.8,8.71c-1-1.1-1.92-2-2.75-3-6.67-7.88-10.66-8.69-18.9-2.28-20.25,15.75-40.24,31.84-60.32,47.8-2.78,2.21-5.63,4.33-8.25,6.71-4.87,4.42-5.08,7.3-1.24,12.7,14.48,20.35,32.65,27,57,20.86C1658,523.36,1659.79,523,1661.91,522.51Z"/><path class="a" d="M189,679l-13.36-3.92c2.71-9.09,5.34-17.91,8-26.74C189,630.22,194,612,200,594A89,89,0,0,1,211,571.45c7.4-10.64,18.18-15.6,31.33-12.76,12.25,2.65,21.29,13.35,23.26,26.53a63.69,63.69,0,0,0,.95,6.51c0.3,1.17,1.22,2.9,2.06,3a4.92,4.92,0,0,0,3.82-1.49c1.87-2.15,3.23-4.73,4.91-7,15-20.65,45-17.63,56.16,5.46,6.53,13.56,5.37,27.43,1.62,41.08-7.34,26.7-15.43,53.19-23.21,79.76-0.18.63-.47,1.23-0.92,2.4l-13.14-3.68c0.6-2.94,1.22-5.37,1.57-7.83,0.88-6.28-.9-9.75-7-11.71-12-3.9-24.2-7.43-36.33-11q-24.27-7.21-48.57-14.29c-9.83-2.88-13.42-1.06-17,8.53C190.13,676.16,189.65,677.4,189,679Zm129.44-53-1-.32c-0.22-1.5-.36-3-0.69-4.5a24,24,0,0,0-20.93-18.59c-11-1.17-19.43,3.76-24,15.33-3.58,9.09-6.09,18.59-9.08,27.91-1.11,3.45.15,5.37,3.64,6.34,11.37,3.18,22.71,6.48,34,9.81,4.51,1.33,8,0,9.33-4.4C312.94,647.16,315.61,636.57,318.47,626Zm-61.84-16.5c-2-4.77-3-10.52-6.24-14.28-10-11.46-26.71-9.12-32.86,4.72-4.36,9.82-7.11,20.37-10.21,30.7-0.36,1.19,1.25,4.06,2.5,4.47q16.37,5.33,33,9.85c1.28,0.35,4.22-1.22,4.59-2.45C250.63,631.91,253.44,621.16,256.63,609.53Z"/><path class="d" d="M211,914.8c-8.57-4.28-17.24-8.38-25.68-12.92-3.13-1.68-5.08-1.39-7.39,1.17-6.32,7-12.83,13.86-19.27,20.77l-1.88-1.14c1-6.68,1.85-13.37,3-20,2.15-12.7,2.2-12.67-9.16-18.27-6.2-3.06-12.36-6.22-18.53-9.35a6.62,6.62,0,0,1-.83-1.1c9.05-1.4,17.68-3.09,26.39-4,5.69-.57,8.68-2.33,9.19-8.61,0.71-8.71,2.49-17.34,4-27.32,4.56,8.94,8.66,16.78,12.57,24.72,3.31,6.7,3.2,6.69,10.71,5.42,8.74-1.48,17.49-2.84,26.44-4.29-7.06,7.36-13.6,14.54-20.56,21.27-2.91,2.81-2.92,5-1.11,8.27,4.46,8.11,8.57,16.41,12.83,24.63Z"/><path class="d" d="M1776.64,859.29c10.89,1.48,20.2,2.57,29.45,4.08,4.07,0.66,6.45-.06,8.23-4.21,3.64-8.5,7.91-16.74,12.58-26.48,1.08,5.57,2,9.82,2.73,14.09,0.93,5.15,1.94,10.29,2.58,15.48,0.45,3.69,2.21,5,5.85,5.43,9.54,1,19,2.48,30.05,4-2.41,1.42-3.69,2.24-5,2.94-7.16,3.78-14.22,7.78-21.55,11.21-3.76,1.76-4.2,4.1-3.5,7.66,1.79,9.07,3.38,18.18,5.28,28.56-7.79-7.22-14.9-13.47-21.58-20.17-2.84-2.85-5-2.82-8.27-1-8.21,4.6-16.61,8.86-26.2,13.92,4.58-9.41,8.38-17.75,12.68-25.81,2.11-4,1.79-6.44-1.68-9.45C1791.22,873.41,1784.59,866.79,1776.64,859.29Z"/><path d="M860,1333c0-17.24-.07-34.47.09-51.71,0-2.19.63-5,2.08-6.46q14.51-14.09,29.61-27.58a32.79,32.79,0,0,1,9.15-5.32c10.64-4.48,18.82-1,23.34,9.7,6,14.19,6.37,29.22,6.74,44.28,0.47,19.22-3.32,37.71-10.24,55.44-7.69,19.7-23.1,31-43.13,36.47-3.57,1-7.26,1.53-10.9,2.24-6.85,1.34-7.49.83-7.5-6.36q0-25.35,0-50.7H860Zm7.65,42.73v-97.33h-1.49V1384a61.75,61.75,0,0,0,25-7.93c12.27-7.07,21-17,25.54-30.83,9.7-29.36,11.47-58.88,3-88.73-3.14-11-9.8-13.22-19.43-7.14,8.17-2.31,9.8-1.58,12.32,6.7A87.54,87.54,0,0,1,916,1270.8c2.92,23.78,1.32,47.09-6.6,70C902.44,1360.84,887.86,1370.91,867.66,1375.72Zm11.91-17.17c17.69-8.34,19.33-25.25,23.94-41.12H879.58v41.12Zm23.74-95.92-1.84-.41c-8,8.15-20.66,12.94-19.41,28H906.3Zm1.54,48,0.87-9.91h-26.2v9.91h25.33Z"/><path d="M859.75,1483.88q0-33,0-65.91c0-7.61.09-7.34,7.88-8.11,12.6-1.24,24.93-1.12,36.78,4.22A39.37,39.37,0,0,1,921,1428.25c16.26,23.49,21.85,49.67,21.69,77.73-0.13,22.45-1.43,44.61-10.56,65.53-3.22,7.39-6.28,15.05-14.16,19.08-9.36,4.78-17.84,1.85-25.8-3.26-12.23-7.86-21.79-18.6-30.7-29.91-1.3-1.64-1.67-4.38-1.68-6.61C859.71,1528.5,859.76,1506.19,859.75,1483.88Zm5.87,0.87q0,24.58,0,49.16c0,21.06-.26,21.3,15,36a99.38,99.38,0,0,0,20.18,15c8.51,4.76,16.16,2,21.08-6.41a78.38,78.38,0,0,0,6.27-12.67c8.07-22.12,9.58-45.12,8.59-68.39-0.78-18.4-3.94-36.3-12.81-52.71-6.27-11.6-12.39-24-26.92-26.92-8.48-1.73-17.35-1.59-26-2.36-4.09-.36-5.47,1.24-5.43,5.47C865.72,1442.18,865.61,1463.46,865.62,1484.75Z"/><path d="M1045.43,486.24c9-.46,18.07-0.86,27.1-1.41a148.89,148.89,0,0,0,15.07-1.43c7-1.15,13.11.68,18.75,4.39,11,7.23,21.83,14.68,32.72,22.06,1.17,0.79,2.29,1.68,4.55,3.34-6.7.54-12,1-17.27,1.39-9.25.71-18.51,1.32-27.75,2.14a25.83,25.83,0,0,1-17.25-4.56q-16.79-11.29-33.61-22.52c-0.92-.62-1.78-1.33-2.67-2Zm30.63,8.67a10.26,10.26,0,0,0,1.61,2c4.49,3.29,8.88,6.74,13.6,9.66,2.66,1.64,5.91,3.34,8.86,3.28,7.61-.14,15.21-1.23,23.47-2-6.07-4.46-11.22-8.86-17-12.23a22.19,22.19,0,0,0-11-2.61C1089.24,493.05,1082.88,494.17,1076.07,494.91Z"/><path d="M1341.08,247.72c0,6.57,0,13.14,0,19.71,0,4.18-2.08,5.35-5.93,3.9q-12-4.52-24.15-8.91c-4-1.45-4.43-3.61-1.74-6.77,8.51-10,16.92-20.09,25.53-30,1-1.19,3-1.56,4.58-2.31,0.75,1.56,2.09,3.1,2.15,4.68,0.25,6.56.1,13.13,0.1,19.7h-0.54Zm-25.74,10,19.55,6.93v-30Z"/><path d="M454.48,324.38c0.46-.73.93-2.42,1.84-2.7a5.38,5.38,0,0,1,4.09.69c4.32,2.93,8.45,6.12,12.65,9.22,6.37,4.69,12.79,9.31,19.09,14.1,4,3.07,4,4.84-.11,7.67-6.92,4.79-13.93,9.44-20.84,14.25-2.8,1.95-5.42,2.08-6.34-1.46C461.27,352.48,458,338.73,454.48,324.38Zm15.31,36.82,17.32-11.75L463.49,332.1l-0.83.75Z"/><path d="M318.47,626c-2.86,10.54-5.53,21.14-8.67,31.59-1.32,4.39-4.83,5.72-9.33,4.4-11.33-3.33-22.67-6.63-34-9.81-3.49-1-4.75-2.89-3.64-6.34,3-9.32,5.5-18.82,9.08-27.91,4.56-11.57,12.94-16.51,24-15.33a24,24,0,0,1,20.93,18.59c0.33,1.48.46,3,.69,4.5Zm-13.94,31c2.34-10.07,5.14-19.39,6.55-28.92,1.35-9.09-4.46-16.69-13-19.1-8.79-2.47-16.12.71-20,9.94-3.7,8.76-6.31,18-9.59,27.58Z"/><path d="M256.63,609.53c-3.19,11.63-6,22.38-9.23,33-0.37,1.23-3.32,2.8-4.59,2.45q-16.62-4.5-33-9.85c-1.25-.41-2.86-3.28-2.5-4.47,3.11-10.33,5.85-20.88,10.21-30.7,6.15-13.84,22.9-16.18,32.86-4.72C253.65,599,254.63,604.76,256.63,609.53Zm-13.57,29.36c2.2-9.66,4.45-18.76,6.25-27.94a15.81,15.81,0,0,0-.84-7.43c-1.76-5.54-6.09-8.35-11.58-9.29-5.1-.88-10.06.66-12.15,5.29-4.44,9.84-8,20.11-12,30.59Z"/><path class="d" d="M879.58,1358.55v-41.12h23.94C898.91,1333.3,897.27,1350.2,879.58,1358.55Z"/><path class="b" d="M903.32,1262.63l3,27.64H882.07c-1.25-15.11,11.44-19.89,19.41-28Z"/><path d="M868.13,1417.89c12.85-2,25.39-1.19,35.28,7.17,5.8,4.91,9.63,12.46,13.47,19.31,7.55,13.49,10.7,28.36,11.7,43.66,1.47,22.34,1.13,44.62-5.57,66.23a116.83,116.83,0,0,1-8.74,19.84c-2.7,5.09-7.12,6.37-12.56,4.34-11.15-4.15-18.73-12.91-26.85-21-5.21-5.2-7.25-10.85-7.17-18.4,0.4-38.84.18-77.68,0.2-116.52C867.9,1421,868,1419.5,868.13,1417.89Zm36.37,149.82c1.74-3.49,3.05-5.8,4.08-8.23,6.62-15.68,8.43-32.28,8.83-49,0.61-25.87-2.27-50.91-18.18-72.79-5-6.84-11.86-7.84-19-9.06-2,5,1.8,6.17,4.16,7.9,10,7.34,10.69,7.55,6.06,19-8.92,22-12.88,44.59-10.88,68.24a29.32,29.32,0,0,1,0,7.59c-1.83,10.07,2.26,17.59,9.71,23.8C894.15,1559.14,899,1563.16,904.51,1567.72Zm-25.09-101h1c1.58-4.78,3.14-9.56,4.74-14.33,2.35-7,1.78-8.14-5.7-10.75v25.08Z"/><path d="M1105.55,510.18c-2.7-3-5.2-4.72-5.76-6.9-0.29-1.16,2.64-4.29,4.42-4.56,3.09-.47,6.32,1.38,6.18,5C1110.32,505.49,1107.87,507.2,1105.55,510.18Z"/><path d="M298.79,646.48l-19.47-5.69c2.26-6.41,4.16-12.6,6.64-18.55,1.59-3.81,4.54-6.28,9.22-5,4.52,1.2,7.94,4.93,7.39,9.51C301.79,633.16,300.17,639.49,298.79,646.48Z"/><path d="M237.29,628.3l-13.47-4.05c2.55-6.62,4.78-13,7.58-19.17,0.56-1.22,3.86-2.48,4.89-1.91,1.88,1.05,4.35,3.56,4.21,5.28C240,614.89,238.52,621.26,237.29,628.3Z"/><path class="d" d="M904.51,1567.72c-5.49-4.55-10.36-8.58-15.22-12.62-7.45-6.21-11.55-13.73-9.71-23.8a29.32,29.32,0,0,0,0-7.59c-2-23.65,2-46.24,10.88-68.24,4.63-11.41,3.95-11.62-6.06-19-2.36-1.73-6.2-2.87-4.16-7.9,7.17,1.22,14.06,2.22,19,9.06,15.91,21.88,18.8,46.91,18.18,72.79-0.4,16.76-2.2,33.36-8.83,49C907.56,1561.91,906.25,1564.22,904.51,1567.72Z"/></svg>