<svg xmlns="http://www.w3.org/2000/svg" viewBox="0 0 2000 2000"><title>logo</title><path d="M10,1014.81c28.42,47.85,71.69,74.88,124.4,90.78,0-2.58.08-4.43,0-6.26a830,830,0,0,1,3.94-131.14,1057.71,1057.71,0,0,1,39.27-194,17.37,17.37,0,0,0-.47-11.89,138.69,138.69,0,0,1-7.67-68,37.9,37.9,0,0,1,2.29-9c3,17.91,8,35,17,52.62,1.47-4,2.45-6.6,3.35-9.2,21.81-63.17,49-123.89,83.14-181.37,24.46-41.13,52-80,85.69-114.19,16.52-16.76,34.65-31.95,52.05-47.84,1.27-1.16,2.58-2.29,4.4-3.91-29.64-17.25-51.34-40.12-58.53-74.09l1.76-1.66a15.28,15.28,0,0,0,1,2.75c17.19,28.24,43,45.18,73.5,55.94,1.86,0.66,4.79-.27,6.68-1.37,21.92-12.8,38.39-31.65,55.57-49.82a897.58,897.58,0,0,1,87.26-80.76c4.81-3.9,6.47-7.94,6.48-14,0-26.8,5.93-52.1,21-74.72a94.07,94.07,0,0,1,24.48-25.22,15,15,0,0,1,4.8-2.16,128.68,128.68,0,0,0-24.56,57.52c-1.78,10.86-2.17,21.94-3.18,32.92l1.47,0.66c1.26-.79,2.59-1.48,3.76-2.38,51.47-39.56,109.85-62.44,173.72-72.2,35.94-5.49,72.16-6.92,108.42-7.68,19.11-.4,38.23-0.38,57.35-0.59,1.35,0,2.69-.31,5.62-0.67-12.38-9.38-24.77-15.88-38.17-19.72s-27.26-5.94-41.7-9c6.74-1.54,13.13-3.53,19.68-4.4,27.81-3.68,53.61,2.83,77.73,16.54,7.43,4.22,14.26,9.47,21.56,13.94a16.88,16.88,0,0,0,7.82,2.58c35.52,1.22,71.08,1.78,106.57,3.49,23.17,1.11,46.28,3.68,69.39,6,4,0.4,6.05-.69,8.28-3.85,15.17-21.51,34-38.51,59.39-47.21,9.78-3.36,19.82-5.42,30.56-4.08-29.66,11.4-51.55,31.47-68.32,58.76,13.24,2.24,25.56,4.2,37.83,6.43,41.9,7.61,83.32,17.5,122.61,34,26.61,11.18,52.28,24.74,77.79,38.33,8.5,4.53,15.35,5.31,24.42,2.31,35.57-11.76,71.74-14,108.2-3.92,18,5,34,13.78,48.69,25.25a13.66,13.66,0,0,1,3.87,3.87c-45.94-16.79-91.11-13.46-137.38,2.21,3.57,2.79,6.13,4.9,8.79,6.87,25,18.56,47.82,39.61,69.72,61.78,7.28,7.37,16.78,12.61,25.49,18.49,63.77,43,123.8,90.47,174.59,148.6,14.42,16.5,26.8,34.77,40.11,52.24,1,1.37,2,2.8,3.32,4.7a160.18,160.18,0,0,0,23-42.75,134.53,134.53,0,0,0,7.62-46.64l1.53-.24c1.57,5.88,3.57,11.69,4.63,17.66,4.8,26.85-.38,52.22-12.15,76.47a119.25,119.25,0,0,1-8.09,14.48c-2.13,3.17-2,5.57-.21,8.77A592.47,592.47,0,0,1,1878.3,646a709.42,709.42,0,0,1,28.94,100.82c0.37,1.72.84,3.42,1.55,6.29a241.14,241.14,0,0,0,50-54.39,190.77,190.77,0,0,0,28.2-67.8l1.62,0.08c0.48,6,1.32,11.92,1.38,17.88,0.39,42.41-14.61,79.39-41,111.9-9.29,11.46-20.43,21.42-30.36,32.39-1.66,1.84-2.2,5.45-2,8.11,1.22,12.8,3.1,25.53,4.35,38.33a998.6,998.6,0,0,1,4.11,117.78c-1.56,75.78-11.78,150.56-25.2,225-2.78,15.42-3.16,31.25-5,46.85a480.19,480.19,0,0,1-19.69,91.52c-0.54,1.65-1,3.33-1.77,6,33.16-3.9,61.76-15.52,85.87-37.82a87.88,87.88,0,0,1-19,27.46c-19.49,19.5-43.41,30.4-70.16,35.43-4.79.9-7.55,2.66-9.32,7.23-13.29,34.28-26.39,68.64-40.26,102.69-27.82,68.34-62.36,132.9-109.71,190-10.36,12.48-21.56,24.26-33,37.1,43.33,13.91,86.55,16.32,130.2,1.72l0.61,1.52c-4.6,3.17-9.06,6.57-13.82,9.47-36.84,22.41-76.83,27.56-118.78,21.05-8.81-1.37-17.44-3.83-26.21-5.45-2-.37-4.81-0.07-6.34,1.11-52.33,40.35-111.85,66.44-173.69,88-2.95,1-5.83,2.23-10,3.81,27,12,53.73,16.17,81.7,11.64l0.55,1.67c-7.08,2.85-14,6.33-21.27,8.46-30,8.76-59.12,4.7-87.34-7.44-5.93-2.55-11.08-3.15-17.32-1.31-62.82,18.5-126.86,31.36-191.69,40.16-56.86,7.72-114,13-171.41,13.24-28.22.13-56.45-.51-84.67-0.1-10.77.15-21.52,2.24-32.37,4.16,34.21,20.34,70.89,30.84,111.28,29.36-2.21,1-4.35,2.17-6.63,3-36.47,13.19-72.91,11.73-109.33-.26-18.44-6.07-35.44-15.07-52-25a19.92,19.92,0,0,0-10.5-2.6c-60.86,2.5-121.47.56-181.58-10-65.6-11.56-126.55-34.91-181.55-72.89-5.37-3.71-9.76-5.06-16.43-2.42-25.79,10.24-52.61,15.91-80.55,15.24-30.23-.72-58.19-8.6-83.06-26.25a55.31,55.31,0,0,1-8.48-7.48c30.37,11.44,61.45,12.47,92.91,7.5a203.72,203.72,0,0,0,54.22-16.56,42.53,42.53,0,0,0-3.26-3.42c-43.65-36.41-81.05-78.5-113-125.4-11.75-17.25-22.13-35.43-33.38-53a15.46,15.46,0,0,0-7-5.85c-26.82-10.1-50.36-24.66-67.06-48.61-7.82-11.22-13.42-23.45-15.05-37.46,16.52,26.68,40,44.43,70,56.25-4.41-9.93-8.25-18.66-12.16-27.36a700.42,700.42,0,0,1-37.54-107.06,35.49,35.49,0,0,0-4.52-9.62c-31.83-50.06-59.33-102.25-78.71-158.48a503.76,503.76,0,0,1-23.48-102.67c-0.51-4.14-2.11-6-6.09-7.41-33.67-11.47-63.7-28.81-88-55.32a142.25,142.25,0,0,1-34.54-66.79A50.59,50.59,0,0,1,10,1014.81Zm1226.25,766.5c2-.64,3.95-1.22,5.88-1.94,104-38.65,203.11-87.24,298.2-144.21,55.86-33.47,109.63-70,159.38-112.13,38.21-32.4,72.85-68.06,100.07-110.38,10.22-15.89,21.13-31.49,26.08-50.16,11.34-42.79,23-85.5,33.93-128.39,7.11-27.89,12.46-56.12,11.83-85.17-0.1-4.62-1.31-6.77-5.76-8.52-34.87-13.72-64.33-34.76-86.18-65.58a125,125,0,0,1-22.37-56.74c12,21.62,28.26,39.43,47.9,54.14s40.94,26.31,65.24,33.39c0-2.58.1-4.35,0-6.11-1.61-23.88-2.76-47.81-5-71.63-4.66-49.8-16.24-98.24-29.9-146.23a8,8,0,0,0-5.79-6.11,149.37,149.37,0,0,1-41.35-21.15c-19.22-14.12-33.55-32-40.76-55-0.92-3-1.39-6-2.07-9.07l1.36-.55c18.13,29.79,45,47.72,77.92,57.92-51.09-155-115.49-303.55-205.05-441.06-16.38,12.65-32.65,22.47-51.43,27.51s-37.43,5.48-55.88-1.5a2.55,2.55,0,0,1,1.86-1c34.51-1.42,62.51-17,87.26-39.84,3.26-3,3-5.31.4-8.47-10.55-12.6-20.87-25.39-31.46-38a35.23,35.23,0,0,0-8-7,1201,1201,0,0,0-219.22-109.4c-6.14-2.31-11.29-3.23-16.93.93-2.81,2.07-6.4,3.14-9.72,4.45-23.21,9.15-46.92,12.21-71.36,5.51a38.07,38.07,0,0,1-4.74-2c32.22-4.91,51.18-10.78,66.14-21.38-1.94-.76-3.51-1.5-5.15-2-10.07-3.12-20.1-6.33-30.23-9.25-65.77-18.93-132.61-30.28-201.33-28.46-4.54.12-7.46,1.37-10.25,5.14-14.23,19.19-30.62,36.33-50.29,50.05-28.11,19.6-58.78,31.56-93.64,30.38-5.89-.2-11.76-1-17.64-1.6l0-1.39c24.46-4,46.48-13.87,66.69-27.87a207.79,207.79,0,0,0,52.5-51.5c-83.06,8-162.25,25.58-239.93,51,18.47,7.47,37.77,10.31,57.46,11.81a21,21,0,0,1-6,2.63c-28.44,8-56.83,7.15-85.29-.07a20.65,20.65,0,0,0-11.34.38C655.59,272.88,582.16,307,512.93,349.79c-10,6.17-20.86,12-28.52,20.56-31.46,35-59,73.07-84,112.94-1,1.58-1.83,3.26-2.73,4.89a98.87,98.87,0,0,0,37.72-19.79c10.63-9.11,20.18-19.49,30.12-29.22a109.08,109.08,0,0,1-13.83,30.6c-16.46,24.49-39.53,40.4-66.7,50.73A21,21,0,0,0,373.07,531c-30.55,56.66-51.5,116.87-67.06,179.13-12.65,50.63-22.64,101.79-30.94,153.29-1.78,11.06-3.19,22.18-4.9,34.15,45-16.72,81.84-42.64,108.16-83.87C376.56,826.8,368,848,360.21,860.46c-21.42,34.45-52,58-88.62,74.1-5.17,2.28-7.1,5.06-7.73,10.44a2070.3,2070.3,0,0,0-14.41,214.9,32.82,32.82,0,0,0,.48,4.25c9.57-16.23,15.53-33.46,19.59-51.44a24.88,24.88,0,0,1,1.42,5.76c0.18,1.24.2,2.49,0.3,3.74,2.59,32.12-4.8,62.07-19.51,90.47a16.26,16.26,0,0,0-1.91,7.58c1.6,55.43,5.68,110.63,17.47,165,1.72,7.93,3.31,16.51,7.54,23.14,11.33,17.75,23.59,34.95,36.3,51.74a1207.63,1207.63,0,0,0,194.75,203c1.73,1.42,3.61,2.65,5.74,4.2,22.29-28.51,35.61-59.65,36.21-96a109.25,109.25,0,0,1,5.59,20.51c4.78,31.53-3.74,60.2-19.83,87-2.27,3.78-1.65,5.43,1.54,7.69,19.52,13.85,38.91,27.88,58.44,41.72,5.16,3.66,10.65,6.86,17.38,11.16l-2.28-8.37a20.39,20.39,0,0,1,6.37,6.45c3.69,6.22,9,10.45,15.23,13.85,13.65,7.42,27,15.33,40.8,22.55,42.72,22.41,87.34,39.8,134.39,50.93,44.8,10.6,90.22,16.81,136,20.27,11.2,0.85,22.71,2.37,33.67.76,29.66-4.36,59.12-10.17,88.61-15.62a11.11,11.11,0,0,0,6.49-3.93c12.08-17,20.45-35.59,23.77-56.26,1.14-7.07,1.56-14.26,2.3-21.39,9.76,24.74,7.71,49.39-.77,73.93a7.76,7.76,0,0,0,1.81.18c32.52-9,65-17.93,97.5-27.11a11.22,11.22,0,0,0,5.55-4.54c15.79-23.93,35.6-43.71,60.28-58.39,7.21-4.29,14.86-7.85,22.31-11.75l1,1.48C1264.14,1738.59,1247.74,1757.62,1236.25,1781.3Zm374.62-122.56,1.24,1.76a29.22,29.22,0,0,0-4,2.41,106.93,106.93,0,0,1-31.86,18.37c-19.16,7-38.88,8.75-59.1,6.76-3.92-.39-8.56-0.55-11.88,1.14-33.42,17-66.33,35-100,51.58A1551.23,1551.23,0,0,1,1227,1815.47c-8.5,2.94-12.62,9.65-11.86,19.57a12.21,12.21,0,0,0,2,0c34.12-5.84,68.42-10.84,102.33-17.73,74.74-15.19,147.46-37,217.06-68.66,58.79-26.77,109.81-63.63,151-113.69,33.59-40.77,60.82-85.5,83.73-133,1.64-3.4,3.11-6.88,4.67-10.32a792,792,0,0,1-111.1,95.28c-39.62,28.07-80.43,54.47-120.77,81.64A134,134,0,0,0,1610.87,1658.74ZM198.82,804.86c-0.89,3-1.5,4.64-1.87,6.35-7.16,32.77-15.23,65.38-21.23,98.36-11,60.64-15.64,121.83-12.73,183.53,2,41.55,7.65,82.47,18.51,122.64,2,7.27,4.44,14.41,7.13,23.07,9.78-9.34,18.3-17.69,27.08-25.76,4-3.72,5-7.94,5.09-13.3,0.7-41.8.85-83.63,2.9-125.37,3.53-72.13,12-143.8,22.78-215.21,0.32-2.1-1-5.13-2.53-6.7-10.08-10.09-20.65-19.7-30.63-29.89C208.26,817.41,204.1,811.38,198.82,804.86Zm103.6,691.75-0.7.39c4.58,10.58,8.87,21.29,13.77,31.71,30.94,65.8,70.62,125.7,121.31,178,46.23,47.74,98.94,86.3,160.29,112.51,5,2.14,10.17,3.88,16.95,6.44,1.53-15,2.9-28.83,4.34-42.61,0.4-3.83-1.2-6-4.52-8.12-19.6-12.43-39.45-24.55-58.42-37.9-83.27-58.59-157.24-127.41-223.29-204.81C322.1,1520.49,312.32,1508.49,302.42,1496.6ZM1893,1010.48l0.9,0.24c0.23-2.63.52-5.26,0.67-7.9,2.7-47.66,3.06-95.3-.6-143-5.11-66.54-17-131.66-39.3-194.72-1.29-3.64-3-5.93-6.8-7.29-30.86-11-58.64-27-81.46-50.92l-6.4-6.69a12.63,12.63,0,0,0,1.38,5.26c27.47,59.53,52.4,120.09,74.13,182,20.07,57.14,37.56,115,49.19,174.53C1887.84,978.08,1890.25,994.31,1893,1010.48ZM389.06,447.25l-0.68-.58c-1.39,1.26-2.85,2.46-4.17,3.79-21.94,22.16-41.31,46.43-58.9,72.12-51.31,74.92-87.62,157-115.2,243.14-1.07,3.33-.76,5.77,1.56,8.27,7.16,7.72,13.94,15.82,21.43,23.2,6.3,6.2,13.4,11.59,20.58,17.71,0.66-2.25,1.16-3.57,1.44-4.93,4.71-23.09,9.09-46.25,14.15-69.27C280,692,293,643.95,311,597.4a783.48,783.48,0,0,1,76.12-146.64C387.89,449.65,388.43,448.42,389.06,447.25Zm1260.66-47.76c28.74,43.5,53.94,89,78.52,135V530c24,43.22,60.89,69.1,105.39,85.79a377.15,377.15,0,0,0-28.88-55.37C1764.61,495.82,1709.54,445.48,1649.72,399.49ZM703.86,187.06l-0.27,2.48c10.65,7.42,21.24,14.94,32,22.15,1.28,0.85,3.78.5,5.49,0,23-7.07,45.91-14.74,69.08-21.34,50.87-14.5,102.42-26,154.88-33.2,5.87-.8,11.72-1.81,17.58-2.72a16,16,0,0,0-7.58-1.24c-32.5.51-65,.74-97.51,1.6-44,1.17-87.78,4.9-130.23,17.6C732.69,176.76,718.34,182.14,703.86,187.06ZM810.05,1856C749,1842.52,691.65,1819,636.7,1788.27c0,12.51.34,24.08-.1,35.63-0.4,10.43-2.92,8.6,8.56,11.8,43,12,87,17.92,131.55,20.18C787.8,1856.44,798.94,1856,810.05,1856ZM697.19,226.29c-8.15-5.46-16.69-10.91-24.9-16.82-3.32-2.39-5.78-2.49-9-.05-23.93,18.28-48,36.35-71.87,54.75-7.4,5.71-14.15,12.26-21.38,18.58ZM227.41,1329.12l0.73-.35L222,1256.21l-1.43-1c-5.58,5.94-11.31,11.75-16.6,17.94-1,1.14-.75,4.07-0.06,5.74q5.56,13.34,11.71,26.44C219.37,1313.37,223.46,1321.21,227.41,1329.12Zm912.9,512.82,0.26,1.47c10.35-1,20.68-2.29,31-2.76,6.34-.29,8.14-3.62,8.61-9.85ZM1364.39,203.61l-0.8,2,39.95,16.25C1390.93,214.66,1378.23,207.73,1364.39,203.61Zm-28.67-8.37,0.55-2.19L1312.14,186l-0.39,1.29Z"/><path d="M1614.07,1013.77c-3.11,323.25-268.33,578.85-586.65,575.46-321.59-3.43-576.72-264.93-575.47-582.41C453.24,680.53,716.89,426.36,1033.29,427,1364,427.74,1617.7,697.49,1614.07,1013.77ZM968,1198.3c14.63-1.78,27.24-3.06,39.77-4.87,63.49-9.16,115.06-40.07,156.64-87.93,37-42.54,48.61-92.87,37.33-147.13-11-52.72-43.51-91.08-89.8-117.76-39.57-22.8-82.68-36.76-126.26-49.45-37.65-11-75.47-21.38-112.75-33.48-25.09-8.14-48.36-20.36-66.73-40.28-20.79-22.55-27.33-48.36-18.14-77.75,9.26-29.63,30.48-48.71,57.3-61.81,37.91-18.51,78.25-20.68,118.15-10,69.13,18.56,123.41,58,158.78,121.45a159.31,159.31,0,0,0,11.08,17c3.18,4.3,13.09,6.4,17.78,3.85,5.38-2.93,2.57-7.87,2-12q-4.87-35-10-70c-3.57-24.55-7-49.11-10.91-73.62-0.95-6-1.7-13.1-9.51-14.55s-10.54,5.2-14,10.25c-4.25,6.16-8.42,12.37-12.68,18.53-4,5.86-9.15,6.5-15.91,4.53-23.62-6.88-47.28-13.7-71.16-19.6-58.4-14.43-117.18-16.6-176.21-3.81-52.07,11.29-96.86,35.13-130.33,77.45-30,38-40.6,81.07-27.19,127.88C690,806.88,723,844.46,770.54,869c37.89,19.59,78.53,32.09,119.17,44.39,34.82,10.54,69.95,20.14,103.51,34.42,25.44,10.83,49.54,23.55,68.79,44.28,28.12,30.28,33.55,77.9,12.13,113.31-16,26.37-38.2,45.53-66.47,57.61A145,145,0,0,1,969,1173.66c-4.17-35.23,1.53-69.09,8.94-102.77,7.48-34,20.59-65.86,38-96.21-2.23-1.24-3.9-2.24-5.62-3.13-24.34-12.59-50.14-21.47-76.1-30-4-1.31-6.35-.8-9.18,2.37-30.09,33.73-53.75,71.5-67.78,114.42-10.15,31-17.25,63.08-25.78,94.92-0.67-.32-2.42-1.07-4.1-2-31.76-17-56.83-41.85-80.06-68.7-22.11-25.55-39.42-54.22-53.72-84.81a68,68,0,0,0-9.85-14.53c-3.26-3.87-8-3.58-12.39-1.77-4.08,1.69-3.3,5.57-3,8.88q2.22,26.16,4.64,52.31c3.42,37.71,6.77,75.43,10.36,113.12,1.13,11.89,2.55,23.78,4.67,35.52,0.56,3.08,4,7.51,6.55,7.87,3.1,0.43,7.69-2,9.89-4.67,3.8-4.59,6-10.44,9.31-15.52,5.39-8.37,11-16.61,16.66-24.79,3.05-4.41,7.11-4.7,11.78-2.43a119.9,119.9,0,0,0,13.74,6c24.13,8.2,48.33,16.19,72.47,24.36,1.78,0.6,4.42,1.93,4.66,3.29,1.82,10,3.59,20,4.51,30.14,2.31,25.51,6.83,50.54,14.79,74.92,13.42,41.07,34.89,77.37,64.92,108.43,30.57,31.61,66.57,55,108.47,68.61,47.46,15.37,96,17.08,145.11,9.69,65.67-9.89,123-39.06,176.48-76.92a10.81,10.81,0,0,0,4-7.32c1.3-29.81,2-59.65,3.38-89.45,1-20.51,2.93-41,4.08-61.48,0.75-13.29,7.57-21.48,19.78-25.7q5.81-2,11.72-3.7c9.09-2.6,18.28-4.87,27.28-7.73,6.31-2,8.29-5.6,7.61-11.76s-3.34-8.93-9.94-9.91a46.34,46.34,0,0,0-8-.4c-33.74.91-67.47,2.13-101.22,2.75-41.62.76-83.25,1-124.87,1.53a63.27,63.27,0,0,0-9.05.78c-4.74.75-7.48,3.76-8.68,8.34-2.51,9.56,2.5,15.48,14.19,17.43s23.2,4,34.67,6.6c18.63,4.19,28.51,17.09,31.64,35a243.07,243.07,0,0,1,3.64,37.81c0.42,26.06.55,52.16-.49,78.19-0.9,22.39-11,40.38-30.52,52.37-5,3.08-10,6.29-15.18,9-48,25.15-94.22,22.55-137.44-10.76-32.3-24.89-52.69-58.85-68.55-95.64-13.87-32.17-21.76-66-25.54-100.81C968.88,1216.4,968.6,1207.26,968,1198.3Zm202.29-331.94-0.55,1.47c0.36,0.57.69,1.17,1.09,1.71,8.47,11.69,16.9,23.42,25.49,35a13.49,13.49,0,0,0,4.89,3.7c6.08,3,12.48,5.36,18.4,8.61,35.26,19.35,60.62,48.86,82.77,81.52,13.68,20.17,24.26,42,33.89,64.33a42.4,42.4,0,0,0,8,11.77c3.09,3.3,7.47,4,11.89,2.2,4.17-1.74,5.73-5.35,5.81-9.46a183.43,183.43,0,0,0-.38-18.73q-4.55-54.73-9.44-109.42c-1.14-12.6-2.58-25.2-4.62-37.68-0.84-5.15-3-10.93-9.55-11.46-6.39-.52-9.19,4.52-11.71,9.39-0.41.79-.78,1.61-1.12,2.43-1.56,3.79-2.79,7.75-4.7,11.34-3.31,6.21-7,8-13.68,6.14a103.41,103.41,0,0,1-14.41-5.53c-27.57-12.16-54.86-25-82.74-36.38C1197.15,872.22,1183.46,869.93,1170.31,866.36Z"/><path d="M1084.78,1669.77c1.27,12,2.27,23.36,3.76,34.67,1,7.47,3.83,9.61,11.48,9.88a10.15,10.15,0,0,1,2.66.07,17.41,17.41,0,0,1,3,1.61c-0.91.89-1.74,2.45-2.74,2.56-5.31.6-10.68,0.69-16,1.22-8.69.87-17.37,1.94-26,2.92a15.35,15.35,0,0,1-4.24.31c-1.17-.21-2.2-1.16-3.3-1.79,0.83-.79,1.52-1.89,2.51-2.32,9.4-4.12,10.12-4.71,9.27-15.12-1.94-23.85-4.17-47.68-6.45-71.5-0.76-7.91-3-10.67-8.28-11.33-8.18-1-15.29,2-17.24,8.53a107.44,107.44,0,0,0-3.38,18.89c-1.51,13.48-2.44,27-4,40.51-2.78,24.05-19.34,32.19-37.81,32a120.93,120.93,0,0,1-31-4.42c-13.49-3.81-20.09-13.81-19.51-27.84,0.74-17.66,2.34-35.28,3.51-52.92,0.19-2.85.09-5.71,0.1-8.57,0-6.91-2-12.26-9.9-13.52-1.12-.18-2-2-3-3,1.19-.57,2.42-1.68,3.58-1.62q22.72,1.29,45.41,3c1.44,0.11,2.77,1.63,4.15,2.5-1.4.8-2.77,2.22-4.2,2.29-6,.27-9.15,3.88-10.46,9.1a98.43,98.43,0,0,0-2.83,16.32c-1.11,14.42-2.28,28.86-2.51,43.3-0.21,13.5,7.4,22.05,20.64,24.72a54.25,54.25,0,0,0,10.08,1.08c12.84,0.13,20.41-4.78,23.84-17.18,5.57-20.11,6.86-40.8,5.94-61.59-0.29-6.55-3.33-11.51-10.37-13.25-1.31-.32-2.25-2.1-3.36-3.21,1.54-.47,3.11-1.41,4.62-1.32,7.65,0.41,15.32,1.82,22.93,1.52,13.15-.51,26.24-2.26,39.38-3.05,14-.84,28.15-2.25,42.11-1.42,13.1,0.77,21.11,9.47,22.88,21.1,1.94,12.77-3.78,23.6-15.65,29.44-10.67,5.25-22.3,6-33.86,7.08C1088.89,1669.5,1087.31,1669.59,1084.78,1669.77Zm-4.64-50.09c0.7,7.55,1.35,14.79,2.06,22s1.48,14.45,2.2,21.52c10.67,1.75,21.27-2.66,26-10.54,5.2-8.6,5.39-21.74-.1-28.39C1102,1614.22,1091.43,1616.55,1080.14,1619.67Z"/><path d="M840.34,378.3l43.11-10.57c-2.92-12.6-3.78-25-9.61-36-1.3-2.45-5.6-3.52-8.72-4.68-1.52-.57-3.53.3-5.28,0.14-0.87-.08-1.67-1-2.51-1.52,0.63-.94,1.09-2.43,1.93-2.71,2.7-.87,5.57-1.19,8.34-1.88,12.1-3,24.19-6.11,36.29-9.15a14.25,14.25,0,0,1,4.16-.81,3.44,3.44,0,0,1,2.22,1.84c0.22,0.43-.56,1.48-1.06,2.12a3.79,3.79,0,0,1-1.39.77c-10.09,4.83-10.79,5.75-8.33,16.67,5.1,22.62,10.32,45.22,15.88,67.73,2.69,10.89,3.87,11.35,15,11.37,1.27,0,2.55.58,4.12,2.28a16.29,16.29,0,0,1-3.63,2c-14.51,3.68-29,7.32-43.59,10.78-1.56.37-3.41-.47-5.13-0.75,1.24-1.18,2.28-2.94,3.75-3.42,5.08-1.66,7.56-5.29,6.84-10.15-1.86-12.45-4.32-24.81-6.71-38.18l-44.69,11.07c3.6,13.29,6.79,26,10.56,38.46,1.12,3.72,4.76,4.85,8.79,4.63,1.72-.1,3.51,1.06,5.27,1.65-1.46,1-2.78,2.55-4.39,2.95-12.63,3.13-25.3,6.08-38,9-2.32.53-4.73,0.65-7.1,1l-0.72-1.53c1.09-1,2-2.34,3.3-3,8.23-4.3,9.73-6.06,7.92-15.19-3.4-17.13-7.42-34.15-11.41-51.16-1.67-7.11-3.78-14.12-5.93-21.09-1.72-5.58-5.28-8.66-11.61-7.93-1.57.18-3.32-1.13-5-1.75,1.54-1.14,2.93-2.89,4.65-3.33,12.93-3.34,25.93-6.43,38.92-9.56a10.21,10.21,0,0,1,3.68-.44,2.1,2.1,0,0,1,1,4.06c-2.79,2-7.51,3.24-8.2,5.7-1.17,4.18-.37,9.18.55,13.63C835.37,359.86,837.79,368.27,840.34,378.3Z"/><path d="M1266.72,392.43l42.17,16.48c4.34-11.82,8.63-22.66,12.26-33.73,1.54-4.72-.54-8.74-5.36-10.93a12,12,0,0,1-3.59-2.27,2.13,2.13,0,0,1,1.91-3.77,13.85,13.85,0,0,1,3.5,1.27c13.43,5.28,26.89,10.5,40.25,15.94,1.63,0.66,2.77,2.54,4.14,3.85-1.92.26-3.94,1.06-5.73,0.7-7.43-1.49-10-.92-12.88,5.91q-14.92,35.51-29.07,71.34c-2.76,7-.9,10.12,5.79,13.91a23.38,23.38,0,0,1,3.77,3.36L1323,476a35.07,35.07,0,0,1-5.26-1.16c-13.14-5-26.25-10.17-39.36-15.29a20,20,0,0,1-3.87-1.78,2.56,2.56,0,0,1-1-2.13c0.16-.63,1.18-1.08,1.89-1.5a1.41,1.41,0,0,1,1,.07c10,3.87,14-2.79,17.35-10.14,4.17-9.24,8-18.62,12.39-28.84l-42.28-16.51c-4.7,12.21-9.24,23.56-13.41,35-1.84,5.06.09,9,4.94,11.58,1.24,0.67,1.84,2.54,2.74,3.86-1.59.12-3.4,0.78-4.75,0.26Q1234,442,1214.71,434c-1.56-.64-2.68-2.36-4-3.58,1.67-.45,3.43-1.48,5-1.25,8,1.15,10.41.43,14.11-7.12,4.15-8.47,7.71-17.25,11.27-26,4.78-11.72,9.34-23.54,13.94-35.33a71,71,0,0,0,2.36-7.09c2.15-7.89,1.24-10.16-5.27-14.91-1.1-.8-1.65-2.35-2.45-3.55,1.53-.3,3.3-1.26,4.54-0.79q20,7.61,39.77,15.69c1.36,0.56,2.23,2.32,3.32,3.53-1.7.37-3.53,1.33-5.09,1-7-1.41-9.36-.74-12.3,5.84C1275.42,370.56,1271.46,380.88,1266.72,392.43Z"/><path d="M740.8,1604.26c-4.71,10.73-9.45,21.12-13.83,31.65-3.41,8.2-2.45,10.5,4.79,15.71,1.24,0.89,1.87,2.62,2.79,4-1.73,0-3.69.54-5.15-.09q-19.65-8.47-39.12-17.37c-1.51-.69-2.51-2.5-3.75-3.79,1.72-.25,3.55-1,5.14-0.66,7.23,1.56,9.11,1.2,12.84-5.26a201.6,201.6,0,0,0,9.24-18.69q10.69-23.95,21-48c3.94-9.18,3.05-13.85-5.22-17.77-1-.47-1.61-1.68-2-4,1.84,0.21,3.85,0,5.5.7,15.52,6.33,31.17,12.42,46.39,19.41a75.16,75.16,0,0,1,18.6,12.33c8.6,7.74,10.5,18.61,6.22,27.78s-15.05,15-26.2,13.88c-4.4-.45-8.75-1.33-13.52-2.07a10.37,10.37,0,0,0,1.34,1.47c11.18,8,13.69,18.93,11.16,31.75-0.76,3.84-1.14,7.76-1.63,11.66-1,7.89.76,14.55,8.38,18.64,1,0.51,1.53,1.73,3.36,3.89-3.16-.15-5.13.27-6.59-0.4-9.08-4.16-18.13-8.41-27-13.06a6.81,6.81,0,0,1-2.81-5.57c1.14-8.26,2.87-16.44,4.44-24.65,0.37-1.92,1-3.8,1.38-5.71C759.52,1616.49,754.77,1608.55,740.8,1604.26Zm2.22-4.83c6.27,1.35,11.7,2.77,17.22,3.63,6.57,1,11.72-1.82,16-6.76C788,1582.7,783,1565,766,1560.47c-2.56-.69-5-1.43-6.54,2.19C754.39,1574.46,749,1586.11,743,1599.43Z"/><path d="M861.55,1592.08c32.17,0.07,57.45,23.23,57.54,52.68,0.09,30.24-26.57,56.56-57.16,56.44-31.55-.12-57.22-23.37-57.23-51.83C804.68,1617.16,829.64,1592,861.55,1592.08Zm31.79,39a42.79,42.79,0,0,0,0-5.35c-1.23-9.71-4.37-18.52-13.23-23.9-9.74-5.91-22.75-3.92-30.88,6.25-16,20-21.75,43-16.59,68.21a22.39,22.39,0,0,0,21.16,18.16c10.61,0.61,18.58-4.72,24.42-12.91C888.91,1666.49,892.26,1649.05,893.35,1631.05Z"/><path d="M1105.15,374c0.35-27.93,14.7-48.56,37.33-56.69,22.33-8,50.5-.76,65,16.77,17.93,21.62,14.51,55.05-7.61,74.2-22.84,19.78-53.72,20.41-76.92,1.09C1111.16,399.5,1104.73,386.68,1105.15,374Zm88.43-18c-1.35-6.4-1.91-13.1-4.2-19.14-6.62-17.49-25.15-22.27-38.76-9.55-5.37,5-9.58,12.1-12.22,19-6.28,16.52-9.3,33.76-4.46,51.34,5.22,18.94,24.16,25.26,39.31,12.77,4.62-3.81,8.33-9.34,11-14.81C1190.15,383.34,1192.15,369.9,1193.58,356Z"/><path d="M699.6,1589.41a54.53,54.53,0,0,1-7.19-2.31c-4.51-2.14-7.73-1-10.58,2.94q-6.11,8.47-12.76,16.54c-1.09,1.33-3.15,2.83-4.64,2.72-23-1.79-43.76-9.31-59.19-27.22-18.52-21.49-18.91-46.71-2-68.56,15.76-20.36,44.24-26.73,68.09-15.4,14.4,6.84,24.9,17.68,33,31.14,2.13,3.54,3.82,7,9.49,4.51,3.2-1.42,3,2,2,4-2.13,4.32-4.53,8.5-6.83,12.73-1.71,3.13-3.26,6.37-5.24,9.33-0.84,1.27-2.56,1.95-3.89,2.89-0.56-1.57-1.56-3.12-1.6-4.71-0.19-6.22.43-12.5-.17-18.66-1.73-17.72-15.49-31.84-32.34-33.31-11.24-1-20.64,4.08-28.79,11-13.56,11.44-22.9,25.79-24.06,43.88s6.24,32.62,26.3,36.24c5.47,1,10-.38,13.28-4.82a142.74,142.74,0,0,0,8.58-12.93c3.65-6.28,3.13-9.09-1.92-14.22a26.9,26.9,0,0,1-3.08-3,17,17,0,0,1-1.51-3.66c1.43,0,3.25-.62,4.24,0q20,13,39.72,26.35c0.88,0.59,1.29,1.88,1.92,2.84Z"/><path d="M751.08,466.92l-2.29,9.88c-1.82-1.59-2.86-2.11-3.31-3-5-9.28-9.92-18.58-14.69-28-0.5-1,.16-2.57.29-3.88,1.42,0.42,3.06.53,4.24,1.31,6.35,4.24,12.23,9.33,18.95,12.83,8.54,4.44,17.6,4,26.16-.86a19.49,19.49,0,0,0,10-20.27c-1.26-7.14-6.54-12-15.55-13.12-5.62-.68-11.39-0.23-17.09-0.13-5,.09-10,0.63-15,0.56-15.81-.19-27.94-9.38-31.25-23.45-3-12.66,4.32-27.73,17.94-33.81,8-3.56,16.92-5.09,25.56-6.94,2.83-.61,4.58-1,4.88-4.16,0.11-1.18,1.33-2.25,2-3.37,1.22,0.93,2.83,1.61,3.58,2.82,3.75,6.07,7.38,12.23,10.81,18.49,0.71,1.3.36,3.19,0.49,4.8-1.62-.32-3.68-0.11-4.77-1A40.73,40.73,0,0,0,751,365.9c-7.66-1.08-14.67.39-20.33,5.87-4.56,4.41-6.49,9.94-4.28,16.12,2.1,5.87,6.93,8.77,12.89,8.73,11-.07,22.1-1.14,33.14-1,23.87,0.22,38.24,20.43,31,42.93-4.81,14.89-16.09,22.31-30.36,25.68C766,465.87,758.61,466,751.08,466.92Z"/><path d="M1423.74,1483.83a6.52,6.52,0,0,0,.42-0.89q1-4.79,2-9.59c2.65,2.11,5.65,3.91,7.88,6.39,5,5.58,9.73,11.42,14.34,17.34,0.91,1.17.82,3.13,1.19,4.72-1.65-.13-3.42.1-4.92-0.45-6.85-2.48-13.43-6.1-20.47-7.62-21.62-4.69-37.94,11.67-32.69,33.13,5,20.56,17.14,36.53,36.2,46.14,22.27,11.23,44.3-1.94,45.93-26.84,0.22-3.38.29-6.78,0.73-10.14,0.13-1,1.3-1.86,2-2.79,1,0.8,2.41,1.41,3,2.46a9.81,9.81,0,0,1,.78,4.14c1.14,22.24-11.09,41.12-32.7,50.54a50.69,50.69,0,0,1-57.2-11.35c-16-16.64-22-36.41-15.2-58.63,6.34-20.75,22.77-30.56,42.89-35.23,1.39-.32,2.81-0.53,4.2-0.82C1422.63,1484.24,1423.13,1484,1423.74,1483.83Z"/><path d="M1092.08,375.6c0.22,12-3.88,23.32-5.45,33.91H1042l-41.23,0a9,9,0,0,1-2.66-.06,46,46,0,0,1-4.41-1.92c1.3-.9,2.49-2.27,3.93-2.63,9.63-2.46,12.05-5.2,12.81-15,0.22-2.85.67-5.69,0.73-8.54q0.61-27.59,1.06-55.18a54.79,54.79,0,0,0-.5-6.39c-0.71-7-3.89-11.63-11.3-12.9-1.49-.26-2.72-2-4.07-3.13,1.53-.58,3.06-1.67,4.58-1.66q23.55,0.16,47.09.7c1.52,0,3,1.24,4.51,1.91-1.41,1-2.69,2.53-4.25,2.89-11.27,2.62-13,4.5-13.27,16.26-0.51,21.6-.91,43.21-1.33,64.81,0,2.32,0,4.64.19,7,0.44,6.8,2.16,8.12,8.86,8.69,19.64,1.69,33.89-6.06,42.86-23.64,1.07-2.1,2.78-3.87,4.19-5.8Z"/><path d="M1182.42,1602.93a9.4,9.4,0,0,1-2.66.09,18.86,18.86,0,0,1-3.14-1.39c0.74-1,1.26-2.66,2.24-3,4.69-1.67,9.53-2.9,14.27-4.45,9.81-3.22,19.59-6.54,29.39-9.82a26.58,26.58,0,0,1,5.09-1.51,3.25,3.25,0,0,1,2.39,1.54c0.26,0.43-.3,1.75-0.87,2.23a22.75,22.75,0,0,1-3.63,2.25c-7.52,4.29-9.21,7.41-6.63,15.75q10.67,34.47,22.06,68.73c3.26,9.73,5.23,9.89,15.22,6.93,17.59-5.21,26.88-17.06,29.79-34.74,0.41-2.51,2.15-4.8,3.28-7.2,1.12,2.4,2.8,4.7,3.26,7.22,1.35,7.54,1.94,15.23,3.4,22.74,0.8,4.12-.45,5.47-4.26,6.64-23.49,7.27-46.9,14.8-70.32,22.3-3.22,1-6.28,2.58-9.53,3.47-1.21.33-2.74-.52-4.12-0.83,0.72-1.07,1.21-2.49,2.21-3.17,9.78-6.69,11-9.06,7.56-20.44q-9-29.94-18.9-59.63a28.51,28.51,0,0,0-6.35-10.93c-2.19-2.21-6.15-2.67-9.33-3.91Z"/><path d="M1316.22,1549.09c-2,1.68-3.83,3.51-5.94,5-4.83,3.4-6.1,7.86-3.76,13.09q6.12,13.66,12.72,27.11c6.56,13.27,13.16,26.53,20.1,39.6,5,9.48,6.87,9.43,16.4,5,17.19-8,24-21.83,24.3-40,0-2.18,1.37-4.35,2.1-6.52,1.34,1.91,3.22,3.63,3.93,5.75,3,9.09,5.75,18.3,8.63,27.6-12.66,6.1-24.92,11.8-37,17.89-13.69,6.91-27.19,14.19-40.79,21.29a11.82,11.82,0,0,1-3.4,1.48c-0.87.14-2.35-.24-2.65-0.84a2.85,2.85,0,0,1,.71-2.71c12.48-7.73,7.83-17.42,3.11-27q-12.4-25.2-25-50.28a46.79,46.79,0,0,0-4.18-6.84c-4.12-5.56-8.18-6.76-15-5.17-1.63.38-3.51-.29-5.28-0.47,1.06-1.41,1.8-3.41,3.21-4.14q20.91-10.78,42-21.13c1.46-.72,3.38-0.5,5.09-0.71Z"/><path d="M980.31,307.67a23.85,23.85,0,0,1-4.69,1.89c-5.74,1-8.45,4.58-8.19,10.1,0.6,12.48,1.07,25,2.44,37.39,1.49,13.46,3.6,26.88,6.09,40.2,1.5,8.06,3,8.66,11,9.62,1.41,0.17,2.67,1.53,4,2.34-1.38.85-2.71,2.31-4.16,2.45-12.08,1.19-24.18,2.09-36.27,3.19-3.19.29-6.34,1.09-9.53,1.3-0.88.06-1.85-1.16-2.78-1.79,0.64-.76,1.17-2,1.93-2.19,10.24-2,10.94-9.46,10.09-17.63-2.45-23.43-4.82-46.88-7.72-70.25-0.83-6.66-2.06-10.48-10.86-10.42-1.26,0-2.54-1.44-3.81-2.22,1.16-.81,2.26-2.2,3.49-2.33q22.34-2.49,44.73-4.59c1.34-.13,2.78.67,4.17,1Z"/></svg>