<svg xmlns="http://www.w3.org/2000/svg" viewBox="0 0 52 110"><title>logo-mark-dark-2</title><rect x="11.41" y="3.1" width="29.19" height="43.78" transform="translate(-10.06 25.7) rotate(-45)"/><polygon points="45.8 54.16 44.3 52.66 31.16 65.8 7.7 42.34 0.2 49.84 31.16 80.8 51.8 60.16 50.3 58.66 31.16 77.8 31.16 74.8 48.8 57.16 47.3 55.66 31.16 71.8 31.16 68.8 45.8 54.16"/><polygon points="45.8 84.17 44.3 82.67 31.16 95.81 7.7 72.35 0.2 79.85 31.16 110.81 51.8 90.17 50.3 88.67 31.16 107.81 31.16 104.81 48.8 87.17 47.3 85.67 31.16 101.81 31.16 98.81 45.8 84.17"/></svg>